<svg width="127" height="135" viewBox="0 0 127 135" fill="none" xmlns="http://www.w3.org/2000/svg">
<path d="M118.707 22.0484L68.1148 0.968379C66.5737 0.329073 64.9216 0 63.2532 0C61.5847 0 59.9327 0.329073 58.3916 0.968379L7.7996 22.0484C3.08295 23.9983 0 28.6095 0 33.7214C0 86.0262 30.1708 122.178 58.3653 133.93C61.4746 135.222 64.9791 135.222 68.0884 133.93C90.6703 124.524 126.48 92.034 126.48 33.7214C126.48 28.6095 123.397 23.9983 118.707 22.0484ZM63.2664 117.593L63.24 17.2L109.59 36.5145C108.72 76.4084 87.9563 105.314 63.2664 117.593Z" fill="#B1B1B1"/>
</svg>
