<svg width="17" height="18" viewBox="0 0 17 18" fill="none" xmlns="http://www.w3.org/2000/svg">
<path d="M14.7387 6.79004C14.7387 6.79004 14.2597 12.7309 13.9819 15.2334C13.8495 16.4286 13.1112 17.129 11.9019 17.1511C9.60052 17.1925 7.2965 17.1952 4.996 17.1467C3.83253 17.1228 3.10657 16.4136 2.9769 15.2396C2.69728 12.715 2.22095 6.79004 2.22095 6.79004" stroke="white" stroke-linecap="round" stroke-linejoin="round"/>
<path d="M15.9585 3.94238H1" stroke="white" stroke-linecap="round" stroke-linejoin="round"/>
<path d="M12.4954 8.99609H4.41504" stroke="white" stroke-linecap="round" stroke-linejoin="round"/>
<path d="M11.341 11.3047H5.56934" stroke="white" stroke-linecap="round" stroke-linejoin="round"/>
<path d="M10.1869 13.6133H6.72388" stroke="white" stroke-linecap="round" stroke-linejoin="round"/>
<path d="M13.0771 3.94187C12.3846 3.94187 11.7884 3.45231 11.6525 2.77398L11.4382 1.70136C11.3058 1.20651 10.8577 0.864258 10.347 0.864258H6.61313C6.1024 0.864258 5.65429 1.20651 5.52198 1.70136L5.30763 2.77398C5.17179 3.45231 4.5755 3.94187 3.88306 3.94187" stroke="white" stroke-linecap="round" stroke-linejoin="round"/>
</svg>
