<svg width="15" height="15" viewBox="0 0 15 15" fill="none" xmlns="http://www.w3.org/2000/svg">
<path d="M7.06722 1.02734H4.45438C2.30555 1.02734 0.958252 2.54865 0.958252 4.70237V10.5123C0.958252 12.666 2.29926 14.1873 4.45438 14.1873H10.6207C12.7765 14.1873 14.1175 12.666 14.1175 10.5123V7.69746" stroke="white" stroke-linecap="round" stroke-linejoin="round"/>
<path fill-rule="evenodd" clip-rule="evenodd" d="M5.20547 6.7096L10.4277 1.48742C11.0782 0.837527 12.1327 0.837527 12.7833 1.48742L13.6338 2.33787C14.2844 2.98845 14.2844 4.04365 13.6338 4.69354L8.38644 9.94088C8.10203 10.2253 7.71629 10.3853 7.31378 10.3853H4.69604L4.76173 7.74384C4.77152 7.3553 4.93014 6.98493 5.20547 6.7096Z" stroke="white" stroke-linecap="round" stroke-linejoin="round"/>
<path d="M9.63403 2.29492L12.8248 5.48567" stroke="white" stroke-linecap="round" stroke-linejoin="round"/>
</svg>
