<svg width="21" height="21" viewBox="0 0 21 21" fill="none" xmlns="http://www.w3.org/2000/svg">
<path d="M10.1204 19.156C12.2317 20.5446 13.3395 20.6982 13.726 20.6982C13.7766 20.699 13.8271 20.6955 13.877 20.6878C14.5382 20.5469 15.1614 20.2656 15.7044 19.8629L17.4421 18.4742C17.5805 18.3659 17.6946 18.2297 17.7772 18.0746C17.8598 17.9195 17.9089 17.7488 17.9215 17.5735C17.9341 17.3982 17.9099 17.2222 17.8503 17.0569C17.7908 16.8915 17.6973 16.7405 17.5758 16.6135L15.2239 14.1039C14.9748 13.851 14.6494 13.6872 14.2979 13.6379C13.9465 13.5886 13.5885 13.6564 13.2795 13.831L12.2507 14.4463C12.1009 14.5247 11.9306 14.5548 11.7631 14.5324C11.5956 14.51 11.4391 14.4363 11.3152 14.3214L6.903 9.7375C6.79491 9.61229 6.72941 9.45598 6.71593 9.29113C6.70245 9.12627 6.74171 8.96139 6.82802 8.82029L7.67157 7.59578C8.06461 7.02533 8.03287 6.15518 7.59946 5.61474L5.7054 3.25348C5.47987 2.97934 5.15952 2.80001 4.80793 2.75106C4.45633 2.70212 4.09919 2.78714 3.80736 2.98926L1.93725 4.31887C1.4164 4.68917 1.00466 5.47991 1.00004 6.11911C0.999558 6.17977 0.995408 7.62023 1.53045 8.94669C3.25041 13.2106 7.18893 17.2278 10.1204 19.156ZM2.4135 4.98875L4.28364 3.65913C4.37942 3.5923 4.49362 3.55692 4.61041 3.5579C4.6969 3.557 4.7825 3.57537 4.86101 3.61168C4.93951 3.64798 5.00895 3.70132 5.06427 3.7678L6.95823 6.12902C7.06069 6.27427 7.11869 6.44619 7.12516 6.62383C7.13164 6.80147 7.0863 6.97715 6.99468 7.12948L6.15113 8.35399C5.95657 8.65094 5.86663 9.00431 5.89556 9.35815C5.92449 9.71198 6.07063 10.0461 6.31084 10.3075L10.7229 14.8914C10.9756 15.1405 11.3024 15.3006 11.6541 15.3476C12.0058 15.3945 12.3633 15.3258 12.6725 15.1517L13.7014 14.5364C13.8494 14.4587 14.018 14.4294 14.1836 14.4526C14.3491 14.4758 14.5032 14.5505 14.6241 14.6659L16.9761 17.1755C17.02 17.2198 17.0539 17.273 17.0756 17.3314C17.0973 17.3899 17.1062 17.4523 17.1017 17.5145C17.0972 17.5767 17.0795 17.6372 17.0497 17.692C17.0198 17.7468 16.9787 17.7945 16.9289 17.8321L15.1912 19.2208C14.7556 19.5368 14.26 19.7605 13.7349 19.8782C13.7265 19.8792 12.8279 19.9529 10.5721 18.4693C7.65402 16.55 3.8731 12.5571 2.29273 8.63923C1.82008 7.4674 1.82184 6.13801 1.82191 6.12514C1.8247 5.74858 2.10664 5.20697 2.4135 4.98875Z" fill="#919191" stroke="#919191" stroke-width="0.5"/>
<path d="M20.2607 11.9302C20.3146 11.9302 20.3681 11.9196 20.4179 11.8989C20.4678 11.8783 20.5131 11.848 20.5513 11.8098C20.5894 11.7717 20.6197 11.7264 20.6403 11.6765C20.661 11.6266 20.6716 11.5732 20.6716 11.5192C20.6685 8.73033 19.5592 6.05655 17.5871 4.0845C15.6151 2.11244 12.9413 1.00316 10.1524 1C10.0434 1 9.9389 1.0433 9.86183 1.12037C9.78475 1.19745 9.74146 1.30198 9.74146 1.41098C9.74146 1.51998 9.78475 1.62452 9.86183 1.70159C9.9389 1.77866 10.0434 1.82196 10.1524 1.82196C12.7234 1.82487 15.1883 2.84748 17.0062 4.66544C18.8242 6.48341 19.8468 8.94826 19.8497 11.5192C19.8497 11.5732 19.8603 11.6267 19.881 11.6765C19.9016 11.7264 19.9319 11.7717 19.9701 11.8098C20.0082 11.848 20.0535 11.8783 20.1034 11.8989C20.1532 11.9196 20.2067 11.9302 20.2607 11.9302Z" fill="#919191" stroke="#919191" stroke-width="0.5"/>
<path d="M16.6809 11.5193C16.6809 11.6283 16.7242 11.7329 16.8013 11.8099C16.8783 11.887 16.9829 11.9303 17.0919 11.9303C17.2008 11.9303 17.3054 11.887 17.3824 11.8099C17.4595 11.7329 17.5028 11.6283 17.5028 11.5193C17.5006 9.5399 16.7133 7.64216 15.3136 6.24247C13.9139 4.84279 12.0162 4.05546 10.0367 4.05322C9.92771 4.05322 9.82318 4.09652 9.74611 4.1736C9.66903 4.25067 9.62573 4.3552 9.62573 4.4642C9.62573 4.5732 9.66903 4.67774 9.74611 4.75481C9.82318 4.83189 9.92771 4.87519 10.0367 4.87519C11.7982 4.87717 13.4871 5.57781 14.7327 6.82341C15.9783 8.069 16.6789 9.75781 16.6809 11.5193Z" fill="#919191" stroke="#919191" stroke-width="0.5"/>
<path d="M9.74146 7.97983C9.74144 8.0338 9.75207 8.08724 9.77271 8.13711C9.79336 8.18697 9.82363 8.23228 9.86179 8.27045C9.89995 8.30861 9.94526 8.33888 9.99512 8.35954C10.045 8.38019 10.0984 8.39082 10.1524 8.39081C10.9818 8.39176 11.7769 8.72166 12.3634 9.30813C12.9499 9.8946 13.2798 10.6898 13.2807 11.5191C13.2807 11.6281 13.324 11.7327 13.4011 11.8097C13.4781 11.8868 13.5827 11.9301 13.6916 11.9301C13.8006 11.9301 13.9052 11.8868 13.9822 11.8097C14.0593 11.7327 14.1026 11.6281 14.1026 11.5191C14.1014 10.4718 13.6849 9.46776 12.9443 8.72719C12.2038 7.98662 11.1997 7.57005 10.1524 7.56885C10.0984 7.56884 10.045 7.57947 9.99511 7.60013C9.94525 7.62078 9.89994 7.65105 9.86178 7.68922C9.82363 7.72738 9.79336 7.77269 9.77271 7.82255C9.75207 7.87242 9.74144 7.92586 9.74146 7.97983Z" fill="#919191" stroke="#919191" stroke-width="0.5"/>
</svg>
