<svg width="18" height="18" viewBox="0 0 18 18" fill="none" xmlns="http://www.w3.org/2000/svg">
<path id="Vector" fill-rule="evenodd" clip-rule="evenodd" d="M3.48225 9.81609e-08H4.76775C5.21865 -3.50184e-06 5.58232 -7.21648e-06 5.87835 0.0193824C6.1827 0.0393192 6.45187 0.0813494 6.70673 0.182689C7.31929 0.426276 7.80596 0.893484 8.05969 1.48154C8.16525 1.7262 8.20905 1.98461 8.22983 2.27678C8.25 2.56097 8.25 2.9101 8.25 3.34296V4.57704C8.25 5.0099 8.25 5.35907 8.22983 5.64322C8.20905 5.93539 8.16525 6.1938 8.05969 6.43846C7.80596 7.02652 7.31929 7.49372 6.70673 7.7373C6.45187 7.83864 6.1827 7.88069 5.87835 7.90063C5.58232 7.92 5.21865 7.92 4.76775 7.92H3.48225C3.03135 7.92 2.66768 7.92 2.37165 7.90063C2.0673 7.88069 1.79813 7.83864 1.54328 7.7373C0.930713 7.49372 0.444038 7.02652 0.190301 6.43846C0.0847389 6.1938 0.0409575 5.93539 0.02019 5.64322C-7.51717e-06 5.35903 -3.64775e-06 5.0099 1.02251e-07 4.57704V3.34296C-3.64775e-06 2.9101 -7.51717e-06 2.56097 0.02019 2.27678C0.0409575 1.98461 0.0847389 1.7262 0.190301 1.48154C0.444038 0.893484 0.930713 0.426276 1.54328 0.182689C1.79813 0.0813494 2.0673 0.0393192 2.37165 0.0193824C2.66768 -7.21648e-06 3.03135 -3.50184e-06 3.48225 9.81609e-08ZM2.43971 0.977148C2.18625 0.993744 2.03865 1.02481 1.92596 1.0696C1.55843 1.21576 1.26641 1.49609 1.11416 1.84892C1.06751 1.9571 1.03515 2.0988 1.01786 2.34212C1.00028 2.58977 1.00001 2.90614 1.00001 3.35999V4.56001C1.00001 5.01386 1.00028 5.33023 1.01786 5.57788C1.03515 5.8212 1.06751 5.9629 1.11416 6.07108C1.26641 6.42391 1.55843 6.70424 1.92596 6.8504C2.03865 6.89519 2.18625 6.92626 2.43971 6.94285C2.69768 6.95974 3.02722 6.95999 3.49999 6.95999H4.75001C5.22277 6.95999 5.55233 6.95974 5.81029 6.94285C6.06375 6.92626 6.21135 6.89519 6.32404 6.8504C6.69157 6.70424 6.98359 6.42391 7.13584 6.07108C7.18249 5.9629 7.21485 5.8212 7.23214 5.57788C7.24972 5.33023 7.24999 5.01386 7.24999 4.56001V3.35999C7.24999 2.90614 7.24972 2.58977 7.23214 2.34212C7.21485 2.0988 7.18249 1.9571 7.13584 1.84892C6.98359 1.49609 6.69157 1.21576 6.32404 1.0696C6.21135 1.02481 6.06375 0.993744 5.81029 0.977148C5.55233 0.960264 5.22277 0.960012 4.75001 0.960012H3.49999C3.02722 0.960012 2.69768 0.960264 2.43971 0.977148ZM3.48225 9.36H4.76775C5.21865 9.36 5.58232 9.36 5.87835 9.37937C6.1827 9.39931 6.45187 9.44136 6.70673 9.5427C7.31929 9.78628 7.80596 10.2535 8.05969 10.8415C8.16525 11.0862 8.20905 11.3446 8.22983 11.6368C8.25 11.921 8.25 12.2701 8.25 12.703V13.937C8.25 14.3699 8.25 14.7191 8.22983 15.0032C8.20905 15.2954 8.16525 15.5538 8.05969 15.7985C7.80596 16.3865 7.31929 16.8537 6.70673 17.0973C6.45187 17.1986 6.1827 17.2407 5.87835 17.2606C5.58232 17.28 5.21865 17.28 4.76775 17.28H3.48225C3.03135 17.28 2.66768 17.28 2.37165 17.2606C2.0673 17.2407 1.79813 17.1986 1.54328 17.0973C0.930713 16.8537 0.444038 16.3865 0.190301 15.7985C0.0847389 15.5538 0.0409575 15.2954 0.02019 15.0032C-7.51717e-06 14.719 -3.64775e-06 14.3699 1.02251e-07 13.937V12.703C-3.64775e-06 12.2701 -7.51717e-06 11.921 0.02019 11.6368C0.0409575 11.3446 0.0847389 11.0862 0.190301 10.8415C0.444038 10.2535 0.930713 9.78628 1.54328 9.5427C1.79813 9.44136 2.0673 9.39931 2.37165 9.37937C2.66768 9.36 3.03135 9.36 3.48225 9.36ZM2.43971 10.3371C2.18625 10.3537 2.03865 10.3848 1.92596 10.4296C1.55843 10.5758 1.26641 10.8561 1.11416 11.2089C1.06751 11.3171 1.03515 11.4588 1.01786 11.7021C1.00028 11.9498 1.00001 12.2661 1.00001 12.72V13.92C1.00001 14.3739 1.00028 14.6902 1.01786 14.9379C1.03515 15.1812 1.06751 15.3229 1.11416 15.4311C1.26641 15.7839 1.55843 16.0642 1.92596 16.2104C2.03865 16.2552 2.18625 16.2863 2.43971 16.3029C2.69768 16.3197 3.02722 16.32 3.49999 16.32H4.75001C5.22277 16.32 5.55233 16.3197 5.81029 16.3029C6.06375 16.2863 6.21135 16.2552 6.32404 16.2104C6.69157 16.0642 6.98359 15.7839 7.13584 15.4311C7.18249 15.3229 7.21485 15.1812 7.23214 14.9379C7.24972 14.6902 7.24999 14.3739 7.24999 13.92V12.72C7.24999 12.2661 7.24972 11.9498 7.23214 11.7021C7.21485 11.4588 7.18249 11.3171 7.13584 11.2089C6.98359 10.8561 6.69157 10.5758 6.32404 10.4296C6.21135 10.3848 6.06375 10.3537 5.81029 10.3371C5.55233 10.3203 5.22277 10.32 4.75001 10.32H3.49999C3.02722 10.32 2.69768 10.3203 2.43971 10.3371ZM13.2323 9.81609e-08H14.5177C14.9686 -3.50184e-06 15.3323 -7.21648e-06 15.6283 0.0193824C15.9327 0.0393192 16.2019 0.0813494 16.4567 0.182689C17.0693 0.426276 17.556 0.893484 17.8097 1.48154C17.9153 1.7262 17.9591 1.98461 17.9798 2.27678C18 2.56097 18 2.9101 18 3.34296V4.57704C18 5.0099 18 5.35907 17.9798 5.64322C17.9591 5.93539 17.9153 6.1938 17.8097 6.43846C17.556 7.02652 17.0693 7.49372 16.4567 7.7373C16.2019 7.83864 15.9327 7.88069 15.6283 7.90063C15.3323 7.92 14.9686 7.92 14.5177 7.92H13.2323C12.7814 7.92 12.4177 7.92 12.1217 7.90063C11.8173 7.88069 11.5481 7.83864 11.2933 7.7373C10.6807 7.49372 10.194 7.02652 9.94031 6.43846C9.83475 6.1938 9.79095 5.93539 9.77017 5.64322C9.75 5.35903 9.75 5.0099 9.75 4.57704V3.34296C9.75 2.9101 9.75 2.56097 9.77017 2.27678C9.79095 1.98461 9.83475 1.7262 9.94031 1.48154C10.194 0.893484 10.6807 0.426276 11.2933 0.182689C11.5481 0.0813494 11.8173 0.0393192 12.1217 0.0193824C12.4177 -7.21648e-06 12.7814 -3.50184e-06 13.2323 9.81609e-08ZM12.1897 0.977148C11.9363 0.993744 11.7886 1.02481 11.676 1.0696C11.3084 1.21576 11.0164 1.49609 10.8642 1.84892C10.8175 1.9571 10.7851 2.0988 10.7679 2.34212C10.7503 2.58977 10.75 2.90614 10.75 3.35999V4.56001C10.75 5.01386 10.7503 5.33023 10.7679 5.57788C10.7851 5.8212 10.8175 5.9629 10.8642 6.07108C11.0164 6.42391 11.3084 6.70424 11.676 6.8504C11.7886 6.89519 11.9363 6.92626 12.1897 6.94285C12.4477 6.95974 12.7772 6.95999 13.25 6.95999H14.5C14.9728 6.95999 15.3023 6.95974 15.5603 6.94285C15.8137 6.92626 15.9614 6.89519 16.074 6.8504C16.4416 6.70424 16.7336 6.42391 16.8858 6.07108C16.9325 5.9629 16.9649 5.8212 16.9821 5.57788C16.9997 5.33023 17 5.01386 17 4.56001V3.35999C17 2.90614 16.9997 2.58977 16.9821 2.34212C16.9649 2.0988 16.9325 1.9571 16.8858 1.84892C16.7336 1.49609 16.4416 1.21576 16.074 1.0696C15.9614 1.02481 15.8137 0.993744 15.5603 0.977148C15.3023 0.960264 14.9728 0.960012 14.5 0.960012H13.25C12.7772 0.960012 12.4477 0.960264 12.1897 0.977148ZM13.2323 9.36H14.5177C14.9686 9.36 15.3323 9.36 15.6283 9.37937C15.9327 9.39931 16.2019 9.44136 16.4567 9.5427C17.0693 9.78628 17.556 10.2535 17.8097 10.8415C17.9153 11.0862 17.9591 11.3446 17.9798 11.6368C18 11.921 18 12.2701 18 12.703V13.937C18 14.3699 18 14.7191 17.9798 15.0032C17.9591 15.2954 17.9153 15.5538 17.8097 15.7985C17.556 16.3865 17.0693 16.8537 16.4567 17.0973C16.2019 17.1986 15.9327 17.2407 15.6283 17.2606C15.3323 17.28 14.9686 17.28 14.5177 17.28H13.2323C12.7814 17.28 12.4177 17.28 12.1217 17.2606C11.8173 17.2407 11.5481 17.1986 11.2933 17.0973C10.6807 16.8537 10.194 16.3865 9.94031 15.7985C9.83475 15.5538 9.79095 15.2954 9.77017 15.0032C9.75 14.719 9.75 14.3699 9.75 13.937V12.703C9.75 12.2701 9.75 11.921 9.77017 11.6368C9.79095 11.3446 9.83475 11.0862 9.94031 10.8415C10.194 10.2535 10.6807 9.78628 11.2933 9.5427C11.5481 9.44136 11.8173 9.39931 12.1217 9.37937C12.4177 9.36 12.7814 9.36 13.2323 9.36ZM12.1897 10.3371C11.9363 10.3537 11.7886 10.3848 11.676 10.4296C11.3084 10.5758 11.0164 10.8561 10.8642 11.2089C10.8175 11.3171 10.7851 11.4588 10.7679 11.7021C10.7503 11.9498 10.75 12.2661 10.75 12.72V13.92C10.75 14.3739 10.7503 14.6902 10.7679 14.9379C10.7851 15.1812 10.8175 15.3229 10.8642 15.4311C11.0164 15.7839 11.3084 16.0642 11.676 16.2104C11.7886 16.2552 11.9363 16.2863 12.1897 16.3029C12.4477 16.3197 12.7772 16.32 13.25 16.32H14.5C14.9728 16.32 15.3023 16.3197 15.5603 16.3029C15.8137 16.2863 15.9614 16.2552 16.074 16.2104C16.4416 16.0642 16.7336 15.7839 16.8858 15.4311C16.9325 15.3229 16.9649 15.1812 16.9821 14.9379C16.9997 14.6902 17 14.3739 17 13.92V12.72C17 12.2661 16.9997 11.9498 16.9821 11.7021C16.9649 11.4588 16.9325 11.3171 16.8858 11.2089C16.7336 10.8561 16.4416 10.5758 16.074 10.4296C15.9614 10.3848 15.8137 10.3537 15.5603 10.3371C15.3023 10.3203 14.9728 10.32 14.5 10.32H13.25C12.7772 10.32 12.4477 10.3203 12.1897 10.3371Z" fill="white"/>
</svg>
