<?xml version="1.0" encoding="UTF-8"?> <svg xmlns="http://www.w3.org/2000/svg" width="40" height="40" viewBox="0 0 40 40" fill="none"><path d="M10.1699 7C8.42729 7 6.99188 8.43542 6.99188 10.178V11.426H5.8764L4.90602 9.74371C4.81314 9.58283 4.67956 9.44918 4.51873 9.35622C4.35789 9.26325 4.17547 9.21423 3.9897 9.21403H1.98855C1.70759 9.21403 1.43816 9.32566 1.23949 9.52433C1.04082 9.72299 0.929199 9.99243 0.929199 10.2734C0.929199 10.5543 1.04082 10.8238 1.23949 11.0224C1.43816 11.2211 1.70759 11.3327 1.98855 11.3327H3.37629L4.34777 13.015C4.44066 13.1759 4.57417 13.3095 4.73501 13.4025C4.89584 13.4954 5.07833 13.5445 5.2641 13.5447H6.99188V16.4388H1.98855C1.70759 16.4388 1.43816 16.5504 1.23949 16.7491C1.04082 16.9477 0.929199 17.2172 0.929199 17.4981C0.929199 17.7791 1.04082 18.0485 1.23949 18.2472C1.43816 18.4459 1.70759 18.5575 1.98855 18.5575H6.99188V21.4548H1.98855C1.70759 21.4548 1.43816 21.5664 1.23949 21.7651C1.04082 21.9638 0.929199 22.2332 0.929199 22.5142C0.929199 22.7951 1.04082 23.0646 1.23949 23.2632C1.43816 23.4619 1.70759 23.5735 1.98855 23.5735H6.99188V26.4676H5.26513C5.07918 26.4676 4.89649 26.5166 4.73546 26.6096C4.57442 26.7026 4.44075 26.8363 4.34777 26.9973L3.37739 28.6796H1.98965C1.70869 28.6796 1.43926 28.7912 1.24059 28.9899C1.04192 29.1885 0.930298 29.458 0.930298 29.7389C0.930298 30.0199 1.04192 30.2893 1.24059 30.488C1.43926 30.6866 1.70869 30.7983 1.98965 30.7983H3.9897C4.17547 30.7981 4.35789 30.7491 4.51873 30.6561C4.67956 30.5631 4.81314 30.4295 4.90602 30.2686L5.8764 28.5863H6.99188V29.8343C6.99188 31.5758 8.42729 33.0123 10.1699 33.0123H19.9372C20.2181 33.0123 20.4875 32.9007 20.6862 32.702C20.8849 32.5034 20.9965 32.2339 20.9965 31.953C20.9965 31.672 20.8849 31.4026 20.6862 31.2039C20.4875 31.0052 20.2181 30.8936 19.9372 30.8936H10.1699C9.56503 30.8936 9.11057 30.4381 9.11057 29.8343V10.178C9.11057 9.5721 9.56503 9.1187 10.1699 9.1187H20.5812C20.8622 9.1187 21.1316 9.00707 21.3303 8.80841C21.5289 8.60974 21.6406 8.34031 21.6406 8.05935C21.6406 7.77839 21.5289 7.50893 21.3303 7.31026C21.1316 7.11159 20.8622 7 20.5812 7H10.1699ZM24.8207 7C24.5398 7 24.2703 7.11159 24.0717 7.31026C23.873 7.50893 23.7614 7.77839 23.7614 8.05935C23.7614 8.34031 23.873 8.60974 24.0717 8.80841C24.2703 9.00707 24.5398 9.1187 24.8207 9.1187H29.8272C30.4332 9.1187 30.8866 9.57316 30.8866 10.178V29.8343C30.8866 30.4391 30.4332 30.8936 29.8272 30.8936H28.4151C28.1342 30.8936 27.8647 31.0052 27.666 31.2039C27.4673 31.4026 27.3558 31.672 27.3558 31.953C27.3558 32.2339 27.4673 32.5034 27.666 32.702C27.8647 32.9007 28.1342 33.0123 28.4151 33.0123H29.8283C31.5698 33.0123 33.0063 31.5769 33.0063 29.8343V28.5863H34.1207L35.0911 30.2686C35.1841 30.4296 35.3178 30.5634 35.4788 30.6563C35.6398 30.7493 35.8225 30.7983 36.0085 30.7983H38.0085C38.2895 30.7983 38.5589 30.6866 38.7576 30.488C38.9563 30.2893 39.0679 30.0199 39.0679 29.7389C39.0679 29.458 38.9563 29.1885 38.7576 28.9899C38.5589 28.7912 38.2895 28.6796 38.0085 28.6796H36.6208L35.6504 26.9973C35.5574 26.8363 35.4238 26.7026 35.2627 26.6096C35.1017 26.5166 34.919 26.4676 34.7331 26.4676H33.0063V23.5735H38.0085C38.2895 23.5735 38.5589 23.4619 38.7576 23.2632C38.9563 23.0646 39.0679 22.7951 39.0679 22.5142C39.0679 22.2332 38.9563 21.9638 38.7576 21.7651C38.5589 21.5664 38.2895 21.4548 38.0085 21.4548H33.0063V18.5586H38.0085C38.2895 18.5586 38.5589 18.4469 38.7576 18.2483C38.9563 18.0496 39.0679 17.7802 39.0679 17.4992C39.0679 17.2183 38.9563 16.9488 38.7576 16.7501C38.5589 16.5515 38.2895 16.4399 38.0085 16.4399H33.0063V13.5447H34.7331C34.919 13.5447 35.1017 13.4957 35.2627 13.4027C35.4238 13.3097 35.5574 13.176 35.6504 13.015L36.6208 11.3327H38.0085C38.2895 11.3327 38.5589 11.2211 38.7576 11.0224C38.9563 10.8238 39.0679 10.5543 39.0679 10.2734C39.0679 9.99243 38.9563 9.72299 38.7576 9.52433C38.5589 9.32566 38.2895 9.21403 38.0085 9.21403H36.0085C35.8225 9.21404 35.6398 9.26298 35.4788 9.35596C35.3178 9.44894 35.1841 9.58267 35.0911 9.74371L34.1207 11.426H33.0063V10.178C33.0063 8.43648 31.5698 7 29.8283 7H24.8207ZM24.1745 30.8883C23.8936 30.8883 23.6241 30.9999 23.4254 31.1986C23.2268 31.3973 23.1152 31.6667 23.1152 31.9476C23.1152 32.2286 23.2268 32.4981 23.4254 32.6967C23.6241 32.8954 23.8936 33.007 24.1745 33.007C24.4555 33.007 24.7249 32.8954 24.9236 32.6967C25.1223 32.4981 25.2339 32.2286 25.2339 31.9476C25.2339 31.6667 25.1223 31.3973 24.9236 31.1986C24.7249 30.9999 24.4555 30.8883 24.1745 30.8883Z" fill="#0047FF"></path><path d="M14.4604 16.9612C14.1092 16.9612 13.7724 17.1007 13.5241 17.349C13.2758 17.5974 13.1362 17.9342 13.1362 18.2854C13.1362 18.6366 13.2758 18.9734 13.5241 19.2217C13.7724 19.47 14.1092 19.6096 14.4604 19.6096C14.8116 19.6096 15.1485 19.47 15.3968 19.2217C15.6451 18.9734 15.7846 18.6366 15.7846 18.2854C15.7846 17.9342 15.6451 17.5974 15.3968 17.349C15.1485 17.1007 14.8116 16.9612 14.4604 16.9612ZM20.0009 16.9612C19.6497 16.9612 19.3128 17.1007 19.0645 17.349C18.8162 17.5974 18.6767 17.9342 18.6767 18.2854C18.6767 18.6366 18.8162 18.9734 19.0645 19.2217C19.3128 19.47 19.6497 19.6096 20.0009 19.6096C20.352 19.6096 20.6888 19.47 20.9372 19.2217C21.1855 18.9734 21.325 18.6366 21.325 18.2854C21.325 17.9342 21.1855 17.5974 20.9372 17.349C20.6888 17.1007 20.352 16.9612 20.0009 16.9612ZM25.5306 16.9612C25.1794 16.9612 24.8426 17.1007 24.5943 17.349C24.346 17.5974 24.2064 17.9342 24.2064 18.2854C24.2064 18.6366 24.346 18.9734 24.5943 19.2217C24.8426 19.47 25.1794 19.6096 25.5306 19.6096C25.8818 19.6096 26.2187 19.47 26.467 19.2217C26.7153 18.9734 26.8548 18.6366 26.8548 18.2854C26.8548 17.9342 26.7153 17.5974 26.467 17.349C26.2187 17.1007 25.8818 16.9612 25.5306 16.9612ZM14.4604 24.7704C14.1092 24.7704 13.7724 24.9099 13.5241 25.1583C13.2758 25.4066 13.1362 25.7434 13.1362 26.0946C13.1362 26.4458 13.2758 26.7826 13.5241 27.0309C13.7724 27.2793 14.1092 27.4188 14.4604 27.4188C14.8116 27.4188 15.1485 27.2793 15.3968 27.0309C15.6451 26.7826 15.7846 26.4458 15.7846 26.0946C15.7846 25.7434 15.6451 25.4066 15.3968 25.1583C15.1485 24.9099 14.8116 24.7704 14.4604 24.7704ZM20.0009 24.7704C19.6497 24.7704 19.3128 24.9099 19.0645 25.1583C18.8162 25.4066 18.6767 25.7434 18.6767 26.0946C18.6767 26.4458 18.8162 26.7826 19.0645 27.0309C19.3128 27.2793 19.6497 27.4188 20.0009 27.4188C20.352 27.4188 20.6888 27.2793 20.9372 27.0309C21.1855 26.7826 21.325 26.4458 21.325 26.0946C21.325 25.7434 21.1855 25.4066 20.9372 25.1583C20.6888 24.9099 20.352 24.7704 20.0009 24.7704ZM25.5306 24.7704C25.1794 24.7704 24.8426 24.9099 24.5943 25.1583C24.346 25.4066 24.2064 25.7434 24.2064 26.0946C24.2064 26.4458 24.346 26.7826 24.5943 27.0309C24.8426 27.2793 25.1794 27.4188 25.5306 27.4188C25.8818 27.4188 26.2187 27.2793 26.467 27.0309C26.7153 26.7826 26.8548 26.4458 26.8548 26.0946C26.8548 25.7434 26.7153 25.4066 26.467 25.1583C26.2187 24.9099 25.8818 24.7704 25.5306 24.7704Z" fill="#0047FF"></path></svg> 