<svg id="Group_49" data-name="Group 49" xmlns="http://www.w3.org/2000/svg" xmlns:xlink="http://www.w3.org/1999/xlink" width="70.665" height="62.451" viewBox="0 0 70.665 62.451">
  <defs>
    <clipPath id="clip-path">
      <rect id="Rectangle_25" data-name="Rectangle 25" width="70.665" height="62.451" fill="none"/>
    </clipPath>
  </defs>
  <g id="Group_48" data-name="Group 48" clip-path="url(#clip-path)">
    <path id="Path_185" data-name="Path 185" d="M24.294,10.352a5.643,5.643,0,0,1-5.191.2.867.867,0,0,0-.77.186C16.15,13.009,14,15.311,11.822,17.58c-.372.386-.217.656-.036,1.029a5.549,5.549,0,1,1-8.978-1.339,5.454,5.454,0,0,1,6.11-1.3.937.937,0,0,0,1.276-.246q3.068-3.306,6.2-6.55a.847.847,0,0,0,.162-1.155,5.481,5.481,0,0,1,1.5-6.823,5.574,5.574,0,0,1,6.868-.026,5.476,5.476,0,0,1,1.544,6.813.906.906,0,0,0,.1,1.117c2.314,2.969,4.6,5.957,6.923,8.921.17.217.567.481.76.418a5.77,5.77,0,0,1,5.806,1.228c1.844-1.518,3.693-3.018,5.5-4.565.155-.133.126-.607.04-.877a5.5,5.5,0,0,1,4.011-7.158,5.244,5.244,0,0,1,5.347,1.687.845.845,0,0,0,1.2.246c.984-.476,1.978-.941,3-1.328a1.141,1.141,0,0,0,.845-1.3,5.467,5.467,0,0,1,3.708-5.2A5.548,5.548,0,0,1,69.188,10.6a5.48,5.48,0,0,1-7.662-.393.977.977,0,0,0-1.4-.279c-1,.51-2.034.947-3.072,1.37a.9.9,0,0,0-.67.984,5.422,5.422,0,0,1-4.79,5.667,5.02,5.02,0,0,1-3.616-.773.772.772,0,0,0-1.087.075Q44.433,19.3,41.944,21.32a.925.925,0,0,0-.392,1.065,5.248,5.248,0,0,1-2.06,5.736,5.215,5.215,0,0,1-5.87.463,5.155,5.155,0,0,1-2.939-5.254,13.611,13.611,0,0,1,.894-2.759c.085-.274.175-.689.038-.869-2.346-3.086-4.727-6.144-7.1-9.208a1.159,1.159,0,0,0-.216-.143M36.15,26.733a3.026,3.026,0,0,0,3.1-2.977,3.067,3.067,0,1,0-6.132-.07,3.041,3.041,0,0,0,3.037,3.048M50.866,9.4a3.057,3.057,0,0,0-3.079,3.01,3.136,3.136,0,0,0,3.071,3.14,3.087,3.087,0,0,0,3.06-3.046,3.014,3.014,0,0,0-3.052-3.1M3.768,21.038a3.065,3.065,0,1,0,6.13.112,3.032,3.032,0,0,0-2.972-3.106,3.019,3.019,0,0,0-3.158,2.994M68.59,6.436A2.985,2.985,0,0,0,65.6,3.367,3.051,3.051,0,0,0,62.463,6.4a3.116,3.116,0,0,0,3.014,3.1A3.062,3.062,0,0,0,68.59,6.436m-50.151-.9a3.066,3.066,0,1,0,6.132.009,3.066,3.066,0,0,0-6.132-.009" transform="translate(-0.845 0)" fill="#762fd2"/>
    <path id="Path_186" data-name="Path 186" d="M56.169,70q0,8.726,0,17.451c0,2.138-.677,2.8-2.838,2.805q-2.318,0-4.637,0c-2.009,0-2.761-.734-2.763-2.74q-.01-13.152,0-26.3c0-2.922,0-5.845,0-8.768.005-1.964.746-2.7,2.7-2.712,1.658-.005,3.316-.011,4.974,0,1.81.014,2.564.762,2.566,2.561q.01,8.852,0,17.7m-7.776-.032c0,5.588.014,11.176-.016,16.764,0,.781.167,1.116,1.017,1.06a23.35,23.35,0,0,1,3.283,0c.891.067,1.078-.275,1.071-1.1-.034-4.38-.017-8.761-.017-13.141,0-6.8-.012-13.591.017-20.386,0-.8-.259-1.016-1.014-.978a27.8,27.8,0,0,1-3.283,0c-.877-.059-1.08.266-1.075,1.1.034,5.56.018,11.12.018,16.68" transform="translate(-30.412 -32.93)" fill="#1a1818"/>
    <path id="Path_187" data-name="Path 187" d="M176.4,72.207q0-8.516,0-17.032c0-2.092.62-2.711,2.706-2.716,1.686,0,3.373-.013,5.059,0,1.732.013,2.464.765,2.47,2.563.012,3.85.006,7.7.006,11.551q0,11.3,0,22.6c0,2.172-.713,2.891-2.871,2.892-1.63,0-3.26.01-4.89,0a2.174,2.174,0,0,1-2.476-2.483q-.012-8.684,0-17.368m2.444.088c0,5.448.012,10.9-.014,16.345,0,.722.177,1,.941.957,1.176-.064,2.359-.048,3.537-.005.655.023.888-.181.878-.858-.035-2.274-.013-4.55-.013-6.824,0-8.678-.01-17.357.016-26.035,0-.78-.229-1.03-1-.991a28.633,28.633,0,0,1-3.284,0c-.844-.054-1.094.2-1.088,1.067.04,5.448.02,10.9.022,16.345" transform="translate(-116.808 -34.734)" fill="#1a1818"/>
    <path id="Path_188" data-name="Path 188" d="M132.919,87.011q0-7.08,0-14.161c0-1.9.746-2.644,2.651-2.654,1.658-.009,3.316-.013,4.973,0,1.849.018,2.615.773,2.616,2.626q.012,14.161,0,28.321c0,1.887-.793,2.652-2.675,2.658q-2.486.009-4.973,0c-1.8-.008-2.581-.766-2.584-2.549q-.015-7.123,0-14.245Zm7.782,0c0-4.492-.01-8.985.012-13.477,0-.653-.183-.9-.861-.874-1.149.047-2.3.058-3.452,0-.8-.043-1.063.193-1.053,1.024.043,3.622.016,7.244.016,10.866,0,5.279.012,10.557-.012,15.835,0,.719.179,1,.944.96,1.091-.064,2.189-.016,3.284-.017,1.119,0,1.122,0,1.123-1.09q0-6.612,0-13.224" transform="translate(-88.017 -46.478)" fill="#1a1818"/>
    <path id="Path_189" data-name="Path 189" d="M35.326,180.078q-16.393,0-32.787,0c-.478,0-.956.008-1.432-.02a1.194,1.194,0,0,1-.07-2.375,5.846,5.846,0,0,1,.839-.045q33.334-.006,66.668,0a6.634,6.634,0,0,1,1.174.074,1.1,1.1,0,0,1,.944,1.209,1.106,1.106,0,0,1-1.034,1.136,5.886,5.886,0,0,1-.673.023l-33.629,0" transform="translate(0 -117.628)" fill="#1a1818"/>
    <path id="Path_190" data-name="Path 190" d="M12.7,108.382c0,3.288.007,6.575,0,9.863,0,1.794-.772,2.559-2.562,2.569q-2.529.014-5.058,0c-1.785-.009-2.609-.794-2.613-2.553q-.018-9.947,0-19.893c0-1.718.767-2.467,2.468-2.48,1.8-.014,3.6-.019,5.4,0,1.631.016,2.359.743,2.366,2.38.014,3.372,0,6.743,0,10.115m-2.5-10.02c-1.641,0-3.21-.021-4.776.03-.173.006-.476.426-.477.655-.026,6.18-.014,12.36-.029,18.54,0,.606.237.771.8.757,1.207-.03,2.418-.058,3.623.008.784.043.93-.272.927-.973-.023-6.012-.015-12.023-.019-18.035,0-.3-.03-.6-.051-.983" transform="translate(-1.627 -63.488)" fill="#1a1818"/>
    <path id="Path_191" data-name="Path 191" d="M89.436,114.71q0-4.255,0-8.509c0-2,.7-2.685,2.685-2.686q2.527,0,5.055,0c1.744,0,2.484.737,2.488,2.538.012,4.746,0,9.492,0,14.238,0,1.067.022,2.135-.008,3.2a2.164,2.164,0,0,1-2.423,2.375c-1.769.021-3.539.016-5.308,0a2.189,2.189,0,0,1-2.486-2.484c-.022-2.892-.006-5.785-.007-8.678m2.569-8.684a1.422,1.422,0,0,0-.1.319q-.013,8.219-.022,16.439c0,.494.239.617.682.611,1.208-.016,2.419-.051,3.624.012.8.043,1.06-.192,1.054-1.022-.035-5.114-.015-10.229-.018-15.344,0-.328-.035-.656-.055-1.016Z" transform="translate(-59.221 -68.546)" fill="#1a1818"/>
  </g>
</svg>
