<svg id="Group_41" data-name="Group 41" xmlns="http://www.w3.org/2000/svg" xmlns:xlink="http://www.w3.org/1999/xlink" width="62.594" height="62.598" viewBox="0 0 62.594 62.598">
  <defs>
    <clipPath id="clip-path">
      <rect id="Rectangle_23" data-name="Rectangle 23" width="62.594" height="62.598" fill="none"/>
    </clipPath>
  </defs>
  <g id="Group_40" data-name="Group 40" clip-path="url(#clip-path)">
    <path id="Path_155" data-name="Path 155" d="M14.591,181.191l1.627.884a5.337,5.337,0,0,1,9.291,0l1.644-.9a7.322,7.322,0,0,1-3.146-6.463,7,7,0,0,1,2.279-4.9,7.326,7.326,0,0,1,10.182.154,7.426,7.426,0,0,1-1,11.223l1.629.9a5.262,5.262,0,0,1,9.223,0l1.681-.906a7.336,7.336,0,0,1-3.094-6.893,7.008,7.008,0,0,1,2.713-4.876,7.319,7.319,0,1,1,8.787,11.7,30.842,30.842,0,0,1,2.742,1.983,9.914,9.914,0,0,1,3.4,7.419c.067,3.149.022,6.3.018,9.451,0,.87-.393,1.237-1.3,1.238q-6.713,0-13.425,0H1.64c-1.381,0-1.637-.254-1.638-1.622,0-2.8-.008-5.606,0-8.408a10.332,10.332,0,0,1,6.035-9.853c.071-.036.136-.083.214-.132A7.4,7.4,0,0,1,5.3,169.933a7.337,7.337,0,0,1,10.371.115,7.4,7.4,0,0,1-1.076,11.143m2.873,7.272a5.124,5.124,0,0,1-1.784-3.571,1.163,1.163,0,0,0-.618-1.031,8.023,8.023,0,0,0-8.468-.467A7.961,7.961,0,0,0,2.1,190.655c-.067,2.648-.015,5.3-.013,7.948,0,.165.029.329.043.47H13.561c0-1.4-.013-2.744,0-4.09a7.138,7.138,0,0,1,2.477-5.46c.432-.384.928-.7,1.424-1.061M60.475,199.1c0-3,.132-5.952-.036-8.891a7.8,7.8,0,0,0-4.71-6.91,8.1,8.1,0,0,0-8.348.663.938.938,0,0,0-.467.843,5.077,5.077,0,0,1-1.343,3.239c-.125.14-.247.283-.384.44a7.463,7.463,0,0,1,3.84,7.22c-.044,1.121-.007,2.245-.007,3.4ZM38.351,188.487a5.22,5.22,0,0,1-1.821-3.675,1,1,0,0,0-.513-.887,8.171,8.171,0,0,0-8.64-.492,1.986,1.986,0,0,0-1.4,1.858,4.655,4.655,0,0,1-1.623,3.138c.036.063.041.087.056.1.163.107.33.208.49.318a6.719,6.719,0,0,1,3.126,4.888c.173,1.546.1,3.12.134,4.681.005.228,0,.457,0,.679h6.257c0-1.156.032-2.281-.006-3.4a7.5,7.5,0,0,1,3.938-7.2M26.072,199.1c0-1.468.024-2.878-.005-4.286a5.207,5.207,0,0,0-4.774-5.059,5.047,5.047,0,0,0-5.5,4.208,39.266,39.266,0,0,0-.042,5.136Zm20.847.013c0-1.568.074-3.087-.017-4.6a5.169,5.169,0,0,0-4.854-4.766,5.1,5.1,0,0,0-5.4,4.185,28.438,28.438,0,0,0-.137,3.766c-.012.467,0,.934,0,1.412ZM10.426,169.921a5.215,5.215,0,1,0,5.218,5.224,5.22,5.22,0,0,0-5.218-5.224m20.885,0a5.214,5.214,0,1,0,5.191,5.251,5.222,5.222,0,0,0-5.191-5.251m26.049,5.254a5.213,5.213,0,1,0-5.2,5.174,5.218,5.218,0,0,0,5.2-5.174m-33.376,9.346a3.125,3.125,0,1,0-3.092,3.125,3.14,3.14,0,0,0,3.092-3.125m17.735,3.125a3.125,3.125,0,1,0-3.127-3.157,3.136,3.136,0,0,0,3.127,3.157" transform="translate(0 -138.614)"/>
    <path id="Path_156" data-name="Path 156" d="M124.81,28.15H122.7v-.73q0-8.179,0-16.358c0-1.4.221-1.631,1.6-1.656.085,0,.169-.011.44-.031l-9.34-7.008-9.333,7c.341.019.54.036.74.04.929.017,1.283.374,1.287,1.32.005,1.043,0,2.085,0,3.128q0,6.778,0,13.555v.736h-2.056V11.494c-.971,0-1.875-.014-2.778.005-.609.013-1.151-.08-1.365-.739s.21-1.036.688-1.393Q108.536,4.92,114.472.458c.8-.6,1.056-.6,1.849-.009q5.968,4.474,11.934,8.95c.463.347.848.72.647,1.352-.209.658-.746.763-1.358.749-.888-.02-1.776-.005-2.735-.005Z" transform="translate(-84.111 -0.005)" fill="#66ff52"/>
    <path id="Path_157" data-name="Path 157" d="M34.4,9.4v9.35H32.311v-.6q0-4.726,0-9.451c0-.9.148-1.11,1.053-1.457L30.229,2.858l-3.161,4.41c.891.173,1.083.748,1.081,1.53-.018,5.866-.01,11.732-.01,17.6v.692H26.06V9.4c-.389,0-.71.018-1.029,0a1.018,1.018,0,0,1-.856-1.629Q26.751,4.086,29.4.454A.981.981,0,0,1,31.065.47q2.622,3.61,5.188,7.262A1.026,1.026,0,0,1,35.394,9.4c-.3.018-.6,0-1,0" transform="translate(-19.793 0)" fill="#66ff52"/>
    <path id="Path_158" data-name="Path 158" d="M266.684,7.292c.933.187,1.086.807,1.079,1.6-.026,3.063-.01,6.127-.01,9.19v.688h-2.062V9.429c-.36,0-.675.012-.988,0a1.03,1.03,0,0,1-.876-1.694q2.546-3.624,5.149-7.209a1.011,1.011,0,0,1,1.751.029c1.718,2.375,3.428,4.756,5.1,7.167a1.3,1.3,0,0,1,.1,1.126c-.152.288-.627.445-.991.568a3.121,3.121,0,0,1-.9.016v17.7h-2.1v-.669q0-8.831,0-17.663c0-.968.132-1.161,1.053-1.52l-3.135-4.388-3.158,4.406" transform="translate(-217.69 -0.027)" fill="#66ff52"/>
    <rect id="Rectangle_19" data-name="Rectangle 19" width="2.012" height="2.024" transform="translate(12.549 20.902)" fill="#66ff52"/>
    <rect id="Rectangle_20" data-name="Rectangle 20" width="2.028" height="1.994" transform="translate(48.023 20.917)" fill="#66ff52"/>
    <rect id="Rectangle_21" data-name="Rectangle 21" width="1.982" height="2.028" transform="translate(12.572 25.063)" fill="#66ff52"/>
    <rect id="Rectangle_22" data-name="Rectangle 22" width="2.005" height="2.007" transform="translate(48.028 25.094)" fill="#66ff52"/>
  </g>
</svg>
