<svg xmlns="http://www.w3.org/2000/svg" width="69.31" height="64.673" viewBox="0 0 69.31 64.673">
  <g id="Group_43" data-name="Group 43" transform="translate(0)">
    <path id="Path_163" data-name="Path 163" d="M580.023,63.189c-.606,0-1.156,0-1.706,0a1.46,1.46,0,0,1-1.391-2.1c1.111-2.51,2.241-5.011,3.365-7.515a1.471,1.471,0,0,1,2.728.019q1.592,3.647,3.184,7.294a1.831,1.831,0,0,1,.21,1.226,1.5,1.5,0,0,1-1.569,1.126c-.585,0-1.17-.014-1.754-.02a.571.571,0,0,0-.122.032v45.964h52.571c0-.372,0-.733,0-1.095s-.01-.713.026-1.066a1.453,1.453,0,0,1,2.1-1.234c1.341.587,2.673,1.194,4.009,1.792,1.169.524,2.343,1.037,3.5,1.576a1.447,1.447,0,0,1,.576,2.266,1.657,1.657,0,0,1-.6.447q-3.672,1.62-7.358,3.207a2.206,2.206,0,0,1-1.021.214,1.4,1.4,0,0,1-1.263-1.464c-.005-.55,0-1.1,0-1.688-.133-.007-.254-.019-.375-.019l-32.178.019q-10.118.006-20.236.006a5.1,5.1,0,0,1-1.123-.124,1.862,1.862,0,0,1-1.581-1.985c-.006-1.858,0-3.716,0-5.575q0-20.372,0-40.743v-.564m2.726-2.917-1.111-2.529-1.131,2.529Zm58.257,50.264-2.518-1.125v2.226l2.518-1.1" transform="translate(-576.783 -50.659)" fill="#1a1818"/>
    <path id="Path_164" data-name="Path 164" d="M715.933,55.135a15.175,15.175,0,0,1,30.027-3.36,15,15,0,0,1-1.39,10.107.345.345,0,0,0,.081.493c.861.826,1.7,1.672,2.567,2.494a.739.739,0,0,0,.473.16c.4,0,.8-.06,1.2-.072a2.77,2.77,0,0,1,2.058.888c2.61,2.581,5.2,5.184,7.794,7.781a2.749,2.749,0,0,1,.552,2.912,8.538,8.538,0,0,1-1.692,3.156,8.937,8.937,0,0,1-4.588,3.17,5.819,5.819,0,0,1-1.59.128,1.945,1.945,0,0,1-1.328-.647c-2.628-2.628-5.266-5.247-7.878-7.891a2.782,2.782,0,0,1-.817-2.52,1.35,1.35,0,0,0-.485-1.427c-.779-.675-1.493-1.425-2.225-2.153a.336.336,0,0,0-.471-.071,14.869,14.869,0,0,1-7.742,1.756,15.143,15.143,0,0,1-14.169-11.828,14.172,14.172,0,0,1-.257-1.452c-.07-.626-.092-1.257-.117-1.624m15.151,11.974a12.228,12.228,0,1,0-12.222-12.283,12.224,12.224,0,0,0,12.222,12.283m9.892-.556a1.057,1.057,0,0,1,.214.145c.921.895,1.834,1.8,2.757,2.689a1.55,1.55,0,0,1,.524,1.353c-.049.432-.087.866-.145,1.3a.693.693,0,0,0,.235.635q3.609,3.59,7.2,7.2a.519.519,0,0,0,.628.142,6.591,6.591,0,0,0,3.223-2.57,10.662,10.662,0,0,0,.837-1.679.4.4,0,0,0-.082-.349q-3.662-3.681-7.346-7.342a.658.658,0,0,0-.452-.154c-.491.026-.98.085-1.469.144a1.566,1.566,0,0,1-1.361-.506c-.762-.761-1.535-1.513-2.3-2.267-.219-.214-.441-.425-.589-.567l-1.866,1.829" transform="translate(-694.397 -39.695)" fill="#fbf20b"/>
    <path id="Path_165" data-name="Path 165" d="M677.068,181.385q0,8.4,0,16.791a1.463,1.463,0,0,1-2.895.408,3.5,3.5,0,0,1-.03-.514q0-16.67,0-33.34a1.635,1.635,0,0,1,.473-1.344,1.392,1.392,0,0,1,1.562-.273,1.373,1.373,0,0,1,.891,1.345q.006,5.883,0,11.767,0,2.581,0,5.161" transform="translate(-659.071 -143.901)" fill="#1a1818"/>
    <path id="Path_166" data-name="Path 166" d="M744.648,268.315q0,4.8,0,9.6a1.432,1.432,0,0,1-1.218,1.479,1.451,1.451,0,0,1-1.674-1.164,3.37,3.37,0,0,1-.035-.514q0-9.377,0-18.755a2.552,2.552,0,0,1,.087-.745,1.454,1.454,0,0,1,2.837.463q.007,4.818,0,9.635" transform="translate(-716.192 -223.544)" fill="#1a1818"/>
    <path id="Path_167" data-name="Path 167" d="M815.764,307.7c0,2.122,0,4.244,0,6.366a1.457,1.457,0,0,1-2.838.442,2.124,2.124,0,0,1-.09-.642q-.008-6.16-.006-12.32a1.511,1.511,0,0,1,.782-1.461,1.385,1.385,0,0,1,1.526.086,1.4,1.4,0,0,1,.629,1.23q0,3.149,0,6.3" transform="translate(-776.295 -259.628)" fill="#1a1818"/>
    <path id="Path_168" data-name="Path 168" d="M886.881,315.97q0,2.75,0,5.5a1.47,1.47,0,1,1-2.936.039q-.015-5.569,0-11.139a1.472,1.472,0,1,1,2.937.03q0,2.785,0,5.569" transform="translate(-836.4 -267.164)" fill="#1a1818"/>
    <path id="Path_169" data-name="Path 169" d="M796.306,100.415h-3.419a.841.841,0,1,1-.018-1.682c.8,0,1.606,0,2.41,0H796.3c-.018-.041-.029-.07-.043-.1a2.04,2.04,0,0,0-1.838-1.128c-.526-.012-1.053,0-1.58,0a.839.839,0,0,1-.218-1.648.9.9,0,0,1,.232-.03q3.191,0,6.382,0a.84.84,0,0,1,.159,1.667.994.994,0,0,1-.182.012h-1.66c.015.03.023.051.034.069a3.686,3.686,0,0,1,.466,1.086.08.08,0,0,0,.094.073c.367,0,.733-.005,1.1,0a.838.838,0,0,1,.776,1.161.809.809,0,0,1-.788.519c-.358,0-.716,0-1.074,0-.067,0-.094.018-.111.087a3.767,3.767,0,0,1-3.106,2.787c-.1.013-.2.024-.309.037l.08.1,2.689,3.237c.223.269.451.533.668.807a.834.834,0,0,1-.448,1.325.8.8,0,0,1-.855-.277q-1.246-1.49-2.483-2.988l-2.075-2.5a.814.814,0,0,1-.188-.692.832.832,0,0,1,.834-.691c.515,0,1.03,0,1.545,0a2.046,2.046,0,0,0,1.852-1.12c.016-.029.028-.061.048-.106" transform="translate(-758.696 -87.138)" fill="#1a1818"/>
  </g>
</svg>
