<svg id="Group_45" data-name="Group 45" xmlns="http://www.w3.org/2000/svg" width="56.38" height="76.776" viewBox="0 0 56.38 76.776">
  <path id="Path_175" data-name="Path 175" d="M1934.787,337.753h.416c1.349,0,2.7-.008,4.047.007a.866.866,0,0,0,.682-.291q2.9-2.925,5.825-5.834a5.981,5.981,0,0,1,10.215,3.336,5.824,5.824,0,0,1-1.7,5.094c-2.615,2.648-5.256,5.272-7.892,7.9a5.981,5.981,0,0,1-4.385,1.779q-10.381,0-20.762-.005a.83.83,0,0,0-.653.266q-2.572,2.6-5.163,5.172a1.221,1.221,0,0,1-1.976,0L1900.169,341.9a1.225,1.225,0,0,1,.01-2q4.956-4.955,9.91-9.911a6.042,6.042,0,0,1,4.462-1.858c5.1.006,10.193,0,15.29,0a5.931,5.931,0,0,1,5.99,4.706,5.826,5.826,0,0,1-.821,4.551c-.064.1-.125.2-.224.364M1914.5,352.767a3.78,3.78,0,0,1,.246-.3c1.527-1.53,3.062-3.05,4.578-4.59a1.682,1.682,0,0,1,1.293-.538c7.058.011,14.116,0,21.174.014a4.131,4.131,0,0,0,3.113-1.289c1.469-1.5,2.966-2.97,4.447-4.457,1.154-1.159,2.352-2.281,3.44-3.5a3.585,3.585,0,0,0-5.351-4.767q-3.135,3.118-6.251,6.256a1.748,1.748,0,0,1-1.328.556q-10.98-.014-21.961-.006c-.125,0-.25.006-.375,0a1.215,1.215,0,1,1,.2-2.418c2.311,0,4.622,0,6.933,0,1.886,0,3.774.033,5.657-.046a3.55,3.55,0,0,0,3.194-4.264,3.591,3.591,0,0,0-3.716-2.886c-5.047,0-10.094.006-15.14-.006a3.947,3.947,0,0,0-2.946,1.224q-4.425,4.452-8.874,8.881c-.086.086-.166.178-.229.246l11.895,11.894" transform="translate(-1899.655 -278.905)" fill="#1a1818"/>
  <path id="Path_176" data-name="Path 176" d="M1923.477,4.161c-.453.464-.9.934-1.362,1.392a1.2,1.2,0,1,1-1.688-1.691q1.706-1.712,3.418-3.418a1.186,1.186,0,0,1,1.842-.009q1.716,1.7,3.418,3.418a1.2,1.2,0,1,1-1.7,1.683c-.458-.454-.908-.915-1.417-1.428V40.765h40.2c-.068-.085-.119-.162-.182-.225-.43-.435-.87-.862-1.293-1.3a1.194,1.194,0,1,1,1.679-1.7q1.813,1.791,3.6,3.6a1.153,1.153,0,0,1,0,1.68q-1.816,1.841-3.657,3.656a1.191,1.191,0,0,1-1.675-1.694c.494-.512,1-1.013,1.5-1.519.006-.006,0-.022.005-.08h-.392q-20.349,0-40.7.013a1.377,1.377,0,0,1-1.514-1.5q.03-18.53.013-37.061V4.2Z" transform="translate(-1916.959 0)" fill="#1a1818"/>
  <path id="Path_177" data-name="Path 177" d="M2055.661,63.627V49.461a1.228,1.228,0,0,1,1.395-1.4q3.429,0,6.858,0a1.214,1.214,0,0,1,1.338,1.348q0,14.241,0,28.482a1.213,1.213,0,0,1-1.338,1.347q-3.467,0-6.934,0a1.211,1.211,0,0,1-1.319-1.33q0-7.139,0-14.278m2.422,13.183h4.754V50.471h-4.754Z" transform="translate(-2032.257 -40.848)" fill="#01ccff"/>
  <path id="Path_178" data-name="Path 178" d="M2145.2,93.262q0,5.884,0,11.768a1.223,1.223,0,0,1-1.376,1.385h-6.859a1.221,1.221,0,0,1-1.356-1.368q0-11.824,0-23.647a1.216,1.216,0,0,1,1.357-1.365q3.448,0,6.9,0a1.214,1.214,0,0,1,1.338,1.348q0,5.94,0,11.88m-2.422-10.8h-4.754V104h4.754Z" transform="translate(-2100.208 -68.027)" fill="#01ccff"/>
  <path id="Path_179" data-name="Path 179" d="M1975.716,137.591q0-4.122,0-8.245a1.211,1.211,0,0,1,1.337-1.348q3.467,0,6.933,0a1.21,1.21,0,0,1,1.321,1.328q0,8.263,0,16.527a1.208,1.208,0,0,1-1.319,1.33q-3.485,0-6.971,0a1.207,1.207,0,0,1-1.3-1.31q0-4.141,0-8.282m2.423,7.166h4.753V130.41h-4.753Z" transform="translate(-1964.306 -108.796)" fill="#01ccff"/>
</svg>
