<svg id="Group_3319" data-name="Group 3319" xmlns="http://www.w3.org/2000/svg" xmlns:xlink="http://www.w3.org/1999/xlink" width="73" height="73" viewBox="0 0 73 73">
  <defs>
    <clipPath id="clip-path">
      <rect id="Rectangle_1900" data-name="Rectangle 1900" width="73" height="73" fill="none"/>
    </clipPath>
  </defs>
  <g id="Group_3318" data-name="Group 3318" clip-path="url(#clip-path)">
    <path id="Path_3129" data-name="Path 3129" d="M16.121,73a2.505,2.505,0,0,0-.33-.146,4.551,4.551,0,0,1-3.6-4.486c-.016-4.039,0-8.078,0-12.117q0-8.482,0-16.963c0-3.167,1.947-5,5.332-5,3.219-.007,6.438.019,9.656-.01a5.571,5.571,0,0,1,4.266,1.674c.718.736,1.472,1.444,2.263,2.11a12.6,12.6,0,0,0,1.584.957c.036-.462.068-.684.068-.906,0-1.924-.015-3.849.015-5.773a.978.978,0,0,0-.589-.941,4.721,4.721,0,0,1-1.37-1.282,1.1,1.1,0,0,0-1.069-.561c-6.539.014-13.078-.049-19.616.036-2.863.037-4.378-1.793-4.208-3.953.074-.942.012-1.894.012-2.939H7.665c-1.749,0-3.5.012-5.246,0A2.248,2.248,0,0,1,.01,20.456q-.019-9.087,0-18.175A2.264,2.264,0,0,1,2.4.013C5.569,0,8.737-.007,11.9.027A1.88,1.88,0,0,1,13.04.462q2.945,2.681,5.8,5.444a1.729,1.729,0,0,1,.476,1.128c.033,4.443.027,8.885.017,13.328A2.251,2.251,0,0,1,16.81,22.7c-1.7.009-3.4,0-5.094,0h-.892c0,1.257-.042,2.439.017,3.617a1.145,1.145,0,0,0,1.186,1.091c.252.021.506.017.76.017q9.732,0,19.464.009a1.181,1.181,0,0,0,1.2-.6,4.176,4.176,0,0,1,1.386-1.265.872.872,0,0,0,.53-.894c-.03-.632-.008-1.267-.008-1.977-1.747,0-3.394-.076-5.029.016-3.022.17-3.567-1.18-3.539-3.308.074-5.558.024-11.118.025-16.678,0-1.919.864-2.723,2.914-2.724,2.94,0,5.88-.026,8.819.026A2.451,2.451,0,0,1,40.006.6c1.869,1.674,3.665,3.418,5.508,5.116a1.908,1.908,0,0,1,.679,1.511c-.016,4.3-.005,8.6-.01,12.9,0,1.738-.9,2.572-2.755,2.575q-2.471,0-4.942,0h-.838c0,.832-.017,1.585.015,2.337.006.143.192.292.321.414.576.545.785,1.316,1.382,1.84.177.156.791.119,1.007.119q10.188.026,20.376.007c.9,0,1.4-.446,1.427-1.248.033-1.115.008-2.231.008-3.434-.3-.013-.564-.034-.83-.034-1.723,0-3.447,0-5.17,0a2.253,2.253,0,0,1-2.522-2.341q-.013-8.981,0-17.961A2.283,2.283,0,0,1,56.224.009c3.067-.006,6.134-.026,9.2.023a2.328,2.328,0,0,1,1.386.551Q69.66,3.15,72.4,5.825a2.029,2.029,0,0,1,.573,1.306c.042,4.371.028,8.743.024,13.114,0,1.578-.946,2.451-2.645,2.455-1.922.005-3.844,0-5.881,0,0,1.181.014,2.311,0,3.44a3.352,3.352,0,0,1-2.614,3.286,6.322,6.322,0,0,1-1.5.133q-9.808.012-19.616-.006c-.573,0-1.193-.091-1.512.375A8.63,8.63,0,0,1,38.107,31.5c-.177.164-.443.368-.444.555-.024,3.682-.016,7.365-.011,11.047a1.171,1.171,0,0,0,.084.289H58.461a2.274,2.274,0,0,0-2.013-2.337,7.663,7.663,0,0,0-1.061-.051Q48.7,41,42.006,41a4,4,0,0,1-.978-.078.947.947,0,0,1-.765-1.019.959.959,0,0,1,.822-.979,4.35,4.35,0,0,1,.907-.057q6.615,0,13.229,0c3.419,0,5,1.241,5.6,4.394.008.043.049.081.113.182,2.061,0,4.161-.006,6.261.005a4.756,4.756,0,0,1,1.276.121A2.162,2.162,0,0,1,69.9,46.512c-1.013,2.882-2.05,5.757-3.075,8.636-1.641,4.611-3.336,9.205-4.893,13.841A5.439,5.439,0,0,1,57.791,73ZM67.813,45.616c-.346-.016-.57-.034-.794-.034q-20.414,0-40.828,0c-1.755,0-2.455.478-3.015,2.051q-3.83,10.764-7.654,21.53c-.393,1.106-.121,1.514,1.136,1.676a6.589,6.589,0,0,0,.835.023H56.419c1.9,0,2.592-.469,3.185-2.136Q62.4,60.862,65.2,53c.862-2.427,1.721-4.855,2.617-7.382m-53.346,19.3.116.03c.1-.255.216-.506.308-.765q3.084-8.673,6.167-17.346a4.744,4.744,0,0,1,4.993-3.4c2.459-.009,4.917,0,7.376,0,2.069,0,2.082,0,1.91-1.962a.758.758,0,0,0-.492-.521,5.248,5.248,0,0,1-2.825-1.43c-.727-.7-1.5-1.354-2.194-2.075a3.467,3.467,0,0,0-2.706-1.041c-3.168.028-6.336.008-9.5.01-2.24,0-3.148.847-3.148,2.928q0,12.439,0,24.877v.691m14.679-44.4h14.7V7.853c-.91,0-1.772-.049-2.625.009-2.664.181-3.606-.948-3.434-3.235.061-.813.01-1.634.01-2.441H29.146ZM17.02,7.853c-.74,0-1.445-.037-2.144.006-3.4.21-4.087-.908-3.916-3.642.042-.675.006-1.355.006-2.014H2.344V20.5H17.02Zm53.656,0H67.454c-1.958,0-2.827-.811-2.829-2.638q0-1.516,0-3.035H56.005V20.522H70.676ZM36.489,27.292a1.246,1.246,0,0,0-1.268,1.237,1.283,1.283,0,0,0,2.558-.019,1.25,1.25,0,0,0-1.29-1.218M13.294,3.853V5.677H15.22L13.294,3.853M68.668,5.69l-1.7-1.713V5.69Zm-28.5-1.748V5.675h1.944L40.167,3.942" transform="translate(0 0)"/>
  </g>
</svg>
