<svg id="Group_3308" data-name="Group 3308" xmlns="http://www.w3.org/2000/svg" xmlns:xlink="http://www.w3.org/1999/xlink" width="73.235" height="73.256" viewBox="0 0 73.235 73.256">
  <defs>
    <clipPath id="clip-path">
      <rect id="Rectangle_1897" data-name="Rectangle 1897" width="73.235" height="73.256" fill="none"/>
    </clipPath>
  </defs>
  <g id="Group_3307" data-name="Group 3307" clip-path="url(#clip-path)">
    <path id="Path_3104" data-name="Path 3104" d="M35.409,55.536H0V8.295H56.618a8.371,8.371,0,0,1,3.308-6.6A8.1,8.1,0,0,1,65.448.014a8.292,8.292,0,0,1,7.7,7.456c.358,3.3-1.479,7.84-7.049,9.024v.71q0,10.854-.012,21.707a1.442,1.442,0,0,0,.557,1.178c5.842,5.409,7.983,12.038,5.688,19.669-2.272,7.555-7.618,12.069-15.418,13.282a18.807,18.807,0,0,1-21.4-16.85c-.018-.193-.058-.384-.1-.653m-2.335-4.723V36.661h7.064v5.048c7.021-6.793,14.839-8.074,23.563-3.837V16.619l-3.858-1.613c-2.135,2.139-4.351,4.376-6.591,6.589a.985.985,0,0,0-.3,1.144,3.3,3.3,0,0,1-1.172,3.633,3.408,3.408,0,0,1-3.87.377c-1.3-.72-2.191-1.921-1.812-3.32s-.351-1.963-1.106-2.7a3.677,3.677,0,0,0-.637-.61,1.781,1.781,0,0,0-.813-.2,12.651,12.651,0,0,1-2.026-.015,1.009,1.009,0,0,0-1.072.327c-1.466,1.492-2.937,2.981-4.44,4.435-.6.585-1.2,1.109-.657,2.039a.694.694,0,0,1,.028.291,3.54,3.54,0,1,1-6.5-1.762,3.5,3.5,0,0,1,3.865-1.467c.353.1.633.229.983-.133,1.713-1.766,3.476-3.485,5.2-5.245a1.256,1.256,0,0,0,.181-.749,9.57,9.57,0,0,1,.107-2.37,3.434,3.434,0,0,1,4.379-2.094,3.491,3.491,0,0,1,2.263,4.307.9.9,0,0,0,.3,1.074c.545.5,1.032,1.058,1.584,1.547a1.131,1.131,0,0,0,.688.169,15.145,15.145,0,0,1,2.1-.008.985.985,0,0,0,1.019-.276c2.108-2.138,4.239-4.254,6.36-6.378.132-.133.247-.283.332-.381a13.64,13.64,0,0,1-.96-1.893.9.9,0,0,0-1.052-.718q-26.541.024-53.083.013h-.78v42.5H35.43l.263-2.314ZM63.92,61.275a11.93,11.93,0,0,1-19.249-.009l-4.1,2.37c3.657,4.915,8.4,7.453,14.434,7.212a16.234,16.234,0,0,0,12.975-7.221L63.92,61.275M43.508,59.206a11.608,11.608,0,0,1,.568-10.766,11.733,11.733,0,0,1,8.983-5.872V37.837c-6.14.721-10.749,3.652-13.542,9.136a16.05,16.05,0,0,0-.1,14.594l4.091-2.361M55.5,42.569a11.894,11.894,0,0,1,9.567,16.641l4.041,2.324a16.209,16.209,0,0,0-1.044-16.29A16.409,16.409,0,0,0,55.5,37.857Zm8.234,11.8A9.451,9.451,0,1,0,54.28,63.8a9.478,9.478,0,0,0,9.456-9.428m1.152-40.2a5.906,5.906,0,1,0-5.874-5.955,5.923,5.923,0,0,0,5.874,5.955M35.408,48.5c.375-.074.858-.041.941-.208a10.061,10.061,0,0,0,1.329-3.162,58.441,58.441,0,0,0,.06-6.091h-2.33Zm8.239-31.952a1.175,1.175,0,1,0-1.184,1.168,1.187,1.187,0,0,0,1.184-1.168m7.089,7.116a1.176,1.176,0,1,0-1.21,1.141,1.19,1.19,0,0,0,1.21-1.141M31.841,28.348a1.176,1.176,0,1,0-1.178-1.173,1.19,1.19,0,0,0,1.178,1.173" transform="translate(0 0)"/>
    <path id="Path_3105" data-name="Path 3105" d="M126.673,180.818h-7V162.006h7Zm-4.622-2.39h2.272V164.343H122.05Z" transform="translate(-96.067 -130.049)" fill="#ff0202"/>
    <path id="Path_3106" data-name="Path 3106" d="M30.933,209.625h-7V197.9h7Zm-4.644-9.4v7.02h2.316v-7.02Z" transform="translate(-19.214 -158.858)" fill="#ff0202"/>
    <path id="Path_3107" data-name="Path 3107" d="M71.715,209.871h7.018v9.368H71.715Zm4.647,7.005v-4.634H74.051c0,1.48,0,2.9,0,4.326a2.623,2.623,0,0,0,.039.308Z" transform="translate(-57.568 -168.472)" fill="#ff0202"/>
    <rect id="Rectangle_1889" data-name="Rectangle 1889" width="16.446" height="2.277" transform="translate(9.45 13.043)"/>
    <rect id="Rectangle_1890" data-name="Rectangle 1890" width="16.448" height="2.274" transform="translate(9.431 17.776)"/>
    <rect id="Rectangle_1891" data-name="Rectangle 1891" width="16.472" height="2.271" transform="translate(9.425 22.485)"/>
    <rect id="Rectangle_1892" data-name="Rectangle 1892" width="16.446" height="2.277" transform="translate(9.427 27.208)"/>
    <rect id="Rectangle_1893" data-name="Rectangle 1893" width="2.259" height="2.298" transform="translate(4.725 13.045)"/>
    <rect id="Rectangle_1894" data-name="Rectangle 1894" width="2.258" height="2.297" transform="translate(4.712 17.759)"/>
    <rect id="Rectangle_1895" data-name="Rectangle 1895" width="2.284" height="2.271" transform="translate(4.712 22.485)"/>
    <rect id="Rectangle_1896" data-name="Rectangle 1896" width="2.284" height="2.271" transform="translate(4.712 27.211)"/>
    <path id="Path_3108" data-name="Path 3108" d="M246.326,253.758a7.087,7.087,0,1,1,7.118-7.055,7.11,7.11,0,0,1-7.118,7.055m4.755-7.065a4.723,4.723,0,1,0-4.764,4.7,4.733,4.733,0,0,0,4.764-4.7" transform="translate(-192.074 -192.323)"/>
  </g>
</svg>
