<svg id="Group_3312" data-name="Group 3312" xmlns="http://www.w3.org/2000/svg" xmlns:xlink="http://www.w3.org/1999/xlink" width="73.235" height="66.335" viewBox="0 0 73.235 66.335">
  <defs>
    <clipPath id="clip-path">
      <rect id="Rectangle_1899" data-name="Rectangle 1899" width="73.235" height="66.335" fill="none"/>
    </clipPath>
  </defs>
  <g id="Group_3311" data-name="Group 3311" clip-path="url(#clip-path)">
    <path id="Path_3118" data-name="Path 3118" d="M0,55.374c.046-.134.1-.265.136-.4a5.976,5.976,0,0,1,5.939-4.725c2.36-.021,4.719,0,7.079,0H35.822a6.692,6.692,0,0,1,.714.011,1.129,1.129,0,0,1,1.092,1.109,1.166,1.166,0,0,1-1.121,1.159c-.237.019-.476.008-.715.008-9.8,0-19.593.037-29.389-.025a3.829,3.829,0,0,0-4.134,4.172c.1,1.824.02,3.658.02,5.565H32c.215,0,.43-.011.643.006a1.136,1.136,0,0,1,1.11,1.086A1.263,1.263,0,0,1,32.7,64.657a5.42,5.42,0,0,1-.714.014H2.289v.787q0,17.555,0,35.11c0,2.5,1.389,3.912,3.884,3.912q26.494.006,52.987,0a3.584,3.584,0,0,0,3.9-3.921q0-10.9,0-21.81c0-.215-.007-.43,0-.643a1.106,1.106,0,0,1,1.02-1.164,1.191,1.191,0,0,1,1.246,1.038,4.181,4.181,0,0,1,.018.642q0,10.94,0,21.881a5.991,5.991,0,0,1-6.408,6.38q-26.065,0-52.129,0a13.681,13.681,0,0,1-1.766.06,5.8,5.8,0,0,1-4.878-4.414c-.045-.18-.112-.354-.169-.531V55.374" transform="translate(0 -40.637)"/>
    <path id="Path_3119" data-name="Path 3119" d="M219.682,8.47c-.268.641-.484,1.289-.805,1.881a5.771,5.771,0,0,1-.983,1.312,1.593,1.593,0,0,0-.272,2.149,1.471,1.471,0,0,0,1.264.945,20.007,20.007,0,0,1,2.463.419,2.444,2.444,0,0,1,2.014,2.55q0,1.323,0,2.646a2.369,2.369,0,0,1-1.937,2.53c-.921.233-1.872.342-2.806.522A1.916,1.916,0,0,0,217.6,25.99c.471.659.98,1.291,1.451,1.95a3.1,3.1,0,0,1-.723,4.411c-.461.339-.914.687-1.368,1.035a2.917,2.917,0,0,1-3.643.041c-.651-.482-1.291-.982-1.9-1.509a.984.984,0,0,0-1.088-.146,2.02,2.02,0,0,0-1.572,2.133,11,11,0,0,1-.266,1.692,3.011,3.011,0,0,1-2.83,2.489c-.69.033-1.383.031-2.073,0a2.952,2.952,0,0,1-2.834-2.384c-.172-.814-.289-1.641-.413-2.465a1.758,1.758,0,0,0-2.646-1.131c-.613.453-1.211.928-1.835,1.366a3.046,3.046,0,0,1-3.935-.275q-.7-.66-1.369-1.361a3.057,3.057,0,0,1-.3-3.991c.45-.645.921-1.276,1.416-1.887a.876.876,0,0,0,.095-1.164,2.1,2.1,0,0,1-.258-.587,1.045,1.045,0,0,0-1.024-.818c-.756-.079-1.5-.239-2.256-.364A2.977,2.977,0,0,1,185.6,20.02c-.012-.691-.021-1.383.005-2.074a2.892,2.892,0,0,1,2.335-2.788c.815-.171,1.64-.294,2.463-.425a1.815,1.815,0,0,0,1.15-2.706q-.622-.829-1.242-1.66a3.089,3.089,0,0,1,.148-4.113,17.851,17.851,0,0,1,1.416-1.415,2.923,2.923,0,0,1,3.75-.166c.689.511,1.33,1.088,2.037,1.571a1.236,1.236,0,0,0,.872.1,2.164,2.164,0,0,0,1.827-2.4,5.5,5.5,0,0,1,.163-1.057A3.3,3.3,0,0,1,203.968,0c.524,0,1.049-.011,1.573,0a3.047,3.047,0,0,1,2.943,2.54c.15.844.277,1.692.419,2.537a1.829,1.829,0,0,0,2.484,1.007c.675-.489,1.331-1.006,2.006-1.5a2.747,2.747,0,0,1,3.391-.049A13.858,13.858,0,0,1,219,6.757a6.4,6.4,0,0,1,.679,1.713m-2.5,21.519a7.494,7.494,0,0,0-.382-.656c-.521-.711-1.073-1.4-1.578-2.122-1.213-1.737-.118-5.076,1.886-5.786a3.23,3.23,0,0,1,.483-.119c.4-.075.8-.139,1.2-.213,2.142-.4,2.134-.4,2.05-2.574-.018-.473-.156-.753-.676-.817-.731-.091-1.451-.283-2.183-.363a3,3,0,0,1-2.7-2.2,5.513,5.513,0,0,0-.283-.654,3.185,3.185,0,0,1,.306-3.5q.692-.955,1.415-1.887a.761.761,0,0,0-.051-1.139c-.373-.368-.746-.737-1.111-1.113a.714.714,0,0,0-1.12-.029c-.637.538-1.3,1.044-1.963,1.55a2.632,2.632,0,0,1-2.356.523,17.4,17.4,0,0,1-1.8-.673,2.937,2.937,0,0,1-1.857-2.194c-.113-.486-.173-.984-.262-1.476-.411-2.287.092-2-2.473-2.018-.512,0-.725.246-.778.723-.087.781-.2,1.559-.29,2.34a2.823,2.823,0,0,1-1.882,2.4c-.285.12-.589.2-.859.349A2.993,2.993,0,0,1,196.5,8.06c-.7-.5-1.385-1.014-2.055-1.548a.627.627,0,0,0-.988.044q-.56.6-1.163,1.162a.713.713,0,0,0-.082,1.116c.463.575.894,1.176,1.338,1.766a4.478,4.478,0,0,1-1.275,6,2.785,2.785,0,0,1-.8.29c-.746.151-1.5.279-2.25.4-1.1.178-1.1.173-1.1,1.3.006,2.212-.188,1.869,1.758,2.083,2.069.228,3.461,1.008,4.126,3.085a3.362,3.362,0,0,1-.252,3.185c-.434.627-.907,1.226-1.363,1.837-.719.963-.723.992.127,1.831,1.456,1.438,1.135,1.482,2.706.152,1.73-1.464,3.423-1.872,5.459-.65a3.455,3.455,0,0,1,1.8,2.168c.124.508.183,1.031.276,1.546.4,2.224-.054,1.957,2.359,1.992.614.009.85-.264.916-.829.084-.709.209-1.413.317-2.119a4.343,4.343,0,0,1,4.97-3.285,4.476,4.476,0,0,1,1.16.526c.386.232.728.537,1.093.8,1.837,1.338,1.342,1.416,3-.214.213-.21.39-.457.607-.713" transform="translate(-150.126 0)" fill="#0b77fb"/>
    <path id="Path_3120" data-name="Path 3120" d="M53.19,144.981c2.67,0,5.339-.007,8.009,0a3.569,3.569,0,0,1,3.876,3.872q.015,4.648,0,9.3a3.6,3.6,0,0,1-3.888,3.88q-8.009.007-16.018,0a3.618,3.618,0,0,1-3.912-3.928q-.006-4.577,0-9.153c0-2.549,1.427-3.965,4-3.968q3.969-.005,7.937,0m-.026,14.637q4.036,0,8.073,0c1.017,0,1.433-.412,1.436-1.431q.011-4.715,0-9.43c0-1.027-.465-1.483-1.484-1.483q-8.037-.007-16.074,0c-1.074,0-1.442.388-1.443,1.478q0,4.679,0,9.359c0,1.121.383,1.507,1.493,1.508q4,0,8,0" transform="translate(-33.371 -117.275)"/>
    <path id="Path_3121" data-name="Path 3121" d="M63.766,264.158H87.293c.238,0,.477-.006.715.007a1.045,1.045,0,0,1,1.082.942,1.073,1.073,0,0,1-.814,1.256,2.711,2.711,0,0,1-.845.081q-23.706.005-47.411,0c-1.1,0-1.668-.375-1.692-1.108s.6-1.18,1.7-1.18H63.766" transform="translate(-31.003 -213.679)"/>
    <path id="Path_3122" data-name="Path 3122" d="M63.77,303.677H87.223c.262,0,.525-.006.786.011A1.057,1.057,0,0,1,89.1,304.7a1.141,1.141,0,0,1-.966,1.223,3.736,3.736,0,0,1-.712.039q-23.7,0-47.408,0c-1.1,0-1.669-.378-1.689-1.112s.6-1.176,1.7-1.176H63.77" transform="translate(-31.002 -245.647)"/>
    <path id="Path_3123" data-name="Path 3123" d="M207.723,226.872q-4.289,0-8.578,0c-.962,0-1.508-.422-1.5-1.141.011-.695.6-1.146,1.519-1.146q8.685,0,17.37,0c.925,0,1.436.4,1.449,1.107.013.726-.544,1.179-1.47,1.18q-4.4,0-8.792,0" transform="translate(-159.88 -181.667)"/>
    <path id="Path_3124" data-name="Path 3124" d="M37.135,84.369c-.428,0-.86.033-1.284-.008a1.128,1.128,0,0,1-1.08-1.119,1.163,1.163,0,0,1,1.085-1.124c.879-.037,1.761-.032,2.64,0a1.05,1.05,0,0,1,1.06,1.047,1.089,1.089,0,0,1-1,1.181,12.609,12.609,0,0,1-1.425.011v.013" transform="translate(-28.127 -66.406)"/>
    <path id="Path_3125" data-name="Path 3125" d="M66.626,82.156c.452,0,.906-.031,1.354.008a1.019,1.019,0,0,1,1,1.019.983.983,0,0,1-.89,1.174,19.505,19.505,0,0,1-2.985,0,.958.958,0,0,1-.871-1.117,1.051,1.051,0,0,1,.968-1.061,10.821,10.821,0,0,1,1.424-.013v-.007" transform="translate(-51.957 -66.447)"/>
    <path id="Path_3126" data-name="Path 3126" d="M95.923,84.363c-.452,0-.907.035-1.354-.008a1.1,1.1,0,0,1-1.06-1.128,1.134,1.134,0,0,1,1.083-1.114c.878-.038,1.76-.037,2.639,0a1.022,1.022,0,0,1,1.039,1.054,1.094,1.094,0,0,1-.993,1.185,1.263,1.263,0,0,1-.212.022c-.38,0-.761,0-1.142,0v-.013" transform="translate(-75.641 -66.399)"/>
    <path id="Path_3127" data-name="Path 3127" d="M199.39,187.241c-.19,0-.38.008-.569,0a1.136,1.136,0,0,1-1.181-1.082,1.22,1.22,0,0,1,1.11-1.186,7.885,7.885,0,0,1,1.28-.006,1.173,1.173,0,0,1,1.152,1.131,1.231,1.231,0,0,1-1.222,1.143c-.189.01-.38,0-.569,0" transform="translate(-159.873 -149.602)"/>
    <path id="Path_3128" data-name="Path 3128" d="M260.208,66.979a7.662,7.662,0,0,1-15.323-.074,7.662,7.662,0,1,1,15.323.074M247.3,66.968a5.271,5.271,0,0,0,5.292,5.241,5.264,5.264,0,0,0-.051-10.528,5.257,5.257,0,0,0-5.242,5.287" transform="translate(-198.09 -47.944)" fill="#0b77fb"/>
  </g>
</svg>
