<svg id="Group_3310" data-name="Group 3310" xmlns="http://www.w3.org/2000/svg" xmlns:xlink="http://www.w3.org/1999/xlink" width="73.016" height="73" viewBox="0 0 73.016 73">
  <defs>
    <clipPath id="clip-path">
      <rect id="Rectangle_1898" data-name="Rectangle 1898" width="73.016" height="73" fill="none"/>
    </clipPath>
  </defs>
  <g id="Group_3309" data-name="Group 3309" clip-path="url(#clip-path)">
    <path id="Path_3109" data-name="Path 3109" d="M19.226,32.675H18.15c-3.96,0-7.921.006-11.881,0C2.434,32.666.016,30.262.008,26.445q-.014-7.289,0-14.578A11.538,11.538,0,0,1,11.909.005Q39.315-.008,66.722,0c3.884,0,6.29,2.4,6.291,6.287q.006,30.191,0,60.383c0,3.935-2.4,6.322-6.347,6.323Q46.1,73,25.535,73c-3.945,0-6.307-2.385-6.308-6.348q0-16.378,0-32.756Zm1.114-28.8c.023.18.01.251.04.287A12.876,12.876,0,0,1,23.075,12.8c-.047,17.851-.023,35.7-.023,53.554,0,2.239.532,2.778,2.743,2.778q20.345,0,40.69,0a6.456,6.456,0,0,0,1.077-.041A1.75,1.75,0,0,0,69.1,67.55a6.375,6.375,0,0,0,.042-1.077q0-29.972,0-59.944A6.455,6.455,0,0,0,69.1,5.451a1.75,1.75,0,0,0-1.536-1.536,5.773,5.773,0,0,0-.988-.04q-22.64,0-45.281,0ZM19.195,28.8c.015-.288.03-.434.03-.581,0-5.579.008-11.158-.013-16.736a7.736,7.736,0,0,0-.273-1.95A7.646,7.646,0,0,0,3.906,11.3c-.07,5.068-.029,10.138-.025,15.206,0,1.635.658,2.287,2.293,2.293,2.79.009,5.58,0,8.37,0h4.651" transform="translate(0 0)"/>
    <path id="Path_3110" data-name="Path 3110" d="M137.192,135.072c-2.94,0-5.881.047-8.82-.011a8.411,8.411,0,0,1-8.4-7.879c-.125-1.366.534-2.318,1.68-2.424,1.227-.114,2.022.657,2.158,2.094a4.6,4.6,0,0,0,4.771,4.4q8.686.021,17.371,0a4.6,4.6,0,0,0,4.715-4.463,1.918,1.918,0,0,1,2.024-2.032c1.149.05,1.823.892,1.787,2.233a8.347,8.347,0,0,1-7.924,8.049c-3.117.093-6.239.018-9.359.018v.02" transform="translate(-91.112 -94.752)"/>
    <path id="Path_3111" data-name="Path 3111" d="M170.328,48.758c.593-.791,1.177-1.589,1.781-2.371a1.962,1.962,0,0,1,2.823-.591,1.912,1.912,0,0,1,.285,2.86q-2.633,3.591-5.311,7.149a1.913,1.913,0,0,1-3.316,0q-2.68-3.5-5.306-7.041a1.927,1.927,0,1,1,3.061-2.3c.589.755,1.16,1.525,1.741,2.286.015.02.055.02.231.075v-.959q0-6.659.006-13.319a4.222,4.222,0,0,1,.15-1.327,1.872,1.872,0,0,1,2.105-1.159,1.944,1.944,0,0,1,1.558,2.03c.013,3.42.006,6.839.006,10.259v4.377l.186.037" transform="translate(-122.108 -24.322)" fill="#66ff52"/>
    <path id="Path_3112" data-name="Path 3112" d="M172.39,195.537c-3.389,0-6.778.006-10.166,0-1.3,0-2.112-.59-2.267-1.6a1.871,1.871,0,0,1,1.507-2.2,3.883,3.883,0,0,1,.8-.069q10.121-.005,20.242,0c1.358,0,2.18.6,2.317,1.639.171,1.3-.7,2.213-2.18,2.223-2.939.019-5.878.006-8.817.006H172.39" transform="translate(-121.475 -145.58)"/>
    <path id="Path_3113" data-name="Path 3113" d="M172.336,227.481c-3.418,0-6.837.007-10.255,0a1.917,1.917,0,1,1-.141-3.814c2.279-.023,4.558-.007,6.837-.007q6.927,0,13.854,0a1.976,1.976,0,0,1,2.149,1.4,1.9,1.9,0,0,1-2.009,2.415c-3.478.02-6.957.007-10.436.007" transform="translate(-121.464 -169.875)"/>
    <path id="Path_3114" data-name="Path 3114" d="M172.386,255.671c3.418,0,6.837-.008,10.255,0,1.278,0,2.053.64,2.145,1.7a1.884,1.884,0,0,1-2.011,2.115c-2.189.023-4.378.007-6.567.007q-7.062,0-14.123,0a2,2,0,0,1-2.148-1.4,1.9,1.9,0,0,1,2.014-2.41c3.478-.02,6.957-.006,10.435-.007" transform="translate(-121.426 -194.193)"/>
    <path id="Path_3115" data-name="Path 3115" d="M122.812,195.563a11.717,11.717,0,0,1-1.271-.08,1.909,1.909,0,0,1-1.636-1.864,1.837,1.837,0,0,1,1.609-1.873,11.236,11.236,0,0,1,2.509-.008,1.785,1.785,0,0,1,1.613,1.852,1.838,1.838,0,0,1-1.584,1.887,10.706,10.706,0,0,1-1.239.085" transform="translate(-91.074 -145.585)"/>
    <path id="Path_3116" data-name="Path 3116" d="M122.766,227.424c-.36,0-.722.025-1.079,0a1.894,1.894,0,0,1-.056-3.777,14.892,14.892,0,0,1,2.248-.006,1.9,1.9,0,0,1-.033,3.787c-.358.027-.72,0-1.08,0v0" transform="translate(-91.074 -169.833)"/>
    <path id="Path_3117" data-name="Path 3117" d="M122.794,259.462a10.525,10.525,0,0,1-1.169-.007,1.918,1.918,0,0,1-1.719-1.973,1.875,1.875,0,0,1,1.783-1.805,18.418,18.418,0,0,1,2.159,0,1.816,1.816,0,0,1,1.788,1.871,1.878,1.878,0,0,1-1.763,1.917c-.357.033-.719.005-1.079.005v-.005" transform="translate(-91.073 -194.175)"/>
  </g>
</svg>
