<svg id="Group_843" data-name="Group 843" xmlns="http://www.w3.org/2000/svg" xmlns:xlink="http://www.w3.org/1999/xlink" width="366.367" height="363.885" viewBox="0 0 366.367 363.885">
  <defs>
    <linearGradient id="linear-gradient" x1="-0.757" y1="3.438" x2="-0.756" y2="3.438" gradientUnits="objectBoundingBox">
      <stop offset="0" stop-color="#0176ff"/>
      <stop offset="1" stop-color="#fe7062"/>
    </linearGradient>
    <clipPath id="clip-path">
      <rect id="Rectangle_525" data-name="Rectangle 525" width="366.367" height="363.885" fill="none"/>
    </clipPath>
    <clipPath id="clip-path-2">
      <path id="Path_522" data-name="Path 522" d="M161.514,15.587c-1.16.123-2.484.255-4.259.487C84.682,25.561,39.263,92.886,33.869,101.127c-45.488,69.5-48.384,181.7,11.146,235.478,26.2,23.669,56.69,28.412,92.812,35.135,22.389,4.167,94.8,16.359,158.154-25.941a139.278,139.278,0,0,0,24.461-19.856c56.351-58.084,56.211-164.071,11.9-232.5a169.223,169.223,0,0,0-33.306-37.79c-42.4-35.523-91.969-40.99-118.994-40.989a175.123,175.123,0,0,0-18.53.925" transform="translate(0 -14.662)" fill="none"/>
    </clipPath>
    <linearGradient id="linear-gradient-2" x1="0.165" y1="0.824" x2="0.165" y2="0.824" gradientUnits="objectBoundingBox">
      <stop offset="0" stop-color="#f5fbff"/>
      <stop offset="1" stop-color="#e9effd"/>
    </linearGradient>
    <clipPath id="clip-path-4">
      <rect id="Rectangle_478" data-name="Rectangle 478" width="68.125" height="204.645" fill="#8ddbec"/>
    </clipPath>
    <clipPath id="clip-path-5">
      <rect id="Rectangle_477" data-name="Rectangle 477" width="46.424" height="164.624" fill="#8ddbec"/>
    </clipPath>
    <clipPath id="clip-path-6">
      <path id="Path_543" data-name="Path 543" d="M292.971,0c-38.553,0-69.807,31.6-69.807,70.572h70.571V0C293.481,0,293.226,0,292.971,0Z" transform="translate(-223.164)" fill="none"/>
    </clipPath>
    <clipPath id="clip-path-8">
      <path id="Path_545" data-name="Path 545" d="M756.061,143.37l70.5,3.164c.02-.442.037-.885.048-1.33A70.532,70.532,0,0,0,794.09,83.91Z" transform="translate(-756.061 -83.91)" fill="none"/>
    </clipPath>
    <clipPath id="clip-path-9">
      <path id="Path_546" data-name="Path 546" d="M221.838,637.907l20.469-66.938a.375.375,0,0,0-.345-.484l-69.667-2.424a70.6,70.6,0,0,0,49.544,69.847" transform="translate(-172.25 -568.06)" fill="none"/>
    </clipPath>
    <clipPath id="clip-path-10">
      <path id="Path_547" data-name="Path 547" d="M611.286,599.936a62.552,62.552,0,0,0,17.553,2.557,70.594,70.594,0,0,0,66.925-44.361l-65.581-26.071Z" transform="translate(-611.286 -532.061)" fill="url(#linear-gradient)"/>
    </clipPath>
    <linearGradient id="linear-gradient-3" x1="-0.757" y1="3.438" x2="-0.756" y2="3.438" gradientUnits="objectBoundingBox">
      <stop offset="0" stop-color="#0176ff"/>
      <stop offset="1" stop-color="#0176ff"/>
    </linearGradient>
    <clipPath id="clip-path-12">
      <rect id="Rectangle_485" data-name="Rectangle 485" width="59.54" height="29.682" fill="none"/>
    </clipPath>
    <clipPath id="clip-path-13">
      <rect id="Rectangle_486" data-name="Rectangle 486" width="32.76" height="28.707" fill="none"/>
    </clipPath>
    <clipPath id="clip-path-14">
      <rect id="Rectangle_487" data-name="Rectangle 487" width="29.087" height="35.869" fill="none"/>
    </clipPath>
    <clipPath id="clip-path-15">
      <rect id="Rectangle_488" data-name="Rectangle 488" width="38.688" height="10.151" fill="none"/>
    </clipPath>
    <clipPath id="clip-path-16">
      <path id="Path_557" data-name="Path 557" d="M1095.17,279.313l-45.4,44.528-52.815-23.216-56.7,30.982.634,1.161,56.132-30.67,52.63,23.134.41.18,45.919-45.041L1149.13,249l-.672-1.139Z" transform="translate(-940.257 -247.864)" fill="none"/>
    </clipPath>
    <linearGradient id="linear-gradient-4" x1="-0.597" y1="1.896" x2="-0.597" y2="1.896" gradientUnits="objectBoundingBox">
      <stop offset="0" stop-color="#2b3582"/>
      <stop offset="1" stop-color="#150e42"/>
    </linearGradient>
    <clipPath id="clip-path-17">
      <path id="Path_558" data-name="Path 558" d="M896.534,844.593a6.107,6.107,0,1,0,6.107-6.107,6.107,6.107,0,0,0-6.107,6.107" transform="translate(-896.534 -838.486)" fill="none"/>
    </clipPath>
    <linearGradient id="linear-gradient-5" x1="-6.728" y1="14.785" x2="-6.72" y2="14.785" gradientUnits="objectBoundingBox">
      <stop offset="0" stop-color="#09005d"/>
      <stop offset="1" stop-color="#1a0f91"/>
    </linearGradient>
    <clipPath id="clip-path-18">
      <path id="Path_559" data-name="Path 559" d="M1322.55,611.821a6.107,6.107,0,1,0,6.107-6.107,6.107,6.107,0,0,0-6.107,6.107" transform="translate(-1322.55 -605.714)" fill="none"/>
    </clipPath>
    <linearGradient id="linear-gradient-6" x1="-9.994" y1="16.57" x2="-9.986" y2="16.57" xlink:href="#linear-gradient-5"/>
    <clipPath id="clip-path-19">
      <path id="Path_560" data-name="Path 560" d="M1722.215,778.714a6.107,6.107,0,1,0,6.107-6.107,6.107,6.107,0,0,0-6.107,6.107" transform="translate(-1722.215 -772.607)" fill="none"/>
    </clipPath>
    <linearGradient id="linear-gradient-7" x1="-13.058" y1="15.29" x2="-13.05" y2="15.29" xlink:href="#linear-gradient-5"/>
    <clipPath id="clip-path-20">
      <path id="Path_561" data-name="Path 561" d="M2056,449.32a6.107,6.107,0,1,0,6.107-6.107A6.107,6.107,0,0,0,2056,449.32" transform="translate(-2056 -443.213)" fill="none"/>
    </clipPath>
    <linearGradient id="linear-gradient-8" x1="-15.617" y1="17.816" x2="-15.61" y2="17.816" xlink:href="#linear-gradient-5"/>
    <clipPath id="clip-path-21">
      <path id="Path_562" data-name="Path 562" d="M2468.841,212.156a6.107,6.107,0,1,0,6.107-6.107,6.107,6.107,0,0,0-6.107,6.107" transform="translate(-2468.841 -206.049)" fill="none"/>
    </clipPath>
    <linearGradient id="linear-gradient-9" x1="-18.783" y1="19.634" x2="-18.775" y2="19.634" xlink:href="#linear-gradient-5"/>
    <clipPath id="clip-path-22">
      <path id="Path_563" data-name="Path 563" d="M1881.785,855.058l-72.146,87.932a3.029,3.029,0,0,0,2.342,4.95h13.869l-67.692,129.684,8.195,25.536h23.278a10.694,10.694,0,0,0,9.709-6.211L1866.5,951.5l9.669,1.107a8.592,8.592,0,0,0,9.554-8.03l5.071-85.987a5.078,5.078,0,0,0-5.132-5.4,4.952,4.952,0,0,0-3.881,1.874" transform="translate(-1758.157 -853.184)" fill="#0176ff"/>
    </clipPath>
    <clipPath id="clip-path-24">
      <rect id="Rectangle_501" data-name="Rectangle 501" width="64.176" height="79.455" fill="none"/>
    </clipPath>
    <clipPath id="clip-path-25">
      <rect id="Rectangle_502" data-name="Rectangle 502" width="76.522" height="107.762" fill="#81c8d9"/>
    </clipPath>
    <clipPath id="clip-path-26">
      <rect id="Rectangle_503" data-name="Rectangle 503" width="90.109" height="32.883" fill="#81c8d9"/>
    </clipPath>
    <clipPath id="clip-path-27">
      <path id="Path_569" data-name="Path 569" d="M1335.542,1741.131l47.789,106.158a17.526,17.526,0,0,0,15.981,10.331h24.637a9,9,0,0,0,7.866-4.632l.876-1.58a7.044,7.044,0,0,1-6.274-3.842l-63.674-124.759Z" transform="translate(-1335.542 -1722.808)" fill="#0176ff"/>
    </clipPath>
    <clipPath id="clip-path-28">
      <path id="Path_570" data-name="Path 570" d="M700.27,1637.651c-16.836,15.151-82.157,115.309-82.157,115.309l8.046,23.179h9.887a30.353,30.353,0,0,0,25.268-13.535l70.264-105.566a10.451,10.451,0,0,1,15.177-2.411l-3.478-8.427a27.587,27.587,0,0,0-9.709-12.234,22.987,22.987,0,0,0-13.307-4.271c-11.161,0-19.991,7.957-19.991,7.957" transform="translate(-618.113 -1629.693)" fill="#0176ff"/>
    </clipPath>
    <clipPath id="clip-path-29">
      <path id="Path_571" data-name="Path 571" d="M41.043,1978.471c10.311,3.622,44.652,50,61.437,73.333a31.781,31.781,0,0,0,25.8,13.222h9.29a25.332,25.332,0,0,0,21.7-12.263l1.391-2.309c-16.8,9.625-31.113-8-52.678-46.64S75.6,1961.482,75.6,1961.482c-22.792,2.287-34.553,16.989-34.553,16.989" transform="translate(-41.043 -1961.482)" fill="#0176ff"/>
    </clipPath>
    <clipPath id="clip-path-31">
      <rect id="Rectangle_508" data-name="Rectangle 508" width="1.797" height="5.521" fill="none"/>
    </clipPath>
    <clipPath id="clip-path-32">
      <path id="Path_573" data-name="Path 573" d="M1293.2,1227.853l2.037,30.9s9.943,17.7,19.9,12.446c4.443-2.344,5.209-5.309,4.7-7.874a5.108,5.108,0,0,1,3.873-5.9c3.606-.885,7.042-3.44,6.084-10.18-1.254-8.83-9.092-11.471-14.177-12.25a4.556,4.556,0,0,1-3.813-4c-.492-3.971-5.472-4.231-6.136-6.25-.828-2.516-5.331-4.707-5.331-4.707Z" transform="translate(-1293.201 -1220.038)" fill="none"/>
    </clipPath>
    <linearGradient id="linear-gradient-10" x1="-2.907" y1="3.126" x2="-2.905" y2="3.126" xlink:href="#linear-gradient-5"/>
    <clipPath id="clip-path-33">
      <path id="Path_574" data-name="Path 574" d="M977.2,1101.083c2.377,24.452,25.7,54.3,25.7,54.3,3.792-.719,11.057-12.573,11.057-12.573-21.829-10.915-34.64-45.84-34.64-45.84Z" transform="translate(-977.199 -1096.968)" fill="none"/>
    </clipPath>
    <linearGradient id="linear-gradient-11" x1="-2.086" y1="3.275" x2="-2.084" y2="3.275" gradientUnits="objectBoundingBox">
      <stop offset="0" stop-color="#febbba"/>
      <stop offset="1" stop-color="#ff928e"/>
    </linearGradient>
    <clipPath id="clip-path-34">
      <path id="Path_575" data-name="Path 575" d="M1657.789,2668.008a1.81,1.81,0,0,0-1.8,2.028l.644,5.3a2.188,2.188,0,0,0,1.919,1.914,33.853,33.853,0,0,0,7.089.111,1.874,1.874,0,0,0,1.573-2.43c-.65-2.045-1.839-5.114-3.553-6.92Z" transform="translate(-1655.979 -2668.008)" fill="none"/>
    </clipPath>
    <linearGradient id="linear-gradient-12" x1="-18.713" y1="1.096" x2="-18.702" y2="1.096" xlink:href="#linear-gradient-5"/>
    <clipPath id="clip-path-35">
      <path id="Path_576" data-name="Path 576" d="M1278.673,2220.649s3.321,33.638,3.912,47.094a10.542,10.542,0,0,1-1.56,5.992l-5.775,9.378,14.676-8.66.292-1.791-2.4-3.3,3.147-37.684a11.564,11.564,0,0,0-1.316-6.4l-3.036-5.7-6.946-4.762Z" transform="translate(-1275.25 -2214.815)" fill="none"/>
    </clipPath>
    <linearGradient id="linear-gradient-13" x1="-2.048" y1="2.182" x2="-2.046" y2="2.182" xlink:href="#linear-gradient-11"/>
    <clipPath id="clip-path-36">
      <path id="Path_577" data-name="Path 577" d="M1271.333,2640.4c-2.414,1.456-9.821,6.67-9.821,6.67a6.694,6.694,0,0,0-1.9.051,1.239,1.239,0,0,0,.23,2.455h4.683a2.819,2.819,0,0,0,2.238-1.1c1.46-1.9,4.485-5.6,5.932-5.695,1.947-.13,1.7,6.792,1.7,6.792h1.092l1.382-8.6a5.092,5.092,0,0,0-2.672-5.323s-.445,3.292-2.859,4.748" transform="translate(-1258.6 -2635.651)" fill="none"/>
    </clipPath>
    <linearGradient id="linear-gradient-14" x1="-8.711" y1="1.066" x2="-8.704" y2="1.066" xlink:href="#linear-gradient-5"/>
    <clipPath id="clip-path-37">
      <path id="Path_578" data-name="Path 578" d="M1460.376,2219.854s19.455,36.9,22.548,45.33a80.946,80.946,0,0,1,4.217,16.121c.065,1.04,1.359,2.038,4.925,2.038a3.421,3.421,0,0,0,3.183-1.452,2.078,2.078,0,0,0,.079-2.013c-1.125-2.278-4.7-9.556-6.02-12.857-1.579-3.941-4.976-21.8-6.839-28.014s-3.969-12.947-12.082-19.153c0,0-2.475-2.424-5.441-2.424a5.773,5.773,0,0,0-4.569,2.424" transform="translate(-1460.376 -2217.43)" fill="none"/>
    </clipPath>
    <linearGradient id="linear-gradient-15" x1="-2.573" y1="1.415" x2="-2.571" y2="1.415" xlink:href="#linear-gradient-11"/>
    <clipPath id="clip-path-38">
      <path id="Path_579" data-name="Path 579" d="M1161.02,1461.289c.97,4.678,9.8,28.018,9.8,28.018a19.408,19.408,0,0,0,17.432-1.7c-5.019-21.266,7.7-33.293,7.7-33.293-8.022-7.7-22.638-11.2-22.638-11.2s-13.947,10.2-12.292,18.177" transform="translate(-1160.883 -1443.112)" fill="none"/>
    </clipPath>
    <linearGradient id="linear-gradient-16" x1="-3.585" y1="3.252" x2="-3.582" y2="3.252" gradientUnits="objectBoundingBox">
      <stop offset="0" stop-color="#4f52ff"/>
      <stop offset="1" stop-color="#4042e2"/>
    </linearGradient>
    <clipPath id="clip-path-39">
      <path id="Path_580" data-name="Path 580" d="M1229.306,1780.816a34.961,34.961,0,0,0-.568,13.509c1.264,6.507,9.2,48.326,9.2,48.326,12.5,2.532,31.722-2.548,31.722-2.548-7.961-14.135-9.75-44.3-11.792-50.457s-11.127-10.528-11.127-10.528a19.408,19.408,0,0,1-17.432,1.7" transform="translate(-1228.293 -1779.118)" fill="none"/>
    </clipPath>
    <linearGradient id="linear-gradient-17" x1="-1.964" y1="2.177" x2="-1.962" y2="2.177" xlink:href="#linear-gradient-5"/>
    <clipPath id="clip-path-40">
      <path id="Path_581" data-name="Path 581" d="M1268.778,1324l-3.383,1.5a2.284,2.284,0,0,0-1.337,2.4l1.753,12.708a1.978,1.978,0,0,0,.209.691c1.152,2.08,4.6,3.118,7.269,3.621,1.632.308,3.1.572,2.713-1.042l-4.08-18.327a2.281,2.281,0,0,0-3.145-1.551" transform="translate(-1264.037 -1323.8)" fill="none"/>
    </clipPath>
    <linearGradient id="linear-gradient-18" x1="-6.986" y1="12.119" x2="-6.98" y2="12.119" xlink:href="#linear-gradient-11"/>
    <clipPath id="clip-path-41">
      <path id="Path_582" data-name="Path 582" d="M1376.54,1534.663a1.607,1.607,0,0,0,.356,1.954c14.838,12.995,11.213,24.5,9.293,28.405a1.342,1.342,0,0,1-2.034.461,2.719,2.719,0,0,0-3.532.153l-3.526,7.455a1.321,1.321,0,0,0,.074,1.266.966.966,0,0,0,1.414.254c1.411-1.1,4.193-3.2,5.133-3.484a6.417,6.417,0,0,0,2.81-1.628c24.836-21.409-3.642-41.784-3.642-41.784-2.92.968-5.3,4.945-6.347,6.948" transform="translate(-1376.355 -1527.715)" fill="none"/>
    </clipPath>
    <linearGradient id="linear-gradient-19" x1="-3.099" y1="3.405" x2="-3.096" y2="3.405" xlink:href="#linear-gradient-11"/>
    <clipPath id="clip-path-42">
      <path id="Path_583" data-name="Path 583" d="M1224.018,1203.335s-4.833,2.041-8.118,9.023-.832,10.207,2.25,10.65,7.691.375,12.567-4.135c4.479-4.144.378-15.826-5.189-15.826a4.176,4.176,0,0,0-1.51.289" transform="translate(-1214.338 -1203.046)" fill="none"/>
    </clipPath>
    <linearGradient id="linear-gradient-20" x1="-5.406" y1="7.048" x2="-5.401" y2="7.048" xlink:href="#linear-gradient-11"/>
    <clipPath id="clip-path-43">
      <path id="Path_584" data-name="Path 584" d="M1251.872,1157.153c-5.455,2.7-2.131,8.368-2.131,8.368l2.131-1.49c9.058.121,5.412,10.337,5.412,10.337l.567.293s1.974-2.123,2.831-.364-1.247,5.048-1.247,5.048,1.592,3.987,5.453.471,3.465-8.435,1.144-15.784c-1.689-5.346-5.528-7.985-9.6-7.985a10.278,10.278,0,0,0-4.565,1.107" transform="translate(-1248.739 -1156.046)" fill="none"/>
    </clipPath>
    <linearGradient id="linear-gradient-21" x1="-5.147" y1="6.365" x2="-5.143" y2="6.365" xlink:href="#linear-gradient-5"/>
    <clipPath id="clip-path-44">
      <path id="Path_585" data-name="Path 585" d="M1320.939,1279.015l.559,2.59c1.745-.9,6.2-3.661,3.744-5.757a1.8,1.8,0,0,0-1.168-.493c-1.852,0-3.134,3.66-3.134,3.66" transform="translate(-1320.939 -1275.355)" fill="none"/>
    </clipPath>
    <linearGradient id="linear-gradient-22" x1="-19.853" y1="21.922" x2="-19.838" y2="21.922" xlink:href="#linear-gradient-11"/>
    <clipPath id="clip-path-45">
      <path id="Path_586" data-name="Path 586" d="M919.637,994.079l3.646,3.8a17.655,17.655,0,0,0-2.129,4.208,5.109,5.109,0,0,0,.509,3.76c.64,1.153,1.513,2.652,2.339,3.825a5.045,5.045,0,0,0,3.79,2.237c-.2.621,2.068,1.568,3.4-.974.047-1.218.787-6.436.059-7.428-3.876-5.285-11.391-11.909-11.391-11.909a1.788,1.788,0,0,0-.224,2.484" transform="translate(-919.232 -991.594)" fill="none"/>
    </clipPath>
    <linearGradient id="linear-gradient-23" x1="-5.567" y1="9.22" x2="-5.561" y2="9.22" xlink:href="#linear-gradient-11"/>
    <clipPath id="clip-path-46">
      <path id="Path_587" data-name="Path 587" d="M954.666,1054.682a1.548,1.548,0,0,0-.871.946,2.125,2.125,0,0,0,.4,1.672c.579.943,1.417,5.12,1.691,6.65l.668-.12c-.041-.229-1.016-5.641-1.781-6.886a1.555,1.555,0,0,1-.328-1.133.764.764,0,0,1,.335-.413l3.071,2.6,1.012,2.721.637-.237-1.074-2.887-3.562-3.02Z" transform="translate(-953.746 -1054.579)" fill="none"/>
    </clipPath>
    <linearGradient id="linear-gradient-24" x1="-21.609" y1="23.926" x2="-21.586" y2="23.926" xlink:href="#linear-gradient-11"/>
  </defs>
  <g id="Group_842" data-name="Group 842" clip-path="url(#clip-path)">
    <g id="Group_743" data-name="Group 743" transform="translate(0 1.942)">
      <g id="Group_742" data-name="Group 742" clip-path="url(#clip-path-2)">
        <rect id="Rectangle_476" data-name="Rectangle 476" width="540.887" height="540.098" transform="matrix(0.729, -0.685, 0.685, 0.729, -200.868, 175.059)" fill="url(#linear-gradient-2)"/>
      </g>
    </g>
    <g id="Group_751" data-name="Group 751">
      <g id="Group_750" data-name="Group 750" clip-path="url(#clip-path)">
        <path id="Path_523" data-name="Path 523" d="M1495.973,873.945a.441.441,0,0,1-.377-.211c-.3-.5-.606-1.014-.9-1.534a.441.441,0,1,1,.769-.432c.287.511.584,1.018.882,1.507a.44.44,0,0,1-.147.606.435.435,0,0,1-.229.065" transform="translate(-1296.706 -756.124)" fill="#91b3fa"/>
        <path id="Path_524" data-name="Path 524" d="M1451.089,384.659a.442.442,0,0,1-.407-.272c-.457-1.1-.88-2.235-1.259-3.373a.441.441,0,0,1,.837-.278c.372,1.118.788,2.232,1.236,3.314a.441.441,0,0,1-.407.61m-2.753-8.942a.44.44,0,0,1-.431-.351c-.041-.2-.081-.393-.119-.589-.191-.981-.355-1.977-.488-2.96a.441.441,0,0,1,.874-.117c.13.966.291,1.945.479,2.909q.056.289.116.578a.442.442,0,0,1-.432.531m-1.036-9.3a.441.441,0,0,1-.441-.434q-.006-.409-.007-.817c0-.928.026-1.864.078-2.783a.441.441,0,0,1,.88.05c-.051.9-.077,1.821-.077,2.732,0,.267,0,.536.007.8a.441.441,0,0,1-.434.448Zm.738-9.329a.431.431,0,0,1-.077-.007.44.44,0,0,1-.357-.51c.208-1.18.461-2.365.754-3.522a.441.441,0,0,1,.855.216c-.287,1.136-.536,2.3-.74,3.459a.44.44,0,0,1-.433.364m2.493-9.02a.435.435,0,0,1-.157-.029.441.441,0,0,1-.255-.569c.427-1.118.9-2.233,1.405-3.315a.441.441,0,1,1,.8.373c-.5,1.063-.961,2.159-1.38,3.257a.441.441,0,0,1-.412.284m4.146-8.387a.441.441,0,0,1-.374-.672c.629-1.018,1.3-2.025,2-2.993a.441.441,0,1,1,.715.516c-.686.951-1.348,1.94-1.966,2.94a.44.44,0,0,1-.375.209m5.644-7.459a.441.441,0,0,1-.325-.739c.806-.879,1.656-1.742,2.526-2.563a.441.441,0,1,1,.605.64c-.854.807-1.689,1.655-2.481,2.519a.441.441,0,0,1-.325.143m6.942-6.265a.441.441,0,0,1-.263-.795c.961-.714,1.958-1.4,2.963-2.04a.441.441,0,0,1,.474.744c-.988.628-1.967,1.3-2.911,2a.44.44,0,0,1-.262.087m8-4.841a.441.441,0,0,1-.192-.838c1.074-.516,2.183-1,3.3-1.442a.441.441,0,1,1,.324.82c-1.095.433-2.185.91-3.239,1.417a.439.439,0,0,1-.191.043m8.774-3.238a.441.441,0,0,1-.112-.867c1.07-.283,2.165-.535,3.256-.748l.257-.049a.441.441,0,0,1,.159.867l-.248.047c-1.072.209-2.148.456-3.2.735a.444.444,0,0,1-.113.015m22.109-.767a.439.439,0,0,1-.084-.008c-1.154-.224-2.33-.408-3.494-.547a.441.441,0,1,1,.1-.875c1.185.142,2.382.329,3.558.557a.441.441,0,0,1-.083.873m-12.88-.773a.441.441,0,0,1-.031-.88c1.177-.084,2.368-.127,3.539-.127a.458.458,0,0,1,.479.441.433.433,0,0,1-.438.441c-1.192,0-2.361.042-3.517.124h-.032" transform="translate(-1255.247 -273.573)" fill="#91b3fa"/>
        <path id="Path_525" data-name="Path 525" d="M1935.986,334.5a.435.435,0,0,1-.149-.026c-.547-.2-1.1-.386-1.653-.563a.441.441,0,1,1,.27-.839c.559.179,1.126.372,1.683.573a.441.441,0,0,1-.149.855" transform="translate(-1677.774 -288.941)" fill="#91b3fa"/>
        <path id="Path_526" data-name="Path 526" d="M2155.581,524.517a.44.44,0,0,1-.4-.258c-.245-.539-.5-1.069-.751-1.577a.441.441,0,1,1,.789-.393c.259.517.516,1.058.764,1.606a.441.441,0,0,1-.219.584.434.434,0,0,1-.182.04" transform="translate(-1869.077 -452.91)" fill="#91b3fa"/>
        <path id="Path_527" data-name="Path 527" d="M1743.852,639.735c-.89-.01-1.773-.022-2.647-.068a.441.441,0,0,1-.417-.464.431.431,0,0,1,.464-.417c.859.046,1.726.076,2.6.067q.44,0,.878-.009h.006a.441.441,0,0,1,.011.882q-.448.008-.9.009m6.574-.448a.441.441,0,0,1-.058-.878c.948-.127,1.913-.287,2.868-.473q.281-.055.563-.113a.441.441,0,0,1,.179.863l-.573.115c-.972.19-1.955.352-2.92.482a.472.472,0,0,1-.059,0m-14.867-.248a.432.432,0,0,1-.075-.006c-1.159-.2-2.326-.439-3.469-.719a.441.441,0,0,1,.21-.857c1.123.275,2.269.513,3.407.707a.441.441,0,0,1-.073.875m23.838-1.817a.441.441,0,0,1-.138-.859c1.1-.364,2.2-.77,3.263-1.207a.441.441,0,1,1,.335.815c-1.083.446-2.2.859-3.321,1.229a.434.434,0,0,1-.138.022m8.433-3.687a.441.441,0,0,1-.214-.826c1.012-.561,2.014-1.165,2.979-1.794a.441.441,0,1,1,.481.739c-.982.64-2,1.254-3.032,1.826a.437.437,0,0,1-.214.055m7.592-5.194a.441.441,0,0,1-.283-.78c.888-.738,1.761-1.518,2.595-2.317a.441.441,0,1,1,.61.636c-.848.814-1.737,1.608-2.641,2.359a.44.44,0,0,1-.281.1m6.5-6.516a.441.441,0,0,1-.339-.722c.736-.889,1.45-1.817,2.122-2.758a.441.441,0,1,1,.717.513c-.684.957-1.411,1.9-2.16,2.807a.441.441,0,0,1-.34.16m5.186-7.605a.441.441,0,0,1-.385-.654c.56-1.011,1.091-2.055,1.578-3.1a.441.441,0,0,1,.8.372c-.5,1.066-1.036,2.128-1.607,3.157a.441.441,0,0,1-.386.227m3.7-8.433a.45.45,0,0,1-.139-.022.441.441,0,0,1-.28-.557c.364-1.1.693-2.225.976-3.342a.441.441,0,0,1,.855.217c-.289,1.137-.623,2.281-.994,3.4a.44.44,0,0,1-.418.3m2.066-8.975a.431.431,0,0,1-.059,0,.44.44,0,0,1-.379-.5c.152-1.145.265-2.311.335-3.463a.441.441,0,1,1,.88.053c-.071,1.173-.186,2.36-.341,3.526a.441.441,0,0,1-.436.383m.352-9.2a.441.441,0,0,1-.44-.416c-.064-1.154-.17-2.321-.315-3.466a.441.441,0,0,1,.875-.111c.148,1.166.256,2.353.321,3.528a.44.44,0,0,1-.415.464h-.025m-1.356-9.107a.441.441,0,0,1-.428-.336c-.276-1.127-.594-2.255-.945-3.349a.441.441,0,1,1,.839-.27c.357,1.115.681,2.262.962,3.41a.441.441,0,0,1-.429.545" transform="translate(-1502.353 -498.199)" fill="#91b3fa"/>
        <path id="Path_528" data-name="Path 528" d="M1679.945,1035.382a.438.438,0,0,1-.154-.028c-.572-.213-1.128-.432-1.655-.65a.441.441,0,0,1,.338-.814c.517.214,1.064.429,1.625.639a.441.441,0,0,1-.154.854" transform="translate(-1455.665 -896.942)" fill="#91b3fa"/>
        <path id="Path_529" data-name="Path 529" d="M1553.774,471.975a.594.594,0,0,0,.689,0l5.9-4.162a31.458,31.458,0,0,0,9.919,2.345l3.416,6.358a.593.593,0,0,0,.618.3l8.551-1.388a.594.594,0,0,0,.49-.485l1.229-7.112a31.458,31.458,0,0,0,8.668-5.362l6.915,2.082a.594.594,0,0,0,.653-.221l5.065-7.028a.594.594,0,0,0,0-.689l-4.162-5.9a31.461,31.461,0,0,0,2.345-9.919l6.358-3.416a.593.593,0,0,0,.3-.618l-1.388-8.551a.593.593,0,0,0-.485-.49l-7.112-1.229a31.455,31.455,0,0,0-5.362-8.668l2.082-6.915a.593.593,0,0,0-.221-.652l-7.028-5.065a.594.594,0,0,0-.689,0l-5.9,4.163a31.448,31.448,0,0,0-9.919-2.345l-3.415-6.358a.594.594,0,0,0-.618-.3l-8.551,1.388a.593.593,0,0,0-.49.485l-1.229,7.112a31.459,31.459,0,0,0-8.668,5.362l-6.915-2.082a.593.593,0,0,0-.652.221l-5.065,7.028a.594.594,0,0,0,0,.689l4.162,5.9a31.455,31.455,0,0,0-2.345,9.919l-6.358,3.416a.593.593,0,0,0-.3.618l1.388,8.55a.593.593,0,0,0,.485.49l7.112,1.229a31.458,31.458,0,0,0,5.362,8.668l-2.082,6.915a.593.593,0,0,0,.221.652Z" transform="translate(-1331.072 -347.324)" fill="#91b3fa"/>
        <path id="Path_530" data-name="Path 530" d="M1768.327,642.741a8.362,8.362,0,1,1,3.314-.69,8.346,8.346,0,0,1-3.314.69m3.052-1.3h0Zm-3.055-14.094a7.048,7.048,0,1,0,2.591.5,7.015,7.015,0,0,0-2.591-.5" transform="translate(-1526.9 -543.121)" fill="#bdd0fb"/>
        <path id="Path_531" data-name="Path 531" d="M1682.453,568.231c-.139,0-.277,0-.415,0l-.285-.007-.248-.009-.124-.006h-.026l.068-1.321a20.376,20.376,0,0,0,4.3-.238q.367-.059.729-.132A20.233,20.233,0,1,0,1667,559.706l-1.011.853a21.568,21.568,0,1,1,19.949,7.389,21.805,21.805,0,0,1-3.486.281" transform="translate(-1440.964 -455.56)" fill="#bdd0fb"/>
        <path id="Path_532" data-name="Path 532" d="M2084.321,495.12a.44.44,0,0,1-.377-.211c-.308-.5-.6-1.028-.883-1.557a.441.441,0,0,1,.78-.41c.27.512.557,1.02.855,1.508a.44.44,0,0,1-.147.606.435.435,0,0,1-.229.065" transform="translate(-1807.158 -427.456)" fill="#91b3fa"/>
        <path id="Path_533" data-name="Path 533" d="M2060.843,219.312a.44.44,0,0,1-.425-.326c-.18-.665-.338-1.344-.469-2.018-.11-.565-.205-1.145-.283-1.724a.441.441,0,1,1,.874-.117c.075.562.168,1.124.275,1.672.127.653.281,1.312.455,1.956a.441.441,0,0,1-.31.541.434.434,0,0,1-.116.015m-.881-9.783-.039,0a.44.44,0,0,1-.4-.477,28.215,28.215,0,0,1,.588-3.774.441.441,0,1,1,.86.195,27.3,27.3,0,0,0-.57,3.656.441.441,0,0,1-.438.4m2.564-9.482a.434.434,0,0,1-.187-.042.441.441,0,0,1-.211-.587,28.591,28.591,0,0,1,1.857-3.335.441.441,0,0,1,.74.48,27.71,27.71,0,0,0-1.8,3.232.441.441,0,0,1-.4.253m5.679-8.013a.441.441,0,0,1-.309-.755,28.474,28.474,0,0,1,2.89-2.492.441.441,0,0,1,.529.705,27.664,27.664,0,0,0-2.8,2.414.438.438,0,0,1-.31.127m8.1-5.556a.441.441,0,0,1-.182-.842,28.443,28.443,0,0,1,3.577-1.332.441.441,0,0,1,.251.845,27.78,27.78,0,0,0-3.466,1.291.436.436,0,0,1-.181.039m9.52-2.411a.441.441,0,0,1-.032-.88,28.3,28.3,0,0,1,3.817-.022.441.441,0,0,1-.054.88,27.762,27.762,0,0,0-3.7.021h-.033" transform="translate(-1786.779 -158.861)" fill="#91b3fa"/>
        <path id="Path_534" data-name="Path 534" d="M2330.857,192.861a.436.436,0,0,1-.149-.026c-.54-.195-1.095-.375-1.649-.536a.441.441,0,0,1,.246-.846c.572.166,1.145.353,1.7.554a.441.441,0,0,1-.149.855" transform="translate(-2020.345 -166.082)" fill="#91b3fa"/>
        <path id="Path_535" data-name="Path 535" d="M2460.2,302.533a.441.441,0,0,1-.406-.27c-.222-.527-.465-1.058-.724-1.577a.441.441,0,1,1,.79-.393c.267.536.517,1.083.747,1.628a.441.441,0,0,1-.406.612" transform="translate(-2133.372 -260.313)" fill="#91b3fa"/>
        <path id="Path_536" data-name="Path 536" d="M2249.811,389.558a28.277,28.277,0,0,1-3.159-.177.441.441,0,0,1,.1-.876,27.34,27.34,0,0,0,3.635.166h.009a.441.441,0,0,1,.009.882q-.3.006-.593.006m6.536-.771a.441.441,0,0,1-.1-.87,27.73,27.73,0,0,0,3.476-1.074.441.441,0,0,1,.315.823,28.588,28.588,0,0,1-3.586,1.109.446.446,0,0,1-.1.012m8.871-3.829a.441.441,0,0,1-.243-.809,27.548,27.548,0,0,0,2.9-2.2.441.441,0,1,1,.577.665,28.291,28.291,0,0,1-2.99,2.267.439.439,0,0,1-.242.073m7.026-6.627a.441.441,0,0,1-.353-.7,27.92,27.92,0,0,0,1.982-3.052.441.441,0,1,1,.769.431,28.82,28.82,0,0,1-2.045,3.149.44.44,0,0,1-.353.177m4.367-8.62a.441.441,0,0,1-.422-.569,27.561,27.561,0,0,0,.827-3.545.441.441,0,1,1,.87.143,28.416,28.416,0,0,1-.853,3.659.441.441,0,0,1-.422.313m1.166-9.594a.441.441,0,0,1-.44-.417,27.8,27.8,0,0,0-.434-3.614.441.441,0,0,1,.867-.162,28.92,28.92,0,0,1,.448,3.728.441.441,0,0,1-.417.464h-.024" transform="translate(-1948.789 -308.478)" fill="#91b3fa"/>
        <path id="Path_537" data-name="Path 537" d="M2191.516,591.117a.441.441,0,0,1-.143-.024c-.568-.194-1.131-.407-1.675-.632a.441.441,0,1,1,.337-.814c.527.218,1.073.424,1.623.612a.441.441,0,0,1-.143.858" transform="translate(-1899.481 -511.531)" fill="#91b3fa"/>
        <path id="Path_538" data-name="Path 538" d="M2120.668,273.174a.336.336,0,0,0,.39,0l3.339-2.355a17.8,17.8,0,0,0,5.612,1.327l1.932,3.6a.336.336,0,0,0,.35.173l4.837-.785a.335.335,0,0,0,.277-.274l.7-4.024a17.8,17.8,0,0,0,4.9-3.033l3.912,1.178a.336.336,0,0,0,.369-.125l2.865-3.976a.336.336,0,0,0,0-.39l-2.355-3.339a17.787,17.787,0,0,0,1.326-5.612l3.6-1.932a.335.335,0,0,0,.172-.349l-.785-4.838a.335.335,0,0,0-.274-.277l-4.023-.7a17.8,17.8,0,0,0-3.033-4.9l1.178-3.912a.336.336,0,0,0-.125-.369l-3.976-2.865a.336.336,0,0,0-.39,0l-3.339,2.355a17.8,17.8,0,0,0-5.612-1.327l-1.932-3.6a.336.336,0,0,0-.35-.172l-4.838.785a.335.335,0,0,0-.276.274l-.7,4.023a17.8,17.8,0,0,0-4.9,3.033l-3.912-1.178a.336.336,0,0,0-.369.125l-2.865,3.976a.336.336,0,0,0,0,.39l2.355,3.339a17.8,17.8,0,0,0-1.326,5.612l-3.6,1.932a.336.336,0,0,0-.172.349l.785,4.838a.335.335,0,0,0,.274.277l4.023.7a17.8,17.8,0,0,0,3.033,4.9l-1.178,3.912a.335.335,0,0,0,.125.369Z" transform="translate(-1830.247 -201.838)" fill="#91b3fa"/>
        <path id="Path_539" data-name="Path 539" d="M2240.177,368.2a5.013,5.013,0,1,1,1.983-.412,5.021,5.021,0,0,1-1.983.412m1.72-1.019h0Zm-1.733-7.685a3.69,3.69,0,1,0,3.393,2.225,3.669,3.669,0,0,0-3.393-2.225" transform="translate(-1939.156 -310.744)" fill="#bdd0fb"/>
        <path id="Path_540" data-name="Path 540" d="M2191.585,326.029l-.23,0q-.2,0-.4-.014h0l.066-1.321a11.277,11.277,0,0,0,2.374-.131,11.171,11.171,0,0,0,9.379-11,11.166,11.166,0,1,0-22.333-.031,11.189,11.189,0,0,0,2.625,7.2l-1.011.853a12.488,12.488,0,1,1,21.877-10.048,12.643,12.643,0,0,1,.165,2.026,12.494,12.494,0,0,1-10.49,12.3l-.023,0a12.653,12.653,0,0,1-2,.159" transform="translate(-1890.536 -261.183)" fill="#bdd0fb"/>
        <g id="Group_749" data-name="Group 749" transform="translate(0.504 104.818)" opacity="0.88">
          <g id="Group_748" data-name="Group 748">
            <g id="Group_747" data-name="Group 747" clip-path="url(#clip-path-4)">
              <path id="Path_541" data-name="Path 541" d="M12.521,792.894a3.153,3.153,0,0,0-5.715,2.3c2.9,17.2,6.672,47.256,1.9,67.146C1.7,891.583-9.791,977.3,71.927,996.147c0,0-12.23-133.727-59.406-203.253" transform="translate(-3.803 -791.502)" fill="#8ddbec"/>
              <g id="Group_746" data-name="Group 746" transform="translate(16.707 36.672)" opacity="0.51">
                <g id="Group_745" data-name="Group 745">
                  <g id="Group_744" data-name="Group 744" clip-path="url(#clip-path-5)">
                    <path id="Path_542" data-name="Path 542" d="M130.372,1068.532s.093.147.263.453.413.752.7,1.354a45,45,0,0,1,2.159,5.347c.42,1.171.8,2.493,1.221,3.932l.576,2.266c.205.784.356,1.607.545,2.453l.277,1.291.238,1.339c.151.907.342,1.838.471,2.8l.385,2.964c.147,1.012.2,2.053.314,3.114.227,2.123.314,4.341.426,6.639.03,1.149.029,2.317.045,3.5q.008.89.018,1.794c0,.6-.029,1.208-.042,1.818q-.049,1.832-.1,3.712c-.063,1.287-.128,2.5-.239,3.79-.209,2.582-.478,5.168-.77,7.8s-.594,5.282-.9,7.977c-.15,1.342-.309,2.693-.442,4.048q-.1,1.017-.207,2.038t-.178,2.046a140.481,140.481,0,0,0-.52,16.539,91.5,91.5,0,0,0,1.974,16.31,79.719,79.719,0,0,0,4.83,15.141l.759,1.776.835,1.724c.559,1.142,1.077,2.292,1.705,3.37.61,1.088,1.181,2.183,1.8,3.234l1.91,3.073.472.755.5.726,1,1.439c.661.952,1.28,1.914,1.982,2.792l2.009,2.637.491.645.517.615,1.019,1.211,1.976,2.349,1.979,2.167,1.881,2.061,1.861,1.867,1.749,1.751c.282.281.55.568.83.831l.827.77,2.975,2.769c.446.422.875.813,1.293,1.166l1.159,1.009,1.829,1.593,1.525,1.328.006.006a.22.22,0,0,1-.275.344l-1.633-1.2-1.963-1.441c-.766-.576-1.683-1.2-2.628-1.992-1.91-1.566-4.3-3.394-6.829-5.742l-1.99-1.782-2.024-1.978-2.132-2.087-2.118-2.3a100.221,100.221,0,0,1-8.645-10.735l-2.07-3.1c-.677-1.063-1.3-2.176-1.971-3.282-.685-1.1-1.262-2.269-1.88-3.435l-.923-1.762-.83-1.829a83.175,83.175,0,0,1-5.343-15.691,92.318,92.318,0,0,1-2.187-16.962l-.049-1.073-.015-1.072-.026-2.144c-.007-1.428.037-2.851.072-4.273.081-1.417.133-2.835.237-4.241s.2-2.81.342-4.2q.1-1.043.2-2.082t.225-2.066c.145-1.375.315-2.735.477-4.089.336-2.7.719-5.361,1.064-7.969s.675-5.172.933-7.645c.074-.615.121-1.251.178-1.875s.127-1.267.168-1.842q.119-1.838.234-3.629c.036-.6.083-1.191.109-1.78s.032-1.175.049-1.755c.028-1.162.072-2.307.086-3.432-.042-2.248.023-4.429-.1-6.513a108.55,108.55,0,0,0-.992-11.354,80.57,80.57,0,0,0-1.67-8.636,52.1,52.1,0,0,0-1.647-5.422c-.226-.612-.416-1.08-.547-1.386s-.208-.467-.208-.467a.22.22,0,0,1,.384-.215Z" transform="translate(-129.963 -1068.424)" fill="#5daebf"/>
                  </g>
                </g>
              </g>
            </g>
          </g>
        </g>
      </g>
    </g>
    <g id="Group_753" data-name="Group 753" transform="translate(29.554)">
      <g id="Group_752" data-name="Group 752" clip-path="url(#clip-path-6)">
        <rect id="Rectangle_480" data-name="Rectangle 480" width="96.834" height="96.834" transform="translate(-31.15 18.709) rotate(-30.99)" fill="#81bbff"/>
      </g>
    </g>
    <g id="Group_755" data-name="Group 755">
      <g id="Group_754" data-name="Group 754" clip-path="url(#clip-path)">
        <path id="Path_544" data-name="Path 544" d="M751.31,71.6l38.029-59.459A70.241,70.241,0,0,0,752.227,1.033c-.431-.006-.86-.006-1.289,0Z" transform="translate(-651.491 -0.892)" fill="#2a8afa"/>
      </g>
    </g>
    <g id="Group_757" data-name="Group 757" transform="translate(100.125 11.112)">
      <g id="Group_756" data-name="Group 756" clip-path="url(#clip-path-8)">
        <rect id="Rectangle_482" data-name="Rectangle 482" width="93.13" height="90.079" transform="translate(-27.362 16.088) rotate(-30.454)" fill="#0754af"/>
      </g>
    </g>
    <g id="Group_759" data-name="Group 759" transform="translate(22.811 75.228)">
      <g id="Group_758" data-name="Group 758" clip-path="url(#clip-path-9)">
        <rect id="Rectangle_483" data-name="Rectangle 483" width="91.58" height="92.33" transform="translate(-25.525 59.872) rotate(-67.797)" fill="#3190ff"/>
      </g>
    </g>
    <g id="Group_761" data-name="Group 761" transform="translate(80.953 70.461)">
      <g id="Group_760" data-name="Group 760" clip-path="url(#clip-path-10)">
        <rect id="Rectangle_484" data-name="Rectangle 484" width="97.971" height="87.786" transform="matrix(0.976, -0.219, 0.219, 0.976, -15.164, 3.4)" fill="url(#linear-gradient-3)"/>
      </g>
    </g>
    <g id="Group_775" data-name="Group 775">
      <g id="Group_774" data-name="Group 774" clip-path="url(#clip-path)">
        <path id="Path_548" data-name="Path 548" d="M821.716,558.443a70.35,70.35,0,0,0,5.169-23.507l-70.5-3.238Z" transform="translate(-656.22 -461.285)" fill="#064c9f"/>
        <g id="Group_764" data-name="Group 764" transform="translate(96.605 108.977)" opacity="0.63">
          <g id="Group_763" data-name="Group 763">
            <g id="Group_762" data-name="Group 762" clip-path="url(#clip-path-12)">
              <path id="Path_549" data-name="Path 549" d="M733.291,852.578c-.988,0-1.984-.021-2.962-.063a.881.881,0,0,1,.075-1.761c.953.04,1.924.061,2.887.061a67.221,67.221,0,0,0,54.141-27.556.881.881,0,1,1,1.425,1.038,68.625,68.625,0,0,1-55.565,28.281" transform="translate(-729.485 -822.897)" fill="#fff"/>
            </g>
          </g>
        </g>
        <path id="Path_550" data-name="Path 550" d="M1071.478,147.552a.882.882,0,0,1-.872-.759,67.1,67.1,0,0,0-28.353-45.773.881.881,0,1,1,1-1.451,68.866,68.866,0,0,1,29.1,46.979.882.882,0,0,1-.75,1,.892.892,0,0,1-.124.008" transform="translate(-903.897 -86.247)" fill="#91b3fa"/>
        <g id="Group_767" data-name="Group 767" transform="translate(41.618 6.776)" opacity="0.63">
          <g id="Group_766" data-name="Group 766">
            <g id="Group_765" data-name="Group 765" clip-path="url(#clip-path-13)">
              <path id="Path_551" data-name="Path 551" d="M315.144,79.876a.882.882,0,0,1-.751-1.341,68.53,68.53,0,0,1,31.4-27.293.882.882,0,0,1,.7,1.619A66.779,66.779,0,0,0,315.9,79.454a.88.88,0,0,1-.753.422" transform="translate(-314.263 -51.169)" fill="#fff"/>
            </g>
          </g>
        </g>
        <g id="Group_770" data-name="Group 770" transform="translate(52.474 106.732)" opacity="0.63">
          <g id="Group_769" data-name="Group 769">
            <g id="Group_768" data-name="Group 768" clip-path="url(#clip-path-14)">
              <path id="Path_552" data-name="Path 552" d="M414.445,841.815l-.891-.369a96.4,96.4,0,0,1-16.918-9.156.881.881,0,1,1,.977-1.467,95.486,95.486,0,0,0,15.725,8.62l10.268-32.879a.882.882,0,1,1,1.683.526Z" transform="translate(-396.243 -805.946)" fill="#fff"/>
            </g>
          </g>
        </g>
        <g id="Group_773" data-name="Group 773" transform="translate(51.281 78.458)" opacity="0.63">
          <g id="Group_772" data-name="Group 772">
            <g id="Group_771" data-name="Group 771" clip-path="url(#clip-path-15)">
              <path id="Path_553" data-name="Path 553" d="M422.838,602.6a.893.893,0,0,1-.263-.04.882.882,0,0,1-.579-1.1l1.951-6.243-35.859-1a.882.882,0,0,1,.024-1.763h.025l36.646,1.022a1.167,1.167,0,0,1,1.082,1.514l-2.186,7a.883.883,0,0,1-.841.619m1.9-7.367h0Z" transform="translate(-387.231 -592.451)" fill="#fff"/>
            </g>
          </g>
        </g>
        <path id="Rectangle_489" data-name="Rectangle 489" d="M18.293,0h0A18.293,18.293,0,0,1,36.586,18.293V116.15a18.293,18.293,0,0,1-18.293,18.293h0A18.293,18.293,0,0,1,0,116.15V18.293A18.293,18.293,0,0,1,18.293,0Z" transform="translate(50.164 228.272)" fill="#91b3fa"/>
        <path id="Path_554" data-name="Path 554" d="M46.8,2258.21c0-.972-2.029-1.926-4.092-1.926H13.236c-2.064,0-3.9.954-3.9,1.926v59.725c0,.972,1.84,2.265,3.9,2.265H42.707c2.064,0,4.092-1.292,4.092-2.265Z" transform="translate(-8.096 -1957.484)" fill="#91b3fa"/>
        <path id="Path_555" data-name="Path 555" d="M1127.658,1633.85h-29.446a4,4,0,0,0-3.779,4.125v138.033c0,2.253,1.715,4.627,3.779,4.627h29.446c2.064,0,4.683-2.374,4.683-4.627V1637.975c0-2.253-2.619-4.125-4.683-4.125" transform="translate(-949.497 -1417.48)" fill="#91b3fa"/>
        <path id="Rectangle_490" data-name="Rectangle 490" d="M18.293,0h0A18.293,18.293,0,0,1,36.586,18.293V157.585a18.293,18.293,0,0,1-18.293,18.293h0A18.293,18.293,0,0,1,0,157.585V18.293A18.293,18.293,0,0,1,18.293,0Z" transform="translate(96.889 186.837)" fill="#91b3fa"/>
        <path id="Path_556" data-name="Path 556" d="M2363.455,865.577a4.213,4.213,0,0,0-4.153-3.945h-29.471a3.94,3.94,0,0,0-3.844,3.945v240.372c0,2.17,1.78,4.292,3.844,4.292H2359.3a4.534,4.534,0,0,0,4.153-4.292Z" transform="translate(-2017.957 -747.526)" fill="#91b3fa"/>
        <path id="Rectangle_491" data-name="Rectangle 491" d="M18.293,0h0A18.293,18.293,0,0,1,36.586,18.293V185.355a18.293,18.293,0,0,1-18.293,18.293h0A18.293,18.293,0,0,1,0,185.355V18.293A18.293,18.293,0,0,1,18.293,0Z" transform="translate(201.798 159.067)" fill="#91b3fa"/>
        <path id="Rectangle_492" data-name="Rectangle 492" d="M18.293,0h0A18.293,18.293,0,0,1,36.586,18.293V217.974a18.293,18.293,0,0,1-18.293,18.293h0A18.293,18.293,0,0,1,0,217.974V18.293A18.293,18.293,0,0,1,18.293,0Z" transform="translate(256.898 126.889)" fill="#91b3fa"/>
      </g>
    </g>
    <g id="Group_777" data-name="Group 777" transform="translate(124.518 32.825)">
      <g id="Group_776" data-name="Group 776" clip-path="url(#clip-path-16)">
        <rect id="Rectangle_494" data-name="Rectangle 494" width="208.682" height="206.756" transform="translate(-42.441 41.519) rotate(-44.37)" fill="url(#linear-gradient-4)"/>
      </g>
    </g>
    <g id="Group_779" data-name="Group 779" transform="translate(118.728 111.041)">
      <g id="Group_778" data-name="Group 778" clip-path="url(#clip-path-17)">
        <rect id="Rectangle_495" data-name="Rectangle 495" width="17.272" height="17.272" transform="matrix(0.715, -0.699, 0.699, 0.715, -6.106, 5.973)" fill="url(#linear-gradient-5)"/>
      </g>
    </g>
    <g id="Group_781" data-name="Group 781" transform="translate(175.145 80.215)">
      <g id="Group_780" data-name="Group 780" clip-path="url(#clip-path-18)">
        <rect id="Rectangle_496" data-name="Rectangle 496" width="17.272" height="17.272" transform="matrix(0.715, -0.699, 0.699, 0.715, -6.106, 5.973)" fill="url(#linear-gradient-6)"/>
      </g>
    </g>
    <g id="Group_783" data-name="Group 783" transform="translate(228.073 102.316)">
      <g id="Group_782" data-name="Group 782" clip-path="url(#clip-path-19)">
        <rect id="Rectangle_497" data-name="Rectangle 497" width="17.272" height="17.272" transform="matrix(0.715, -0.699, 0.699, 0.715, -6.106, 5.973)" fill="url(#linear-gradient-7)"/>
      </g>
    </g>
    <g id="Group_785" data-name="Group 785" transform="translate(272.276 58.695)">
      <g id="Group_784" data-name="Group 784" clip-path="url(#clip-path-20)">
        <rect id="Rectangle_498" data-name="Rectangle 498" width="17.272" height="17.272" transform="translate(-6.106 5.973) rotate(-44.37)" fill="url(#linear-gradient-8)"/>
      </g>
    </g>
    <g id="Group_787" data-name="Group 787" transform="translate(326.948 27.287)">
      <g id="Group_786" data-name="Group 786" clip-path="url(#clip-path-21)">
        <rect id="Rectangle_499" data-name="Rectangle 499" width="17.272" height="17.272" transform="matrix(0.715, -0.699, 0.699, 0.715, -6.106, 5.973)" fill="url(#linear-gradient-9)"/>
      </g>
    </g>
    <g id="Group_789" data-name="Group 789" transform="translate(232.832 112.987)">
      <g id="Group_788" data-name="Group 788" clip-path="url(#clip-path-22)">
        <rect id="Rectangle_500" data-name="Rectangle 500" width="282.79" height="241.49" transform="matrix(0.509, -0.861, 0.861, 0.509, -109.452, 185.339)" fill="#0176ff"/>
      </g>
    </g>
    <g id="Group_800" data-name="Group 800">
      <g id="Group_799" data-name="Group 799" clip-path="url(#clip-path)">
        <g id="Group_792" data-name="Group 792" transform="translate(296.447 119.111)" opacity="0.63">
          <g id="Group_791" data-name="Group 791">
            <g id="Group_790" data-name="Group 790" clip-path="url(#clip-path-24)">
              <path id="Path_564" data-name="Path 564" d="M2239.179,978.885a.661.661,0,0,1-.523-1.065l59.575-77.41a2.489,2.489,0,0,1,4.446,1.8l-1.051,9.279a.661.661,0,1,1-1.313-.149l1.051-9.279a1.167,1.167,0,0,0-2.085-.843l-59.575,77.41a.66.66,0,0,1-.524.258" transform="translate(-2238.519 -899.43)" fill="#fff"/>
            </g>
          </g>
        </g>
        <path id="Path_565" data-name="Path 565" d="M2086.978,1732.582c-21.069,9.341-77.035,41.665-101.2,128.795,0,0,32.6.546,57.05-51.727,20.914-44.7,32.941-62.764,45.748-74.654a1.468,1.468,0,0,0-1.6-2.413" transform="translate(-1722.804 -1503.017)" fill="#97ddee"/>
        <g id="Group_795" data-name="Group 795" transform="translate(266.858 246.113)" opacity="0.51">
          <g id="Group_794" data-name="Group 794">
            <g id="Group_793" data-name="Group 793" clip-path="url(#clip-path-25)">
              <path id="Path_566" data-name="Path 566" d="M2015.109,1965.748s.039-.124.113-.365.189-.6.344-1.062c.3-.929.77-2.283,1.4-3.991.616-1.715,1.432-3.77,2.377-6.125s2.094-4.976,3.371-7.826c1.3-2.839,2.749-5.9,4.35-9.1,1.639-3.181,3.36-6.544,5.281-9.945l1.448-2.574,1.515-2.585c1.006-1.741,2.083-3.469,3.158-5.216s2.21-3.478,3.332-5.225c1.156-1.726,2.283-3.48,3.471-5.194s2.348-3.447,3.593-5.112l1.833-2.512c.613-.832,1.247-1.646,1.866-2.465l1.862-2.438,1.893-2.375c1.235-1.59,2.534-3.1,3.8-4.589,1.25-1.5,2.543-2.931,3.8-4.336s2.506-2.756,3.75-4.049c.622-.646,1.223-1.293,1.838-1.911l1.831-1.809,1.769-1.747c.58-.57,1.178-1.1,1.748-1.638,1.162-1.049,2.242-2.087,3.328-3.012l3.076-2.632.714-.606.713-.56,1.349-1.059,2.374-1.863,4.661-3.323a.347.347,0,0,1,.429.545l-.012.01-4.31,3.708-2.208,2.022-1.252,1.146-.661.605-.664.648-2.871,2.789c-1.012.979-2.016,2.074-3.094,3.178-.535.557-1.1,1.108-1.643,1.7l-1.659,1.81-1.715,1.871c-.575.639-1.137,1.308-1.719,1.974l-1.765,2.028c-.607.675-1.175,1.4-1.774,2.109-1.186,1.43-2.41,2.879-3.59,4.408l-1.806,2.291c-.607.769-1.191,1.566-1.8,2.352l-1.816,2.382-1.784,2.445c-.593.821-1.2,1.636-1.789,2.471l-1.756,2.518c-1.182,1.676-2.322,3.391-3.484,5.091s-2.262,3.442-3.392,5.154c-1.1,1.735-2.193,3.459-3.255,5.187-2.113,3.462-4.186,6.875-6.122,10.22l-2.854,4.927c-.927,1.613-1.808,3.207-2.673,4.754-1.709,3.106-3.352,6.033-4.785,8.778-1.484,2.72-2.787,5.245-3.954,7.478s-2.156,4.2-2.986,5.807l-2.552,5.091,0,0a.348.348,0,0,1-.644-.259" transform="translate(-2015.093 -1858.438)" fill="#81c8d9"/>
            </g>
          </g>
        </g>
        <path id="Path_567" data-name="Path 567" d="M1990.207,2368.742s8.767-34.373,56.718-38.995c32-3.084,42.169-10.91,45.157-14.353a.528.528,0,0,1,.923.423c-1,6.488-6.393,26.54-35.451,38.253-35.02,14.116-52.565,3.017-67.347,14.673" transform="translate(-1726.644 -2008.606)" fill="#97ddee"/>
        <g id="Group_798" data-name="Group 798" transform="translate(265.971 320.985)" opacity="0.51">
          <g id="Group_797" data-name="Group 797">
            <g id="Group_796" data-name="Group 796" clip-path="url(#clip-path-26)">
              <path id="Path_568" data-name="Path 568" d="M2008.454,2456.267s.263-.293.782-.805,1.286-1.262,2.309-2.161,2.288-1.967,3.789-3.132,3.248-2.412,5.2-3.711,4.142-2.6,6.521-3.865a78.972,78.972,0,0,1,7.7-3.582,67.946,67.946,0,0,1,8.677-2.818,63.565,63.565,0,0,1,9.318-1.627c.793-.058,1.583-.152,2.378-.18l2.38-.086,2.375.033c.789.021,1.575.094,2.357.14l4.466.285c1.509.147,2.882.056,4.284.086l1.041.005.518,0,.516-.034,2.044-.144,1.008-.071.5-.035c.165-.019.327-.048.49-.071l1.93-.291a38.681,38.681,0,0,0,7.016-1.71,6.734,6.734,0,0,0,.774-.295l.751-.305c.491-.21.993-.379,1.446-.609l1.325-.68c.214-.113.431-.215.635-.331l.585-.369,1.123-.7c.346-.246.672-.5.991-.729a20.121,20.121,0,0,0,1.672-1.389c.466-.459.892-.869,1.23-1.252s.623-.716.823-1c.217-.28.365-.5.464-.655s.141-.226.141-.226a.256.256,0,0,1,.469.2v0s-.037.1-.118.277a8.379,8.379,0,0,1-.384.76,17.047,17.047,0,0,1-1.834,2.639,21.5,21.5,0,0,1-1.586,1.662c-.307.284-.622.589-.96.891l-1.109.863-.587.452c-.2.144-.421.274-.637.415l-1.341.857c-.461.292-.969.521-1.472.794-.511.254-1.019.561-1.573.778a40.655,40.655,0,0,1-7.317,2.372l-2.032.418c-.172.034-.344.074-.518.1l-.523.065-1.057.133-2.151.268-.546.065-.554.028-1.116.056c-1.486.062-3.052.183-4.513.1l-2.242-.061-2.3-.08a53.549,53.549,0,0,0-8.88.273,66.745,66.745,0,0,0-8.78,1.575,81.513,81.513,0,0,0-8.308,2.533,113.878,113.878,0,0,0-14.165,6.333c-2.029,1.053-3.833,2.123-5.448,3.054-1.606.946-2.983,1.815-4.121,2.53s-2.01,1.311-2.608,1.715l-.909.625a.258.258,0,0,1-.338-.384" transform="translate(-2008.389 -2423.814)" fill="#81c8d9"/>
            </g>
          </g>
        </g>
      </g>
    </g>
    <g id="Group_802" data-name="Group 802" transform="translate(176.866 228.151)">
      <g id="Group_801" data-name="Group 801" clip-path="url(#clip-path-27)">
        <rect id="Rectangle_505" data-name="Rectangle 505" width="152.372" height="165.519" transform="translate(-59.192 35.159) rotate(-30.71)" fill="#0176ff"/>
      </g>
    </g>
    <g id="Group_804" data-name="Group 804" transform="translate(81.857 215.82)">
      <g id="Group_803" data-name="Group 803" clip-path="url(#clip-path-28)">
        <rect id="Rectangle_506" data-name="Rectangle 506" width="193.59" height="189.041" transform="translate(-68.443 99.243) rotate(-55.408)" fill="#0176ff"/>
      </g>
    </g>
    <g id="Group_806" data-name="Group 806" transform="translate(5.435 259.759)">
      <g id="Group_805" data-name="Group 805" clip-path="url(#clip-path-29)">
        <rect id="Rectangle_507" data-name="Rectangle 507" width="157.802" height="157.802" transform="translate(-51.771 51.771) rotate(-45)" fill="#0176ff"/>
      </g>
    </g>
    <g id="Group_811" data-name="Group 811">
      <g id="Group_810" data-name="Group 810" clip-path="url(#clip-path)">
        <g id="Group_809" data-name="Group 809" transform="translate(356.672 140.046)" opacity="0.63">
          <g id="Group_808" data-name="Group 808">
            <g id="Group_807" data-name="Group 807" clip-path="url(#clip-path-31)">
              <path id="Path_572" data-name="Path 572" d="M2693.948,1063.033a.662.662,0,0,1-.658-.736l.476-4.2a.661.661,0,1,1,1.314.149l-.475,4.2a.662.662,0,0,1-.656.587" transform="translate(-2693.287 -1057.511)" fill="#fff"/>
            </g>
          </g>
        </g>
      </g>
    </g>
    <g id="Group_813" data-name="Group 813" transform="translate(171.258 161.569)">
      <g id="Group_812" data-name="Group 812" clip-path="url(#clip-path-32)">
        <rect id="Rectangle_510" data-name="Rectangle 510" width="55.77" height="66.312" transform="matrix(0.929, -0.37, 0.37, 0.929, -19.407, 7.737)" fill="url(#linear-gradient-10)"/>
      </g>
    </g>
    <g id="Group_815" data-name="Group 815" transform="translate(129.41 145.271)">
      <g id="Group_814" data-name="Group 814" clip-path="url(#clip-path-33)">
        <rect id="Rectangle_511" data-name="Rectangle 511" width="57.151" height="68.265" transform="translate(-21.517 9.457) rotate(-23.726)" fill="url(#linear-gradient-11)"/>
      </g>
    </g>
    <g id="Group_817" data-name="Group 817" transform="translate(219.301 353.324)">
      <g id="Group_816" data-name="Group 816" clip-path="url(#clip-path-34)">
        <rect id="Rectangle_512" data-name="Rectangle 512" width="11.713" height="9.632" transform="translate(-0.118)" fill="url(#linear-gradient-12)"/>
      </g>
    </g>
    <g id="Group_819" data-name="Group 819" transform="translate(168.881 293.308)">
      <g id="Group_818" data-name="Group 818" clip-path="url(#clip-path-35)">
        <rect id="Rectangle_513" data-name="Rectangle 513" width="69.404" height="21.662" transform="matrix(0.085, -0.996, 0.996, 0.085, -5.801, 67.801)" fill="url(#linear-gradient-13)"/>
      </g>
    </g>
    <g id="Group_821" data-name="Group 821" transform="translate(166.676 349.039)">
      <g id="Group_820" data-name="Group 820" clip-path="url(#clip-path-36)">
        <rect id="Rectangle_514" data-name="Rectangle 514" width="19.081" height="13.924" transform="translate(-0.47 0)" fill="url(#linear-gradient-14)"/>
      </g>
    </g>
    <g id="Group_823" data-name="Group 823" transform="translate(193.397 293.654)">
      <g id="Group_822" data-name="Group 822" clip-path="url(#clip-path-37)">
        <rect id="Rectangle_515" data-name="Rectangle 515" width="68.68" height="40.759" transform="translate(-5.599 65.434) rotate(-85.11)" fill="url(#linear-gradient-15)"/>
      </g>
    </g>
    <g id="Group_825" data-name="Group 825" transform="translate(153.736 191.111)">
      <g id="Group_824" data-name="Group 824" clip-path="url(#clip-path-38)">
        <rect id="Rectangle_516" data-name="Rectangle 516" width="41.739" height="53.693" transform="matrix(0.994, -0.107, 0.107, 0.994, -6.852, 0.575)" fill="url(#linear-gradient-16)"/>
      </g>
    </g>
    <g id="Group_827" data-name="Group 827" transform="translate(162.663 235.608)">
      <g id="Group_826" data-name="Group 826" clip-path="url(#clip-path-39)">
        <rect id="Rectangle_517" data-name="Rectangle 517" width="74.247" height="56.781" transform="translate(-16.186 62.274) rotate(-76.139)" fill="url(#linear-gradient-17)"/>
      </g>
    </g>
    <g id="Group_829" data-name="Group 829" transform="translate(167.396 175.311)">
      <g id="Group_828" data-name="Group 828" clip-path="url(#clip-path-40)">
        <rect id="Rectangle_518" data-name="Rectangle 518" width="23.179" height="15.296" transform="matrix(0.135, -0.991, 0.991, 0.135, -3.028, 21.291)" fill="url(#linear-gradient-18)"/>
      </g>
    </g>
    <g id="Group_831" data-name="Group 831" transform="translate(182.271 202.315)">
      <g id="Group_830" data-name="Group 830" clip-path="url(#clip-path-41)">
        <rect id="Rectangle_519" data-name="Rectangle 519" width="55.489" height="47.485" transform="translate(-13.414 43.178) rotate(-72.933)" fill="url(#linear-gradient-19)"/>
      </g>
    </g>
    <g id="Group_833" data-name="Group 833" transform="translate(160.815 159.319)">
      <g id="Group_832" data-name="Group 832" clip-path="url(#clip-path-42)">
        <rect id="Rectangle_520" data-name="Rectangle 520" width="28.85" height="29.681" transform="translate(-10.438 15.508) rotate(-60.668)" fill="url(#linear-gradient-20)"/>
      </g>
    </g>
    <g id="Group_835" data-name="Group 835" transform="translate(165.37 153.095)">
      <g id="Group_834" data-name="Group 834" clip-path="url(#clip-path-43)">
        <rect id="Rectangle_521" data-name="Rectangle 521" width="30.849" height="33.615" transform="translate(-11.706 3.741) rotate(-21.735)" fill="url(#linear-gradient-21)"/>
      </g>
    </g>
    <g id="Group_837" data-name="Group 837" transform="translate(174.932 168.895)">
      <g id="Group_836" data-name="Group 836" clip-path="url(#clip-path-44)">
        <rect id="Rectangle_522" data-name="Rectangle 522" width="8.761" height="8.956" transform="translate(-2.669 4.75) rotate(-60.668)" fill="url(#linear-gradient-22)"/>
      </g>
    </g>
    <g id="Group_839" data-name="Group 839" transform="translate(121.734 131.317)">
      <g id="Group_838" data-name="Group 838" clip-path="url(#clip-path-45)">
        <rect id="Rectangle_523" data-name="Rectangle 523" width="21.061" height="25.417" transform="translate(-8.7 3.542) rotate(-23.726)" fill="url(#linear-gradient-23)"/>
      </g>
    </g>
    <g id="Group_841" data-name="Group 841" transform="translate(126.304 139.658)">
      <g id="Group_840" data-name="Group 840" clip-path="url(#clip-path-46)">
        <rect id="Rectangle_524" data-name="Rectangle 524" width="5.841" height="9.372" transform="translate(-0.083)" fill="url(#linear-gradient-24)"/>
      </g>
    </g>
  </g>
</svg>
