<svg id="Group_8" data-name="Group 8" xmlns="http://www.w3.org/2000/svg" xmlns:xlink="http://www.w3.org/1999/xlink" width="41.275" height="45.166" viewBox="0 0 41.275 45.166">
  <defs>
    <clipPath id="clip-path">
      <rect id="Rectangle_2" data-name="Rectangle 2" width="41.275" height="45.166" fill="#fff"/>
    </clipPath>
  </defs>
  <g id="Group_7" data-name="Group 7" clip-path="url(#clip-path)">
    <path id="Path_31" data-name="Path 31" d="M40.762,0a1.331,1.331,0,0,1,.513,1.222c-.011,3.69-.006,7.379-.006,11.069,0,.937-.262,1.195-1.211,1.195L1.2,13.494c-.927,0-1.194-.27-1.194-1.209,0-3.7,0-7.409-.006-11.113A1.259,1.259,0,0,1,.528,0ZM15.918,11.853h23.7V1.6h-23.7ZM1.685,11.82H14.272V1.609H1.685Z" transform="translate(0)" fill="#fff"/>
    <path id="Path_32" data-name="Path 32" d="M20.709,156.649H1.35c-1.04,0-1.295-.256-1.3-1.3q0-5.534,0-11.068c0-.879.3-1.181,1.191-1.181q6.77,0,13.539,0,12.612.012,25.225.031c.176,0,.353,0,.528.017a.749.749,0,0,1,.743.68,2.943,2.943,0,0,1,.035.481q0,5.556,0,11.112c0,.948-.248,1.195-1.2,1.195h-19.4c0,.01,0,.021,0,.031M39.68,144.781H15.968v10.2H39.68ZM1.742,154.967H14.315v-10.2H1.742Z" transform="translate(-0.048 -127.291)" fill="#fff"/>
    <path id="Path_33" data-name="Path 33" d="M20.646,300.213H1.11c-.771,0-1.057-.282-1.058-1.058q0-5.666,0-11.331c0-.809.3-1.1,1.124-1.1l38.983.008c.882,0,1.155.274,1.155,1.161q0,5.6,0,11.2c0,.861-.268,1.123-1.133,1.124H20.646m19.052-1.6v-.472c0-3.1-.007-6.2.009-9.305,0-.4-.1-.517-.511-.516q-11.38.019-22.76.009h-.472v10.285ZM1.74,298.6H14.318V288.386H1.74Z" transform="translate(-0.046 -255.047)" fill="#fff"/>
    <path id="Path_34" data-name="Path 34" d="M165.709,35.874c2.2,0,4.407,0,6.61,0,.729,0,1.17.6.815,1.146a1.227,1.227,0,0,1-.709.423,4.291,4.291,0,0,1-.965.019H159.341a3.036,3.036,0,0,1-.44-.013.808.808,0,0,1-.71-.819.771.771,0,0,1,.775-.748c1.028-.017,2.056-.009,3.085-.01h3.658" transform="translate(-140.716 -31.91)" fill="#fff"/>
    <path id="Path_35" data-name="Path 35" d="M216.013,71.725c2.189,0,4.377,0,6.566,0,.716,0,1.129.538.869,1.107a.855.855,0,0,1-.866.486c-.837,0-1.674,0-2.512,0H209.627a2.659,2.659,0,0,1-.483-.023.783.783,0,0,1-.672-.844.756.756,0,0,1,.755-.714c.749-.022,1.5-.013,2.247-.014q2.269,0,4.539,0" transform="translate(-185.441 -63.8)" fill="#fff"/>
    <path id="Path_36" data-name="Path 36" d="M160.179,73.289c-.381,0-.762.013-1.143,0a.809.809,0,0,1-.845-.824.794.794,0,0,1,.853-.761q1.12-.021,2.242,0a.79.79,0,0,1,.864.792.808.808,0,0,1-.872.8c-.366.013-.732,0-1.1,0" transform="translate(-140.716 -63.77)" fill="#fff"/>
    <path id="Path_37" data-name="Path 37" d="M310.926,35.882c.4,0,.791-.013,1.186,0a.786.786,0,1,1,.018,1.572q-1.207.034-2.416,0a.762.762,0,0,1-.76-.8.775.775,0,0,1,.786-.773c.029,0,.058,0,.088,0h1.1v0" transform="translate(-274.823 -31.914)" fill="#fff"/>
    <path id="Path_38" data-name="Path 38" d="M32.536,33.926c1.578-1.579,3.137-3.139,4.7-4.7a3.108,3.108,0,0,1,.392-.354.768.768,0,0,1,1.006.086.783.783,0,0,1,.079,1.006,2.318,2.318,0,0,1-.26.3Q35.817,32.9,33.182,35.54a.807.807,0,0,1-1.3.016c-.73-.725-1.471-1.441-2.168-2.2a1.178,1.178,0,0,1-.316-.805.763.763,0,0,1,1.342-.4c.5.456.961.951,1.441,1.428.113.112.23.22.358.343" transform="translate(-26.145 -25.553)" fill="#fff"/>
    <path id="Path_39" data-name="Path 39" d="M215.968,215.012h6.39c.76,0,1.187.3,1.174.827s-.421.794-1.161.794H209.634c-.787,0-1.17-.275-1.16-.825.01-.531.388-.8,1.147-.8h6.346" transform="translate(-185.444 -191.26)" fill="#fff"/>
    <path id="Path_40" data-name="Path 40" d="M165.683,180.792h-6.259c-.118,0-.236.007-.353,0a.843.843,0,0,1-.882-.8c-.006-.446.328-.761.865-.813.087-.008.176-.005.264-.005q6.391,0,12.782,0a2.415,2.415,0,0,1,.566.06.771.771,0,0,1,.015,1.488,2.509,2.509,0,0,1-.608.068q-3.2.007-6.391,0" transform="translate(-140.715 -159.377)" fill="#fff"/>
    <path id="Path_41" data-name="Path 41" d="M160.14,216.556c-.352,0-.7.017-1.055,0-.565-.033-.906-.362-.892-.826a.824.824,0,0,1,.892-.783c.732-.021,1.466-.023,2.2,0a.8.8,0,1,1,0,1.6c-.38.024-.762,0-1.143,0v0" transform="translate(-140.717 -191.184)" fill="#fff"/>
    <path id="Path_42" data-name="Path 42" d="M310.891,180.724c-.366,0-.734.018-1.1,0a.811.811,0,0,1-.863-.806.793.793,0,0,1,.865-.8c.746-.026,1.495-.026,2.241,0a.825.825,0,0,1,.854.777.863.863,0,0,1-.856.829.836.836,0,0,1-.088,0h-1.055Z" transform="translate(-274.803 -159.312)" fill="#fff"/>
    <path id="Path_43" data-name="Path 43" d="M32.194,177.423l3.519-3.533c.446-.448.889-.9,1.342-1.339a.811.811,0,1,1,1.127,1.127q-2.675,2.686-5.36,5.363a.8.8,0,0,1-1.268,0q-1.079-1.071-2.146-2.156c-.462-.469-.51-.9-.151-1.269s.813-.317,1.269.135c.551.546,1.1,1.1,1.668,1.674" transform="translate(-25.814 -153.183)" fill="#fff"/>
    <path id="Path_44" data-name="Path 44" d="M165.737,324.285q-3.173,0-6.346,0a2.932,2.932,0,0,1-.527-.025.737.737,0,0,1-.636-.69.709.709,0,0,1,.451-.78,1.6,1.6,0,0,1,.6-.1q6.478-.008,12.956,0a1.805,1.805,0,0,1,.394.029.814.814,0,0,1,.65.826.781.781,0,0,1-.756.724c-.484.024-.969.014-1.454.015q-2.666,0-5.332,0" transform="translate(-140.743 -287.041)" fill="#fff"/>
    <path id="Path_45" data-name="Path 45" d="M216.021,358.569c2.189,0,4.377,0,6.566,0,.678,0,1.073.474.889,1.034a.736.736,0,0,1-.674.542c-.146.014-.293.01-.44.011H209.627c-.132,0-.265,0-.4-.007a.776.776,0,0,1-.756-.764.785.785,0,0,1,.718-.806,5.6,5.6,0,0,1,.66-.012h6.169" transform="translate(-185.444 -318.955)" fill="#fff"/>
    <path id="Path_46" data-name="Path 46" d="M160.158,360.129c-.4,0-.792.014-1.186,0a.784.784,0,0,1-.035-1.566c.819-.028,1.641-.028,2.46,0a.77.77,0,0,1,.754.812.782.782,0,0,1-.806.758c-.395.014-.791,0-1.186,0v0" transform="translate(-140.717 -318.93)" fill="#fff"/>
    <path id="Path_47" data-name="Path 47" d="M310.9,324.257c-.4,0-.792.016-1.186,0a.753.753,0,0,1-.762-.747.745.745,0,0,1,.7-.812c.848-.036,1.7-.035,2.547,0a.781.781,0,0,1-.066,1.559c-.409.02-.82,0-1.23,0" transform="translate(-274.823 -287.022)" fill="#fff"/>
    <path id="Path_48" data-name="Path 48" d="M32.461,320.787l1.885-1.887q1.466-1.466,2.934-2.929a1.92,1.92,0,0,1,.448-.349.7.7,0,0,1,.881.182.717.717,0,0,1,.122.892,1.822,1.822,0,0,1-.329.41q-2.615,2.625-5.235,5.244a.824.824,0,0,1-1.336.007c-.718-.716-1.451-1.42-2.14-2.163a1.209,1.209,0,0,1-.335-.8.763.763,0,0,1,1.331-.426c.47.421.9.884,1.347,1.334.144.146.27.308.426.488" transform="translate(-26.111 -280.678)" fill="#fff"/>
  </g>
</svg>
