<?xml version="1.0" encoding="UTF-8"?> <svg xmlns="http://www.w3.org/2000/svg" width="40" height="40" viewBox="0 0 40 40" fill="none"><g clip-path="url(#clip0_11_298)"><path d="M29.3234 32.6564L29.3209 32.6589C28.7869 33.2069 27.8804 33.2102 27.3267 32.6566L23.0035 28.3333L24.9999 26.3369L29.3232 30.6601L29.3234 30.6603C29.4546 30.7913 29.5587 30.9468 29.6298 31.1181C29.7008 31.2894 29.7374 31.4729 29.7374 31.6583C29.7374 31.8438 29.7008 32.0273 29.6298 32.1986C29.5587 32.3699 29.4546 32.5254 29.3234 32.6564ZM14.5166 13.0833L14.5151 13.0834C14.4 13.084 14.2872 13.0506 14.191 12.9873C14.0948 12.924 14.0195 12.8336 13.9746 12.7275C13.9297 12.6215 13.9171 12.5045 13.9386 12.3914C13.96 12.2786 14.0142 12.1746 14.0944 12.0925C14.0946 12.0922 14.0949 12.092 14.0951 12.0917L19.5767 6.61013C19.8124 6.37442 20.1708 6.37442 20.4065 6.61013L25.8898 12.0935L25.8898 12.0935L25.8927 12.0962C26.2619 12.4539 26.0125 13.0833 25.4833 13.0833H21.6666H21.4166V13.3333V23.8965L12.6565 32.6566C12.3918 32.9213 12.0327 33.07 11.6583 33.07C11.2839 33.07 10.9248 32.9213 10.6601 32.6566C10.3953 32.3918 10.2466 32.0328 10.2466 31.6583C10.2466 31.2839 10.3953 30.9249 10.6601 30.6601L18.5099 22.827L18.5833 22.7537V22.65V13.3333V13.0833H18.3333L14.5166 13.0833Z" fill="#0047FF" stroke="white" stroke-width="0.5"></path></g><defs><clipPath id="clip0_11_298"><rect width="40" height="40" fill="white"></rect></clipPath></defs></svg> 