<?xml version="1.0" encoding="UTF-8"?> <svg xmlns="http://www.w3.org/2000/svg" width="40" height="40" viewBox="0 0 40 40" fill="none"><g clip-path="url(#clip0_28_124)"><path d="M29.85 26.6667V26.7289L29.8939 26.7728L33.1833 30.0622V31.5167H6.81663V30.0622L10.106 26.7728L10.15 26.7289V26.6667V18.3334C10.15 13.2527 12.8507 9.05967 17.5347 7.94601L17.65 7.9186V7.80008V6.66675C17.65 5.36626 18.6995 4.31675 20 4.31675C21.3005 4.31675 22.35 5.36626 22.35 6.66675V7.80008V7.91869L22.4654 7.94604C27.1655 9.05966 29.85 13.2689 29.85 18.3334V26.6667ZM26.6666 28.4834H26.8166V28.3334V18.3334C26.8166 16.2373 26.1785 14.3263 25.0041 12.9366C23.8277 11.5445 22.1191 10.6834 20 10.6834C17.8809 10.6834 16.1723 11.5445 14.9958 12.9366C13.8214 14.3263 13.1833 16.2373 13.1833 18.3334V28.3334V28.4834H13.3333H26.6666ZM23.1798 33.4834C23.1007 35.165 21.7002 36.5167 20 36.5167C18.2997 36.5167 16.8992 35.165 16.8202 33.4834H23.1798ZM3.54071 17.3501C3.81374 12.174 6.36809 7.61181 10.237 4.6159L12.4023 6.78124C10.7212 8.00406 9.32781 9.58097 8.32115 11.4015C7.30872 13.2324 6.71292 15.2636 6.57549 17.3501H3.54071ZM27.6132 6.78141L29.7631 4.61637C33.6155 7.61223 36.1697 12.1742 36.4587 17.3501H33.4242C33.283 15.2664 32.6873 13.2383 31.6783 11.4084C30.6749 9.58867 29.2875 8.00994 27.6132 6.78141Z" fill="#0047FF" stroke="white" stroke-width="0.3"></path></g><defs><clipPath id="clip0_28_124"><rect width="40" height="40" fill="white"></rect></clipPath></defs></svg> 