<?xml version="1.0" encoding="UTF-8"?> <svg xmlns="http://www.w3.org/2000/svg" width="40" height="40" viewBox="0 0 40 40" fill="none"><path d="M17.8367 19C19.2266 17.5731 20.0004 15.6875 20 13.7282C20 9.45996 16.4184 6 12 6V13.7282L17.8367 19Z" fill="#DBE5FF"></path><path d="M12.5131 14L8 20.3899C9.47964 21.5787 11.3211 22.1416 13.1682 21.9696C15.0153 21.7977 16.7369 20.9031 18 19.4589L12.5131 14Z" fill="#A3BCFF"></path><path d="M12 33H8V39H12V33Z" fill="#DBE5FF"></path><path d="M17 30H22V39H17V30Z" fill="#A3BCFF"></path><path d="M12.5692 22.5966C17.4127 22.5966 21.1384 18.5204 21.1384 13.7973C21.1384 8.94673 17.2935 5 12.5682 5C7.84301 5 4 8.94673 4 13.7983C4 18.8051 8.00491 22.5966 12.5692 22.5966ZM12.5692 20.6058C11.4643 20.6074 10.3771 20.3218 9.40871 19.7756L12.6952 15.2824L16.6934 19.1206C15.5252 20.0866 14.0691 20.6109 12.5692 20.6058ZM19.1995 13.7973C19.2002 15.1809 18.7874 16.5314 18.0167 17.6664L13.5377 13.3663V7.06245C16.737 7.54522 19.1995 10.3811 19.1995 13.7973ZM11.5988 7.06345V13.4658L7.85852 18.5782C7.24754 17.9506 6.76341 17.2053 6.43398 16.385C6.10455 15.5647 5.93632 14.6856 5.93895 13.7983C5.93895 10.3821 8.40046 7.54721 11.5988 7.06345ZM4.97045 40H34.0305C34.2876 40 34.5342 39.8951 34.716 39.7085C34.8979 39.5218 35 39.2686 35 39.0046C35 38.7406 34.8979 38.4874 34.716 38.3008C34.5342 38.1141 34.2876 38.0092 34.0305 38.0092H32.4309V25.8654C32.4309 25.6014 32.3287 25.3482 32.1469 25.1616C31.9651 24.9749 31.7185 24.87 31.4614 24.87H26.7963C26.5392 24.87 26.2926 24.9749 26.1108 25.1616C25.9289 25.3482 25.8268 25.6014 25.8268 25.8654V38.0092H23.0483V30.0491C23.0483 29.7851 22.9461 29.5319 22.7643 29.3452C22.5825 29.1585 22.3359 29.0537 22.0788 29.0537H17.4127C17.1556 29.0537 16.909 29.1585 16.7272 29.3452C16.5454 29.5319 16.4432 29.7851 16.4432 30.0491V38.0092H13.6463V33.3846C13.6463 33.1206 13.5442 32.8674 13.3623 32.6808C13.1805 32.4941 12.9339 32.3892 12.6768 32.3892H8.01073C7.75361 32.3892 7.50701 32.4941 7.3252 32.6808C7.14339 32.8674 7.04125 33.1206 7.04125 33.3846V38.0092H4.97045C4.71333 38.0092 4.46673 38.1141 4.28492 38.3008C4.10311 38.4874 4.00097 38.7406 4.00097 39.0046C4.00097 39.2686 4.10311 39.5218 4.28492 39.7085C4.46673 39.8951 4.71333 40 4.97045 40ZM27.7658 26.8608H30.4929V38.0092H27.7638V26.8608H27.7658ZM18.3812 31.0445H21.1093V38.0092H18.3822L18.3812 31.0445ZM8.9802 34.379H11.7073V38.0092H8.9802V34.379Z" fill="#0047FF"></path></svg> 