<?xml version="1.0" encoding="UTF-8"?> <svg xmlns="http://www.w3.org/2000/svg" width="40" height="40" viewBox="0 0 40 40" fill="none"><path d="M6.25 32.5H18.75C19.0815 32.5 19.3995 32.3683 19.6339 32.1339C19.8683 31.8995 20 31.5815 20 31.25C20 30.9185 19.8683 30.6005 19.6339 30.3661C19.3995 30.1317 19.0815 30 18.75 30H6.25C5.91858 29.9997 5.60083 29.8679 5.36648 29.6335C5.13213 29.3992 5.00033 29.0814 5 28.75V6.25C5.00033 5.91858 5.13213 5.60083 5.36648 5.36648C5.60083 5.13213 5.91858 5.00033 6.25 5H28.75C29.0814 5.00033 29.3992 5.13213 29.6335 5.36648C29.8679 5.60083 29.9997 5.91858 30 6.25V16.25C30 16.5815 30.1317 16.8995 30.3661 17.1339C30.6005 17.3683 30.9185 17.5 31.25 17.5C31.5815 17.5 31.8995 17.3683 32.1339 17.1339C32.3683 16.8995 32.5 16.5815 32.5 16.25V6.25C32.499 5.25574 32.1036 4.30249 31.4006 3.59945C30.6975 2.8964 29.7443 2.50099 28.75 2.5H6.25C5.25574 2.50099 4.30249 2.8964 3.59945 3.59945C2.8964 4.30249 2.50099 5.25574 2.5 6.25V28.75C2.50099 29.7443 2.8964 30.6975 3.59945 31.4006C4.30249 32.1036 5.25574 32.499 6.25 32.5Z" fill="#0047FF"></path><path d="M23.7209 25.5814C23.7209 22.9768 24.6512 21.7054 25.1163 21.3954C27.7209 20.6512 33.6434 21.7054 36.2791 22.3256V31.6279C36.2791 32.7442 32.2481 34.8837 30.2326 35.814L23.7209 31.6279V25.5814Z" fill="#DBE5FF"></path><path d="M8.75 10H16.25C16.5815 10 16.8995 9.8683 17.1339 9.63388C17.3683 9.39946 17.5 9.08152 17.5 8.75C17.5 8.41848 17.3683 8.10054 17.1339 7.86612C16.8995 7.6317 16.5815 7.5 16.25 7.5H8.75C8.41848 7.5 8.10054 7.6317 7.86612 7.86612C7.6317 8.10054 7.5 8.41848 7.5 8.75C7.5 9.08152 7.6317 9.39946 7.86612 9.63388C8.10054 9.8683 8.41848 10 8.75 10ZM20 12.5H8.75C8.41848 12.5 8.10054 12.6317 7.86612 12.8661C7.6317 13.1005 7.5 13.4185 7.5 13.75C7.5 14.0815 7.6317 14.3995 7.86612 14.6339C8.10054 14.8683 8.41848 15 8.75 15H20C20.3315 15 20.6495 14.8683 20.8839 14.6339C21.1183 14.3995 21.25 14.0815 21.25 13.75C21.25 13.4185 21.1183 13.1005 20.8839 12.8661C20.6495 12.6317 20.3315 12.5 20 12.5ZM21.25 18.75C21.25 18.4185 21.1183 18.1005 20.8839 17.8661C20.6495 17.6317 20.3315 17.5 20 17.5H8.75C8.41848 17.5 8.10054 17.6317 7.86612 17.8661C7.6317 18.1005 7.5 18.4185 7.5 18.75C7.5 19.0815 7.6317 19.3995 7.86612 19.6339C8.10054 19.8683 8.41848 20 8.75 20H20C20.3315 20 20.6495 19.8683 20.8839 19.6339C21.1183 19.3995 21.25 19.0815 21.25 18.75ZM33.75 20H26.25C25.2557 20.001 24.3025 20.3964 23.5994 21.0994C22.8964 21.8025 22.501 22.7557 22.5 23.75V31.085C22.5017 31.7321 22.6701 32.3678 22.9889 32.9309C23.3076 33.494 23.7661 33.9655 24.32 34.3L28.0713 36.55C28.6536 36.9002 29.3204 37.0853 30 37.0853C30.6796 37.0853 31.3464 36.9002 31.9287 36.55L35.6787 34.3C36.233 33.9658 36.6917 33.4943 37.0107 32.9312C37.3297 32.3681 37.4983 31.7322 37.5 31.085V23.75C37.499 22.7557 37.1036 21.8025 36.4006 21.0994C35.6975 20.3964 34.7443 20.001 33.75 20ZM35 31.085C34.9992 31.3007 34.9429 31.5125 34.8365 31.7002C34.7301 31.8878 34.5772 32.0449 34.3925 32.1563L30.6425 34.4062C30.4483 34.5231 30.226 34.5848 29.9994 34.5848C29.7728 34.5848 29.5504 34.5231 29.3563 34.4062L25.6063 32.1563C25.4218 32.0447 25.2691 31.8876 25.1629 31.7C25.0568 31.5123 25.0006 31.3006 25 31.085V23.75C25.0003 23.4186 25.1321 23.1008 25.3665 22.8665C25.6008 22.6321 25.9186 22.5003 26.25 22.5H33.75C34.0814 22.5003 34.3992 22.6321 34.6335 22.8665C34.8679 23.1008 34.9997 23.4186 35 23.75V31.085Z" fill="#0047FF"></path></svg> 