<?xml version="1.0" encoding="UTF-8"?> <svg xmlns="http://www.w3.org/2000/svg" width="40" height="40" viewBox="0 0 40 40" fill="none"><path d="M10 29H6C5.20435 29 4.44129 29.3161 3.87868 29.8787C3.31607 30.4413 3 31.2044 3 32V34C3 34.7956 3.31607 35.5587 3.87868 36.1213C4.44129 36.6839 5.20435 37 6 37H10C10.7956 37 11.5587 36.6839 12.1213 36.1213C12.6839 35.5587 13 34.7956 13 34V32C13 31.2044 12.6839 30.4413 12.1213 29.8787C11.5587 29.3161 10.7956 29 10 29ZM11 34C11 34.2652 10.8946 34.5196 10.7071 34.7071C10.5196 34.8946 10.2652 35 10 35H6C5.73478 35 5.48043 34.8946 5.29289 34.7071C5.10536 34.5196 5 34.2652 5 34V32C5 31.7348 5.10536 31.4804 5.29289 31.2929C5.48043 31.1054 5.73478 31 6 31H10C10.2652 31 10.5196 31.1054 10.7071 31.2929C10.8946 31.4804 11 31.7348 11 32V34Z" fill="#0047FF"></path><path d="M33.3 29H29.7C28.9839 29 28.2972 29.3161 27.7908 29.8787C27.2845 30.4413 27 31.2044 27 32V34C27 34.7956 27.2845 35.5587 27.7908 36.1213C28.2972 36.6839 28.9839 37 29.7 37H33.3C34.0161 37 34.7028 36.6839 35.2092 36.1213C35.7155 35.5587 36 34.7956 36 34V32C36 31.2044 35.7155 30.4413 35.2092 29.8787C34.7028 29.3161 34.0161 29 33.3 29ZM34.2 34C34.2 34.2652 34.1052 34.5196 33.9364 34.7071C33.7676 34.8946 33.5387 35 33.3 35H29.7C29.4613 35 29.2324 34.8946 29.0636 34.7071C28.8948 34.5196 28.8 34.2652 28.8 34V32C28.8 31.7348 28.8948 31.4804 29.0636 31.2929C29.2324 31.1054 29.4613 31 29.7 31H33.3C33.5387 31 33.7676 31.1054 33.9364 31.2929C34.1052 31.4804 34.2 31.7348 34.2 32V34Z" fill="#0047FF"></path><path d="M12.5 8.5C12.1 4.9 13.6667 3.33333 14.5 3H21.5C25 3 27 4 27 7.5C27 10.3 26.6667 15.3333 26.5 17.5L14 18C13.6667 16.3333 12.9 12.1 12.5 8.5Z" fill="#DBE5FF"></path><path d="M21.7 29H17.3C16.4248 29 15.5854 29.3161 14.9665 29.8787C14.3477 30.4413 14 31.2044 14 32V34C14 34.7956 14.3477 35.5587 14.9665 36.1213C15.5854 36.6839 16.4248 37 17.3 37H21.7C22.5752 37 23.4146 36.6839 24.0335 36.1213C24.6523 35.5587 25 34.7956 25 34V32C25 31.2044 24.6523 30.4413 24.0335 29.8787C23.4146 29.3161 22.5752 29 21.7 29ZM22.8 34C22.8 34.2652 22.6841 34.5196 22.4778 34.7071C22.2715 34.8946 21.9917 35 21.7 35H17.3C17.0083 35 16.7285 34.8946 16.5222 34.7071C16.3159 34.5196 16.2 34.2652 16.2 34V32C16.2 31.7348 16.3159 31.4804 16.5222 31.2929C16.7285 31.1054 17.0083 31 17.3 31H21.7C21.9917 31 22.2715 31.1054 22.4778 31.2929C22.6841 31.4804 22.8 31.7348 22.8 32V34Z" fill="#0047FF"></path><path d="M25.2198 2H14.7802C14.0305 2.01489 13.3174 2.30924 12.7966 2.81881C12.2758 3.32839 11.9896 4.01182 12.0003 4.72V16.28C11.9896 16.9882 12.2758 17.6716 12.7966 18.1812C13.3174 18.6908 14.0305 18.9851 14.7802 19H25.2198C25.9695 18.9851 26.6826 18.6908 27.2034 18.1812C27.7242 17.6716 28.0104 16.9882 27.9997 16.28V4.72C28.0104 4.01182 27.7242 3.32839 27.2034 2.81881C26.6826 2.30924 25.9695 2.01489 25.2198 2ZM25.9998 16.28C26.0108 16.4874 25.9353 16.6906 25.7895 16.846C25.6436 17.0013 25.4391 17.0965 25.2198 17.1111H14.7802C14.5609 17.0965 14.3564 17.0013 14.2105 16.846C14.0647 16.6906 13.9892 16.4874 14.0002 16.28V4.72C13.9892 4.51262 14.0647 4.30943 14.2105 4.15404C14.3564 3.99866 14.5609 3.90346 14.7802 3.88889H25.2198C25.4391 3.90346 25.6436 3.99866 25.7895 4.15404C25.9353 4.30943 26.0108 4.51262 25.9998 4.72V16.28Z" fill="#0047FF"></path><path opacity="0.5" d="M28.3462 23.5714H20.3846V18.9286C20.3846 18.6823 20.2914 18.4461 20.1255 18.272C19.9596 18.0978 19.7346 18 19.5 18C19.2654 18 19.0404 18.0978 18.8745 18.272C18.7086 18.4461 18.6154 18.6823 18.6154 18.9286V23.5714H10.6538C9.95 23.5714 9.27499 23.8649 8.77729 24.3873C8.2796 24.9098 8 25.6183 8 26.3571V30.0714C8 30.3177 8.0932 30.5539 8.2591 30.728C8.425 30.9022 8.65 31 8.88462 31C9.11923 31 9.34424 30.9022 9.51013 30.728C9.67603 30.5539 9.76923 30.3177 9.76923 30.0714V26.3571C9.76923 26.1109 9.86243 25.8747 10.0283 25.7005C10.1942 25.5264 10.4192 25.4286 10.6538 25.4286H18.6154V30.0714C18.6154 30.3177 18.7086 30.5539 18.8745 30.728C19.0404 30.9022 19.2654 31 19.5 31C19.7346 31 19.9596 30.9022 20.1255 30.728C20.2914 30.5539 20.3846 30.3177 20.3846 30.0714V25.4286H28.3462C28.5808 25.4286 28.8058 25.5264 28.9717 25.7005C29.1376 25.8747 29.2308 26.1109 29.2308 26.3571V30.0714C29.2308 30.3177 29.324 30.5539 29.4899 30.728C29.6558 30.9022 29.8808 31 30.1154 31C30.35 31 30.575 30.9022 30.7409 30.728C30.9068 30.5539 31 30.3177 31 30.0714V26.3571C31 25.6183 30.7204 24.9098 30.2227 24.3873C29.725 23.8649 29.05 23.5714 28.3462 23.5714Z" fill="#0047FF"></path><path opacity="0.5" d="M28.3462 23.5714H20.3846V18.9286C20.3846 18.6823 20.2914 18.4461 20.1255 18.272C19.9596 18.0978 19.7346 18 19.5 18C19.2654 18 19.0404 18.0978 18.8745 18.272C18.7086 18.4461 18.6154 18.6823 18.6154 18.9286V23.5714H10.6538C9.95 23.5714 9.27499 23.8649 8.77729 24.3873C8.2796 24.9098 8 25.6183 8 26.3571V30.0714C8 30.3177 8.0932 30.5539 8.2591 30.728C8.425 30.9022 8.65 31 8.88462 31C9.11923 31 9.34424 30.9022 9.51013 30.728C9.67603 30.5539 9.76923 30.3177 9.76923 30.0714V26.3571C9.76923 26.1109 9.86243 25.8747 10.0283 25.7005C10.1942 25.5264 10.4192 25.4286 10.6538 25.4286H18.6154V30.0714C18.6154 30.3177 18.7086 30.5539 18.8745 30.728C19.0404 30.9022 19.2654 31 19.5 31C19.7346 31 19.9596 30.9022 20.1255 30.728C20.2914 30.5539 20.3846 30.3177 20.3846 30.0714V25.4286H28.3462C28.5808 25.4286 28.8058 25.5264 28.9717 25.7005C29.1376 25.8747 29.2308 26.1109 29.2308 26.3571V30.0714C29.2308 30.3177 29.324 30.5539 29.4899 30.728C29.6558 30.9022 29.8808 31 30.1154 31C30.35 31 30.575 30.9022 30.7409 30.728C30.9068 30.5539 31 30.3177 31 30.0714V26.3571C31 25.6183 30.7204 24.9098 30.2227 24.3873C29.725 23.8649 29.05 23.5714 28.3462 23.5714Z" fill="#0047FF"></path><path opacity="0.5" d="M28.3462 23.5714H20.3846V18.9286C20.3846 18.6823 20.2914 18.4461 20.1255 18.272C19.9596 18.0978 19.7346 18 19.5 18C19.2654 18 19.0404 18.0978 18.8745 18.272C18.7086 18.4461 18.6154 18.6823 18.6154 18.9286V23.5714H10.6538C9.95 23.5714 9.27499 23.8649 8.77729 24.3873C8.2796 24.9098 8 25.6183 8 26.3571V30.0714C8 30.3177 8.0932 30.5539 8.2591 30.728C8.425 30.9022 8.65 31 8.88462 31C9.11923 31 9.34424 30.9022 9.51013 30.728C9.67603 30.5539 9.76923 30.3177 9.76923 30.0714V26.3571C9.76923 26.1109 9.86243 25.8747 10.0283 25.7005C10.1942 25.5264 10.4192 25.4286 10.6538 25.4286H18.6154V30.0714C18.6154 30.3177 18.7086 30.5539 18.8745 30.728C19.0404 30.9022 19.2654 31 19.5 31C19.7346 31 19.9596 30.9022 20.1255 30.728C20.2914 30.5539 20.3846 30.3177 20.3846 30.0714V25.4286H28.3462C28.5808 25.4286 28.8058 25.5264 28.9717 25.7005C29.1376 25.8747 29.2308 26.1109 29.2308 26.3571V30.0714C29.2308 30.3177 29.324 30.5539 29.4899 30.728C29.6558 30.9022 29.8808 31 30.1154 31C30.35 31 30.575 30.9022 30.7409 30.728C30.9068 30.5539 31 30.3177 31 30.0714V26.3571C31 25.6183 30.7204 24.9098 30.2227 24.3873C29.725 23.8649 29.05 23.5714 28.3462 23.5714Z" fill="#0047FF"></path><path opacity="0.5" d="M28.3462 23.5714H20.3846V18.9286C20.3846 18.6823 20.2914 18.4461 20.1255 18.272C19.9596 18.0978 19.7346 18 19.5 18C19.2654 18 19.0404 18.0978 18.8745 18.272C18.7086 18.4461 18.6154 18.6823 18.6154 18.9286V23.5714H10.6538C9.95 23.5714 9.27499 23.8649 8.77729 24.3873C8.2796 24.9098 8 25.6183 8 26.3571V30.0714C8 30.3177 8.0932 30.5539 8.2591 30.728C8.425 30.9022 8.65 31 8.88462 31C9.11923 31 9.34424 30.9022 9.51013 30.728C9.67603 30.5539 9.76923 30.3177 9.76923 30.0714V26.3571C9.76923 26.1109 9.86243 25.8747 10.0283 25.7005C10.1942 25.5264 10.4192 25.4286 10.6538 25.4286H18.6154V30.0714C18.6154 30.3177 18.7086 30.5539 18.8745 30.728C19.0404 30.9022 19.2654 31 19.5 31C19.7346 31 19.9596 30.9022 20.1255 30.728C20.2914 30.5539 20.3846 30.3177 20.3846 30.0714V25.4286H28.3462C28.5808 25.4286 28.8058 25.5264 28.9717 25.7005C29.1376 25.8747 29.2308 26.1109 29.2308 26.3571V30.0714C29.2308 30.3177 29.324 30.5539 29.4899 30.728C29.6558 30.9022 29.8808 31 30.1154 31C30.35 31 30.575 30.9022 30.7409 30.728C30.9068 30.5539 31 30.3177 31 30.0714V26.3571C31 25.6183 30.7204 24.9098 30.2227 24.3873C29.725 23.8649 29.05 23.5714 28.3462 23.5714Z" fill="#0047FF"></path><path opacity="0.5" d="M28.3462 23.5714H20.3846V18.9286C20.3846 18.6823 20.2914 18.4461 20.1255 18.272C19.9596 18.0978 19.7346 18 19.5 18C19.2654 18 19.0404 18.0978 18.8745 18.272C18.7086 18.4461 18.6154 18.6823 18.6154 18.9286V23.5714H10.6538C9.95 23.5714 9.27499 23.8649 8.77729 24.3873C8.2796 24.9098 8 25.6183 8 26.3571V30.0714C8 30.3177 8.0932 30.5539 8.2591 30.728C8.425 30.9022 8.65 31 8.88462 31C9.11923 31 9.34424 30.9022 9.51013 30.728C9.67603 30.5539 9.76923 30.3177 9.76923 30.0714V26.3571C9.76923 26.1109 9.86243 25.8747 10.0283 25.7005C10.1942 25.5264 10.4192 25.4286 10.6538 25.4286H18.6154V30.0714C18.6154 30.3177 18.7086 30.5539 18.8745 30.728C19.0404 30.9022 19.2654 31 19.5 31C19.7346 31 19.9596 30.9022 20.1255 30.728C20.2914 30.5539 20.3846 30.3177 20.3846 30.0714V25.4286H28.3462C28.5808 25.4286 28.8058 25.5264 28.9717 25.7005C29.1376 25.8747 29.2308 26.1109 29.2308 26.3571V30.0714C29.2308 30.3177 29.324 30.5539 29.4899 30.728C29.6558 30.9022 29.8808 31 30.1154 31C30.35 31 30.575 30.9022 30.7409 30.728C30.9068 30.5539 31 30.3177 31 30.0714V26.3571C31 25.6183 30.7204 24.9098 30.2227 24.3873C29.725 23.8649 29.05 23.5714 28.3462 23.5714Z" fill="#0047FF"></path><path d="M17 8H23" stroke="#0047FF" stroke-width="1.8" stroke-linecap="round"></path><path d="M17 11L20.3333 11L23 11" stroke="#0047FF" stroke-width="1.8" stroke-linecap="round"></path><path d="M17 14L20.3333 14L23 14" stroke="#0047FF" stroke-width="1.8" stroke-linecap="round"></path></svg> 