<?xml version="1.0" encoding="UTF-8"?> <svg xmlns="http://www.w3.org/2000/svg" width="40" height="40" viewBox="0 0 40 40" fill="none"><path d="M3.11104 24.4444C3.11104 22.3111 4.88882 19.7037 5.77771 18.6667C11.8222 17.2444 16.2962 19.2592 17.7777 20.4444C18.074 23.4074 18.4888 29.8667 17.7777 32C16.8888 34.6667 9.77771 33.7778 5.77771 32.8889C1.77771 32 3.11104 27.1111 3.11104 24.4444Z" fill="#DBE5FF"></path><path d="M15.4125 35C16.0149 35 16.6115 34.8813 17.1681 34.6508C17.7246 34.4203 18.2304 34.0823 18.6564 33.6564C19.0823 33.2304 19.4203 32.7246 19.6508 32.1681C19.8813 31.6115 20 31.0149 20 30.4125V22.0875C20 21.4851 19.8813 20.8885 19.6508 20.3319C19.4203 19.7754 19.0823 19.2696 18.6564 18.8436C18.2304 18.4177 17.7246 18.0797 17.1681 17.8492C16.6115 17.6187 16.0149 17.5 15.4125 17.5H7.0875C6.48506 17.5 5.88852 17.6187 5.33194 17.8492C4.77536 18.0797 4.26964 18.4177 3.84365 18.8436C3.41766 19.2696 3.07975 19.7754 2.8492 20.3319C2.61866 20.8885 2.5 21.4851 2.5 22.0875V30.4125C2.5 31.6292 2.98332 32.796 3.84365 33.6564C4.70397 34.5167 5.87082 35 7.0875 35H15.4125ZM12.5 20V25H10V20H12.5ZM5 30.4125V22.0875C5 21.8134 5.05399 21.5419 5.1589 21.2886C5.26381 21.0354 5.41757 20.8053 5.61141 20.6114C5.80526 20.4176 6.03538 20.2638 6.28865 20.1589C6.54192 20.054 6.81337 20 7.0875 20H7.5V25C7.5 25.663 7.76339 26.2989 8.23223 26.7678C8.70107 27.2366 9.33696 27.5 10 27.5H12.5C13.163 27.5 13.7989 27.2366 14.2678 26.7678C14.7366 26.2989 15 25.663 15 25V20H15.4125C15.6866 20 15.9581 20.054 16.2114 20.1589C16.4646 20.2638 16.6947 20.4176 16.8886 20.6114C17.0824 20.8053 17.2362 21.0354 17.3411 21.2886C17.446 21.5419 17.5 21.8134 17.5 22.0875V30.4125C17.5 30.9661 17.2801 31.4971 16.8886 31.8886C16.4971 32.2801 15.9661 32.5 15.4125 32.5H7.0875C6.53386 32.5 6.0029 32.2801 5.61141 31.8886C5.21993 31.4971 5 30.9661 5 30.4125Z" fill="#0047FF"></path><path d="M22.5001 5.0001C19.7358 4.99915 17.025 5.7621 14.6669 7.20472C12.3089 8.64733 10.3954 10.7135 9.13761 13.1751C9.0621 13.3212 9.01611 13.4807 9.00225 13.6446C8.9884 13.8085 9.00696 13.9735 9.05687 14.1302C9.15767 14.4466 9.38006 14.7101 9.67511 14.8626C9.97017 15.0151 10.3137 15.0441 10.6302 14.9433C10.9467 14.8425 11.2101 14.6202 11.3626 14.3251C12.3572 12.3966 13.8367 10.7602 15.6555 9.57684C17.4743 8.39352 19.5699 7.70404 21.736 7.57624C23.9021 7.44844 26.0642 7.88671 28.0096 8.84794C29.9549 9.80917 31.6166 11.2602 32.831 13.0584C34.0455 14.8566 34.7709 16.94 34.936 19.1036C35.1011 21.2672 34.7001 23.4365 33.7725 25.3981C32.8449 27.3597 31.4226 29.0461 29.6456 30.2914C27.8686 31.5366 25.798 32.2978 23.6376 32.5001C23.326 32.5283 23.0362 32.6723 22.8256 32.9037C22.615 33.1352 22.4988 33.4372 22.5001 33.7501C22.5001 34.0816 22.6318 34.3996 22.8662 34.634C23.1007 34.8684 23.4186 35.0001 23.7501 35.0001H23.8626C27.8409 34.8194 31.5844 33.0658 34.2697 30.125C36.955 27.1842 38.362 23.2971 38.1814 19.3188C38.0007 15.3406 36.2471 11.5971 33.3063 8.91178C30.3654 6.22649 26.4784 4.81942 22.5001 5.0001Z" fill="#0047FF"></path><path d="M22.5 11.25C22.1685 11.25 21.8505 11.3817 21.6161 11.6161C21.3817 11.8505 21.25 12.1685 21.25 12.5V18.9625C21.2509 19.9567 21.6465 20.9099 22.35 21.6125L25.15 24.425C25.2668 24.5409 25.4053 24.6325 25.5576 24.6947C25.7099 24.7569 25.873 24.7885 26.0375 24.7875C26.202 24.7885 26.3651 24.7569 26.5174 24.6947C26.6697 24.6325 26.8082 24.5409 26.925 24.425C27.0422 24.3088 27.1352 24.1705 27.1986 24.0182C27.2621 23.8659 27.2947 23.7025 27.2947 23.5375C27.2947 23.3725 27.2621 23.2091 27.1986 23.0568C27.1352 22.9045 27.0422 22.7662 26.925 22.65L24.1125 19.85C23.9966 19.7332 23.905 19.5947 23.8428 19.4424C23.7806 19.2901 23.749 19.127 23.75 18.9625V12.5C23.75 12.1685 23.6183 11.8505 23.3839 11.6161C23.1495 11.3817 22.8315 11.25 22.5 11.25Z" fill="#0047FF"></path></svg> 