<?xml version="1.0" encoding="UTF-8"?> <svg xmlns="http://www.w3.org/2000/svg" width="40" height="40" viewBox="0 0 40 40" fill="none"><path d="M15.652 16C14.3558 16 13.3037 17.0815 13.3037 18.4132C13.3037 19.7452 14.3558 20.8264 15.652 20.8264C16.9482 20.8264 18 19.745 18 18.4132C17.9927 17.0812 16.9406 16 15.652 16ZM15.652 19.2595C15.2022 19.2595 14.8285 18.8832 14.8285 18.4132C14.8285 17.951 15.1946 17.5672 15.652 17.5672C16.1094 17.5672 16.4752 17.9431 16.4752 18.4132C16.4676 18.8754 16.1018 19.2595 15.652 19.2595ZM8.34827 16C7.05212 16 6 17.0815 6 18.4132C6 19.7452 7.05212 20.8264 8.34827 20.8264C9.64419 20.8264 10.6963 19.745 10.6963 18.4132C10.6887 17.0812 9.63653 16 8.34827 16ZM8.34827 19.2595C7.89822 19.2595 7.52478 18.8832 7.52478 18.4132C7.52478 17.951 7.89055 17.5672 8.34827 17.5672C8.80568 17.5672 9.17153 17.9431 9.17153 18.4132C9.16394 18.8754 8.79801 19.2595 8.34827 19.2595ZM15.652 22.1738C14.3558 22.1738 13.3037 23.255 13.3037 24.5871C13.3037 25.9188 14.3558 27 15.652 27C16.9482 27 18 25.9188 18 24.5871C17.9927 23.255 16.9406 22.1738 15.652 22.1738ZM15.652 25.4252C15.2022 25.4252 14.8285 25.0493 14.8285 24.5793C14.8285 24.117 15.1946 23.7329 15.652 23.7329C16.1094 23.7329 16.4752 24.1089 16.4752 24.5792C16.4676 25.0492 16.1018 25.4252 15.652 25.4252ZM8.34827 22.1738C7.05212 22.1738 6 23.255 6 24.5871C6 25.9188 7.05212 27 8.34827 27C9.64419 27 10.6963 25.9188 10.6963 24.5871C10.6887 23.255 9.63653 22.1738 8.34827 22.1738ZM8.34827 25.4252C7.89822 25.4252 7.52478 25.0493 7.52478 24.5793C7.52478 24.117 7.89055 23.7329 8.34827 23.7329C8.80568 23.7329 9.17153 24.1089 9.17153 24.5792C9.16394 25.0492 8.79801 25.4252 8.34827 25.4252Z" fill="#0047FF"></path><circle cx="29" cy="26" r="9" fill="#DBE5FF"></circle><path d="M30.6829 15.4905V10.3292C30.6829 8.14407 28.8972 6.37333 26.7124 6.37333H24.5804V4.75365C24.5804 4.33886 24.2415 4 23.8272 4C23.4129 4 23.0737 4.33893 23.0737 4.75358V6.36583H8.83499V4.75358C8.83499 4.33893 8.49611 4 8.08182 4C7.66723 4 7.32835 4.33893 7.32835 4.75358V6.36583H4.94029C2.75544 6.36576 1.00002 8.1365 1.00002 10.3216V27.2145C0.998556 27.7325 1.09948 28.2456 1.29698 28.7243C1.49448 29.2031 1.78466 29.6381 2.15084 30.0044C2.51702 30.3706 2.95197 30.6608 3.43069 30.8583C3.9094 31.0559 4.42243 31.1568 4.94029 31.1554H19.8718C21.7102 34.0938 24.9497 36 28.6337 36C34.3443 36.0001 39 31.3587 39 25.6399C39 20.6291 35.4292 16.4398 30.6829 15.4905ZM4.94029 7.87298H7.32835V9.47782C7.32835 9.89224 7.66753 10.2312 8.08182 10.2312C8.49611 10.2312 8.83499 9.89224 8.83499 9.47782V7.87298H23.0737V9.47782C23.0737 9.89224 23.4129 10.2312 23.8272 10.2312C24.2415 10.2312 24.5804 9.89224 24.5804 9.47782V7.87298H26.7124C28.0687 7.87298 29.1762 8.96527 29.1762 10.3217V12.8457H2.50666V10.3217C2.50666 8.96527 3.58401 7.87298 4.94029 7.87298ZM4.94029 29.6482C3.58401 29.6482 2.50666 28.5632 2.50666 27.2146V14.3528H29.1762V15.2945C28.9955 15.2853 28.8146 15.2803 28.6337 15.2794C22.923 15.2794 18.2671 19.9211 18.2671 25.6324C18.2671 27.0563 18.5536 28.4352 19.0735 29.6408H4.94029V29.6482ZM28.6337 34.5006C23.7518 34.5006 19.7814 30.53 19.7814 25.6473C19.7814 20.7648 23.7518 16.7941 28.6337 16.7941C33.5154 16.7941 37.4858 20.7648 37.4858 25.6474C37.4858 30.53 33.5154 34.5006 28.6337 34.5006Z" fill="#0047FF"></path><path d="M33.0576 21.6924H31.2643V21.5231C31.2643 20.677 30.5099 20 29.6131 20H27.1925C26.296 20 25.5861 20.677 25.5861 21.5231V21.6924H23.9128C22.8519 21.6924 22 22.5315 22 23.5257V24.675C22 25.2179 22.2243 25.7045 22.6724 26.0431V29.1879C22.6724 30.1892 23.5092 31 24.5701 31H32.4C33.4609 31 34.3275 30.1892 34.3275 29.1879V26.0431C34.7012 25.7045 35 25.2179 35 24.675V23.5258C35 22.5315 34.1184 21.6924 33.0576 21.6924ZM27.0804 21.5231C27.0804 21.4526 27.1178 21.4102 27.1925 21.4102H29.6134C29.6879 21.4102 29.7701 21.4526 29.7701 21.5231V21.6924H27.0804V21.5231ZM23.4942 23.5258C23.4942 23.3071 23.6736 23.1028 23.9125 23.1028H33.0576C33.2894 23.1028 33.5058 23.3071 33.5058 23.5258V24.675C33.5058 24.8514 33.3713 25.0066 33.1921 25.056L30.4128 25.8597C29.15 26.2264 27.8202 26.2264 26.5578 25.8597L23.7933 25.056C23.6139 25.0066 23.4943 24.8514 23.4943 24.675L23.4942 23.5258ZM32.4 29.5901H24.57C24.3386 29.5901 24.1667 29.4067 24.1667 29.1879V26.6356L26.1316 27.2065C26.9087 27.4323 27.693 27.5452 28.4927 27.5452C29.2844 27.5452 30.084 27.4323 30.8609 27.2065L32.8408 26.6356V29.1879C32.8332 29.4067 32.6317 29.5902 32.4 29.5902V29.5901Z" fill="#0047FF"></path></svg> 