<svg width="20" height="22" viewBox="0 0 20 22" fill="none" xmlns="http://www.w3.org/2000/svg">
<g id="Bell">
<path id="Vector" d="M15.9171 7C15.9171 5.4087 15.2885 3.88258 14.1695 2.75736C13.0505 1.63214 11.5328 1 9.95028 1C8.36777 1 6.85008 1.63214 5.73108 2.75736C4.61207 3.88258 3.98343 5.4087 3.98343 7C3.98343 14 1 16 1 16H18.9006C18.9006 16 15.9171 14 15.9171 7Z" stroke="#5F498A" stroke-width="2" stroke-linecap="round" stroke-linejoin="round"/>
<path id="Vector_2" d="M11.6709 20C11.496 20.3031 11.2451 20.5547 10.9431 20.7295C10.6412 20.9044 10.2989 20.9965 9.95042 20.9965C9.60198 20.9965 9.25965 20.9044 8.95771 20.7295C8.65577 20.5547 8.40482 20.3031 8.22998 20" stroke="#5F498A" stroke-width="2" stroke-linecap="round" stroke-linejoin="round"/>
<circle id="Ellipse 39" cx="14.7568" cy="5" r="4" fill="#FF0000"/>
</g>
</svg>
