<svg width="24" height="24" viewBox="0 0 24 24" fill="none" xmlns="http://www.w3.org/2000/svg">
<path d="M17.94 17.94C16.2306 19.243 14.1491 19.9649 12 20C7.6696 20 4.48731 16.9384 2.68987 14.6032C1.50073 13.0583 1.49648 10.936 2.69334 9.39702C3.66477 8.14794 4.79553 7.02559 6.06 6.06003M9.9 4.24002C10.5883 4.0789 11.2931 3.99836 12 4.00003C16.3333 4.00003 19.517 7.0658 21.3138 9.40162C22.5004 10.9442 22.5063 13.0622 21.3152 14.6013C21.1609 14.8007 21.0025 14.997 20.84 15.19M14.12 14.12C13.8454 14.4148 13.5141 14.6512 13.1462 14.8151C12.7782 14.9791 12.3809 15.0673 11.9781 15.0744C11.5753 15.0815 11.1752 15.0074 10.8016 14.8565C10.4281 14.7056 10.0887 14.4811 9.80385 14.1962C9.51897 13.9113 9.29439 13.572 9.14351 13.1984C8.99262 12.8249 8.91853 12.4247 8.92563 12.0219C8.93274 11.6191 9.02091 11.2219 9.18488 10.8539C9.34884 10.4859 9.58525 10.1547 9.88 9.88003" stroke="white" stroke-width="2" stroke-linecap="round" stroke-linejoin="round"/>
<path d="M1 1L23 23" stroke="white" stroke-width="2" stroke-linecap="round" stroke-linejoin="round"/>
</svg>
