<svg width="46" height="34" viewBox="0 0 46 34" fill="none" xmlns="http://www.w3.org/2000/svg">
<path fill-rule="evenodd" clip-rule="evenodd" d="M5.27623 0.00196023C2.50429 0.0693398 0.244114 2.25132 0.0326181 4.9842L0 28.0495C0 31.0192 2.43517 33.4565 5.40696 33.4565H40.5767C43.5485 33.4565 46 31.0192 46 28.0495L45.9837 5.03321C45.7935 2.23314 43.4224 0.00196023 40.5767 0.00196023H5.40699C5.36349 -0.000653409 5.31973 -0.000653409 5.27623 0.00196023ZM5.32521 2.09287C5.35244 2.09391 5.37967 2.09391 5.40688 2.09287H40.5766C42.2243 2.09287 43.6009 3.28913 43.86 4.85352L24.5518 24.1128C23.4928 24.993 22.3623 24.9429 21.4154 24.1128L2.13984 4.88619C2.38391 3.33428 3.7056 2.13312 5.32521 2.09287ZM43.909 7.74486V28.0495C43.909 29.8785 42.4115 31.3656 40.5766 31.3656H5.40688C3.57203 31.3656 2.09083 29.8785 2.09083 28.0495V7.77753L19.9289 25.5993C21.6414 27.2169 24.3464 27.2393 26.0383 25.5993L43.909 7.74486Z" fill="#4D249B"/>
</svg>
