<svg width="13" height="16" viewBox="0 0 13 16" fill="none" xmlns="http://www.w3.org/2000/svg">
<path d="M12.4715 6.66602C12.4715 11.3327 6.51706 15.3327 6.51706 15.3327C6.51706 15.3327 0.562622 11.3327 0.562622 6.66602C0.562622 5.07472 1.18996 3.54859 2.30664 2.42337C3.42331 1.29816 4.93784 0.666016 6.51706 0.666016C8.09627 0.666016 9.6108 1.29816 10.7275 2.42337C11.8441 3.54859 12.4715 5.07472 12.4715 6.66602Z" stroke="white" stroke-linecap="round" stroke-linejoin="round"/>
<path d="M6.51643 8.66602C7.61261 8.66602 8.50124 7.77059 8.50124 6.66602C8.50124 5.56145 7.61261 4.66602 6.51643 4.66602C5.42025 4.66602 4.53162 5.56145 4.53162 6.66602C4.53162 7.77059 5.42025 8.66602 6.51643 8.66602Z" stroke="white" stroke-linecap="round" stroke-linejoin="round"/>
</svg>
