<svg width="22" height="22" viewBox="0 0 22 22" fill="none" xmlns="http://www.w3.org/2000/svg">
<g clip-path="url(#clip0_1_185)">
<path d="M7.26185 8.02592C7.26163 8.02592 7.26202 8.02592 7.26185 8.02592H3.70167C3.45605 8.02576 3.25687 8.22519 3.25671 8.47126C3.25671 8.4711 3.25671 8.47148 3.25671 8.47126V19.1729C3.25655 19.419 3.45556 19.6186 3.70112 19.6188C3.70096 19.6188 3.70134 19.6188 3.70112 19.6188H7.26131C7.50693 19.619 7.7061 19.4195 7.70626 19.1734C7.70626 19.1732 7.70626 19.1736 7.70626 19.1734V8.4718C7.70643 8.22568 7.50741 8.02609 7.26185 8.02592ZM6.81635 18.727H4.14662V8.91768H6.81635V18.727ZM16.6054 8.02592C15.64 8.02598 14.7015 8.34526 13.9356 8.93423V8.4718C13.9358 8.22568 13.7368 8.02609 13.4912 8.02592C13.491 8.02592 13.4914 8.02592 13.4912 8.02592H9.93104C9.68542 8.02576 9.48625 8.22519 9.48609 8.47126C9.48609 8.4711 9.48609 8.47148 9.48609 8.47126V19.1729C9.48592 19.419 9.68494 19.6186 9.93055 19.6188C9.93039 19.6188 9.93072 19.6188 9.93055 19.6188H13.4907C13.7363 19.619 13.9355 19.4195 13.9356 19.1734C13.9356 19.1732 13.9356 19.1736 13.9356 19.1734V14.2682C13.9356 13.5295 14.5333 12.9306 15.2705 12.9306C16.0077 12.9306 16.6054 13.5295 16.6054 14.2682V19.1729C16.6052 19.419 16.8042 19.6186 17.0498 19.6188C17.0497 19.6188 17.05 19.6188 17.0498 19.6188H20.61C20.8556 19.619 21.0548 19.4195 21.0549 19.1734C21.0549 19.1732 21.0549 19.1736 21.0549 19.1734V12.4847C21.052 10.0234 19.0616 8.02881 16.6054 8.02592ZM20.165 18.727H17.4953V14.2682C17.4953 13.037 16.4992 12.0388 15.2705 12.0388C14.0418 12.0388 13.0457 13.037 13.0457 14.2682V18.727H10.376V8.91768H13.0457V9.99058C13.0457 10.18 13.1653 10.3488 13.3439 10.4112C13.522 10.4755 13.7212 10.4183 13.8384 10.2693C15.0509 8.72936 17.2796 8.46609 18.8163 9.68121C19.6723 10.3581 20.1697 11.3921 20.165 12.4847V18.727ZM5.80896 1.78524C5.70429 1.77789 5.59924 1.77735 5.49452 1.78361C4.1514 1.69168 2.98823 2.70824 2.89649 4.05415C2.8928 4.10831 2.89095 4.16252 2.89084 4.21679C2.87927 5.55127 3.94946 6.64246 5.28117 6.65405C5.33554 6.65454 5.38986 6.65312 5.44412 6.64991H5.46932C6.80989 6.74391 7.97263 5.7311 8.06643 4.38775C8.16024 3.04439 7.14953 1.87924 5.80896 1.78524ZM5.77822 5.76071C5.67545 5.77018 5.57192 5.76937 5.46932 5.75815H5.44412C4.59326 5.82369 3.85055 5.18567 3.78515 4.33305C3.71975 3.48048 4.35644 2.73616 5.2073 2.67063C5.30301 2.66328 5.39915 2.66486 5.49452 2.67537C6.34473 2.59688 7.09749 3.2239 7.17587 4.07587C7.25419 4.9279 6.62848 5.68222 5.77822 5.76071Z" fill="#EEEEEE"/>
</g>
<defs>
<clipPath id="clip0_1_185">
<rect width="21.3579" height="21.4022" fill="white" transform="translate(0.586975)"/>
</clipPath>
</defs>
</svg>
