<svg width="20" height="27" viewBox="0 0 20 27" fill="none" xmlns="http://www.w3.org/2000/svg">
<path d="M9.3601 26.0555C9.46239 26.142 9.58824 26.1854 9.71436 26.1854C9.84048 26.1854 9.96633 26.142 10.0686 26.0555C10.4507 25.7323 19.4287 18.0445 19.4287 10.1255C19.4287 4.76906 15.0708 0.411133 9.71436 0.411133C4.35792 0.411133 0 4.76906 0 10.1255C0 18.0445 8.97799 25.7323 9.3601 26.0555ZM9.71436 1.50791C14.4662 1.50791 18.3319 5.37368 18.3319 10.1255C18.3319 16.6802 11.3788 23.3918 9.71409 24.9041C8.04964 23.3929 1.09678 16.6866 1.09678 10.1255C1.09678 5.37368 4.96254 1.50791 9.71436 1.50791Z" fill="#4D249B"/>
<path d="M15.14 10.1254C15.14 7.13394 12.7063 4.7002 9.7148 4.7002C6.72329 4.7002 4.28955 7.13394 4.28955 10.1254C4.28955 13.1167 6.72329 15.5504 9.7148 15.5504C12.7063 15.5504 15.14 13.1167 15.14 10.1254ZM5.38633 10.1254C5.38633 7.73883 7.32818 5.79697 9.7148 5.79697C12.1014 5.79697 14.0433 7.73883 14.0433 10.1254C14.0433 12.5121 12.1014 14.4536 9.7148 14.4536C7.32818 14.4536 5.38633 12.5121 5.38633 10.1254Z" fill="#4D249B"/>
</svg>
