<svg width="24" height="18" viewBox="0 0 24 18" fill="none" xmlns="http://www.w3.org/2000/svg">
<path d="M24 1.76334V1.68237C23.9995 1.23635 23.8277 0.808758 23.5224 0.493372C23.2171 0.177987 22.8031 0.000558313 22.3713 0H1.62868C1.19689 0.000558313 0.782946 0.177987 0.477627 0.493372C0.172307 0.808758 0.000540495 1.23635 0 1.68237V1.69767V16.3176C0.000540495 16.7636 0.172307 17.1912 0.477627 17.5066C0.782946 17.822 1.19689 17.9994 1.62868 18H22.3713C22.8031 17.9994 23.2171 17.822 23.5224 17.5066C23.8277 17.1912 23.9995 16.7636 24 16.3176V1.76334ZM23.1319 15.4051L21.7292 13.9546V4.29442L23.1319 2.84387V15.4051ZM1.62868 0.896176H22.3713C22.5566 0.896463 22.7355 0.966518 22.8744 1.09322C23.0134 1.21993 23.1028 1.3946 23.126 1.58453L13.7155 11.3053C13.2686 11.7659 12.6631 12.0245 12.0318 12.0245C11.4005 12.0245 10.795 11.7659 10.3481 11.3053L0.882383 1.52756C0.917236 1.34957 1.01056 1.1895 1.14657 1.07444C1.28257 0.959378 1.45289 0.896403 1.62868 0.896176ZM0.868085 15.471V2.77925L2.27081 4.2298V14.0218L0.868085 15.471ZM22.3718 17.1038H1.62868C1.48575 17.1035 1.34579 17.0617 1.22483 16.983C1.10386 16.9044 1.00677 16.7921 0.944681 16.6592L6.43149 10.9907C6.4757 10.9501 6.51142 10.9006 6.53644 10.8452C6.56147 10.7899 6.57527 10.7298 6.57701 10.6687C6.57876 10.6077 6.56839 10.5469 6.54656 10.4901C6.52473 10.4333 6.4919 10.3817 6.45007 10.3385C6.40825 10.2953 6.35832 10.2614 6.30334 10.2388C6.24837 10.2163 6.18951 10.2056 6.13039 10.2074C6.07126 10.2092 6.01312 10.2235 5.95953 10.2493C5.90593 10.2752 5.85802 10.312 5.81872 10.3577L3.13787 13.1269V5.12466L9.73481 11.9391C10.3445 12.5673 11.1706 12.9201 12.0318 12.9201C12.893 12.9201 13.719 12.5673 14.3288 11.9391L20.8621 5.19033V13.06L18.2456 10.3572C18.2063 10.3115 18.1584 10.2746 18.1048 10.2488C18.0512 10.2229 17.9931 10.2087 17.934 10.2069C17.8748 10.2051 17.816 10.2158 17.761 10.2383C17.706 10.2609 17.6561 10.2948 17.6143 10.338C17.5724 10.3812 17.5396 10.4328 17.5178 10.4896C17.4959 10.5463 17.4856 10.6071 17.4873 10.6682C17.4891 10.7293 17.5029 10.7893 17.5279 10.8447C17.5529 10.9001 17.5886 10.9496 17.6329 10.9902L23.076 16.6141C23.0188 16.7587 22.9213 16.8825 22.7958 16.9697C22.6703 17.057 22.5226 17.1036 22.3713 17.1038H22.3718Z" fill="#4D249B"/>
</svg>
