<svg width="23" height="23" viewBox="0 0 23 23" fill="none" xmlns="http://www.w3.org/2000/svg">
<path fill-rule="evenodd" clip-rule="evenodd" d="M5.40872 0.446331C5.12335 0.160964 4.73592 0 4.33173 0C3.92755 0 3.54012 0.160964 3.25475 0.446331C2.72514 0.975936 1.98685 1.71423 1.33893 2.36215C0.231484 3.4696 -0.23211 5.06705 0.111143 6.59493C0.111651 6.59696 0.112154 6.5995 0.112662 6.60153C0.680349 8.985 2.14984 12.841 6.00382 16.695C9.8578 20.549 13.7148 22.0185 16.0993 22.5826C16.1008 22.5831 16.1029 22.5831 16.1049 22.5836C17.6313 22.9264 19.2277 22.4638 20.3341 21.3573C20.9836 20.713 21.7224 19.9742 22.2525 19.4441C22.5384 19.1587 22.6988 18.7713 22.6988 18.3671C22.6988 17.9629 22.5379 17.5755 22.2525 17.2901C21.2862 16.3238 19.577 14.6147 18.6108 13.6484C18.0162 13.0538 17.0514 13.0538 16.4568 13.6484L14.1789 15.9257C14.0185 16.0867 13.7707 16.1207 13.5732 16.0105C12.7521 15.4824 11.2963 14.4583 9.76843 12.9304C8.24208 11.404 7.2179 9.94926 6.69693 9.13429C6.58065 8.93474 6.61314 8.6839 6.77512 8.52192L6.77665 8.5204C7.38902 7.90345 8.37866 6.91381 9.05045 6.24203C9.64505 5.64743 9.64505 4.68266 9.05045 4.08806L5.40872 0.446331ZM4.69073 1.16432L8.33246 4.80605C8.53049 5.00408 8.53049 5.32601 8.33246 5.52404C7.65966 6.19684 6.669 7.1875 6.05562 7.80494C5.5646 8.29596 5.46965 9.06015 5.82661 9.65831C5.82966 9.66237 5.8322 9.66643 5.83474 9.671C6.37704 10.521 7.44894 12.0469 9.05045 13.6484C10.6514 15.2494 12.1768 16.3208 13.0248 16.8661C13.0293 16.8692 13.0344 16.8717 13.039 16.8747C13.6382 17.2327 14.4039 17.1373 14.8974 16.6437L17.1748 14.3664C17.3728 14.1683 17.6947 14.1683 17.8928 14.3664L21.5345 18.0081C21.6295 18.103 21.6833 18.2325 21.6833 18.3671C21.6833 18.5016 21.6295 18.6311 21.5345 18.7261C21.0049 19.2552 20.2676 19.993 19.6177 20.6378L19.6161 20.6394C18.756 21.499 17.516 21.859 16.3298 21.5935C14.0581 21.0557 10.3915 19.6467 6.72181 15.977C3.05215 12.3073 1.64309 8.64074 1.10129 6.36948C0.83573 5.1818 1.19625 3.94081 2.05692 3.08014L3.97274 1.16432C4.06769 1.06937 4.19717 1.01554 4.33173 1.01554C4.46629 1.01554 4.59577 1.06937 4.69073 1.16432Z" fill="#4D249B"/>
<path fill-rule="evenodd" clip-rule="evenodd" d="M11.4401 2.6259C16.2042 2.6259 20.0725 6.49421 20.0725 11.2582C20.0725 11.5383 20.2999 11.7657 20.58 11.7657C20.8601 11.7657 21.0875 11.5383 21.0875 11.2582C21.0875 5.93345 16.7649 1.61084 11.4401 1.61084C11.16 1.61084 10.9326 1.83826 10.9326 2.11837C10.9326 2.39848 11.16 2.6259 11.4401 2.6259Z" fill="#4D249B"/>
<path fill-rule="evenodd" clip-rule="evenodd" d="M11.4405 5.67301C14.5233 5.67301 17.0259 8.17554 17.0259 11.2584C17.0259 11.5387 17.2535 11.7663 17.5338 11.7663C17.814 11.7663 18.0416 11.5387 18.0416 11.2584C18.0416 7.61532 15.0835 4.65723 11.4405 4.65723C11.1602 4.65723 10.9326 4.88483 10.9326 5.16512C10.9326 5.44541 11.1602 5.67301 11.4405 5.67301Z" fill="#4D249B"/>
<path fill-rule="evenodd" clip-rule="evenodd" d="M11.4411 8.71928C12.8423 8.71928 13.98 9.85692 13.98 11.2582C13.98 11.5385 14.2074 11.7659 14.4877 11.7659C14.768 11.7659 14.9954 11.5385 14.9954 11.2582C14.9954 9.29652 13.4027 7.70386 11.4411 7.70386C11.1608 7.70386 10.9333 7.93128 10.9333 8.21157C10.9333 8.49186 11.1608 8.71928 11.4411 8.71928Z" fill="#4D249B"/>
</svg>
