<svg width="13" height="14" viewBox="0 0 13 14" fill="none" xmlns="http://www.w3.org/2000/svg">
<path d="M12.4731 9.98431V11.7908C12.4738 11.9585 12.4396 12.1245 12.3728 12.2781C12.306 12.4318 12.208 12.5697 12.0851 12.6831C11.9622 12.7965 11.8172 12.8828 11.6592 12.9365C11.5012 12.9903 11.3338 13.0102 11.1677 12.9951C9.32522 12.7938 7.55534 12.1606 6.00032 11.1465C4.55358 10.222 3.32699 8.98843 2.40767 7.53351C1.39573 5.96259 0.765979 4.17405 0.569435 2.31277C0.554472 2.14625 0.574151 1.97843 0.627217 1.81998C0.680284 1.66153 0.765576 1.51592 0.877664 1.39244C0.989752 1.26896 1.12618 1.1703 1.27826 1.10274C1.43034 1.03519 1.59474 1.00022 1.761 1.00006H3.55732C3.84791 0.997182 4.12962 1.10067 4.34996 1.29122C4.57029 1.48178 4.7142 1.74641 4.75487 2.03578C4.83069 2.61389 4.9713 3.18152 5.17401 3.72785C5.25457 3.94338 5.27201 4.17761 5.22425 4.4028C5.1765 4.62799 5.06555 4.83469 4.90456 4.99841L4.14412 5.76315C4.99651 7.27069 6.23771 8.51891 7.73677 9.37612L8.49721 8.61138C8.66001 8.44948 8.86555 8.33791 9.08947 8.28988C9.31339 8.24185 9.54631 8.25939 9.76063 8.3404C10.3039 8.54427 10.8683 8.68567 11.4432 8.76192C11.734 8.80318 11.9997 8.95052 12.1896 9.1759C12.3795 9.40128 12.4804 9.68899 12.4731 9.98431Z" stroke="white" stroke-linecap="round" stroke-linejoin="round"/>
</svg>
