<svg width="20" height="16" viewBox="0 0 20 16" fill="none" xmlns="http://www.w3.org/2000/svg">
<g clip-path="url(#clip0_1_182)">
<path d="M15.7284 0.350586H4.91601C2.59735 0.350586 0.711182 2.31067 0.711182 4.72021V10.9625C0.711182 13.3721 2.59735 15.3321 4.91601 15.3321H15.7284C18.0471 15.3321 19.9333 13.3721 19.9333 10.9625V4.72021C19.9333 2.31067 18.0471 0.350586 15.7284 0.350586ZM18.7319 10.9625C18.7319 12.6835 17.3845 14.0837 15.7284 14.0837H4.91601C3.25991 14.0837 1.91256 12.6835 1.91256 10.9625V4.72021C1.91256 2.9992 3.25991 1.59905 4.91601 1.59905H15.7284C17.3845 1.59905 18.7319 2.9992 18.7319 4.72021V10.9625Z" fill="#EEEEEE"/>
<path d="M13.5696 7.27091L8.16336 4.77398C8.0719 4.73175 7.97173 4.71394 7.87197 4.72217C7.7722 4.7304 7.67599 4.7644 7.59208 4.82108C7.50817 4.87776 7.43922 4.95534 7.3915 5.04675C7.34377 5.13817 7.31877 5.24052 7.31879 5.34453V10.3384C7.31862 10.4424 7.34351 10.5449 7.3912 10.6364C7.43889 10.7279 7.50785 10.8055 7.59181 10.8623C7.67577 10.919 7.77204 10.953 7.87187 10.9611C7.9717 10.9693 8.07191 10.9513 8.16336 10.9089L13.5696 8.412C13.6756 8.36279 13.7657 8.28273 13.8288 8.18148C13.892 8.08023 13.9257 7.96213 13.9257 7.84145C13.9257 7.72077 13.892 7.60267 13.8288 7.50143C13.7657 7.40018 13.6756 7.32011 13.5696 7.27091ZM8.52017 9.37769V6.30522L11.8468 7.84145L8.52017 9.37769Z" fill="#EEEEEE"/>
</g>
<defs>
<clipPath id="clip0_1_182">
<rect width="19.2221" height="14.9816" fill="white" transform="translate(0.711182 0.350586)"/>
</clipPath>
</defs>
</svg>
